<svg width="61" height="61" viewBox="0 0 61 61" fill="none" xmlns="http://www.w3.org/2000/svg">
<path d="M49.0289 14.3319C55.0145 23.2668 57.9706 33.3453 56.8655 44.9478C56.8609 44.9969 56.8357 45.042 56.796 45.0716C52.2632 48.4508 47.8714 50.5016 43.5414 51.8616C43.5076 51.872 43.4716 51.8714 43.4382 51.86C43.4048 51.8485 43.3758 51.8268 43.3552 51.7977C42.3548 50.3846 41.4459 48.8947 40.6495 47.3302C40.6038 47.2381 40.6456 47.1271 40.7396 47.0908C42.1832 46.5386 43.5559 45.8767 44.8763 45.0931C44.9803 45.0312 44.9869 44.8799 44.8909 44.8073C44.6106 44.5961 44.333 44.3741 44.0674 44.1521C44.0177 44.1111 43.9508 44.103 43.8945 44.1306C35.3224 48.1495 25.9321 48.1495 17.2587 44.1306C17.2024 44.1051 17.1355 44.1138 17.0871 44.1542C16.8221 44.3761 16.5439 44.5961 16.2663 44.8073C16.1702 44.8799 16.1782 45.0313 16.2828 45.0931C17.6032 45.8619 18.9759 46.5386 20.4175 47.0935C20.5109 47.1298 20.5553 47.2381 20.5089 47.3303C19.7298 48.8968 18.8209 50.3866 17.8019 51.7998C17.7576 51.8569 17.6847 51.8832 17.6158 51.8616C13.3062 50.5016 8.91452 48.4508 4.38171 45.0716C4.34395 45.042 4.31679 44.995 4.31281 44.9459C3.3893 34.9098 5.27146 24.748 12.1422 14.3299C12.1588 14.3023 12.184 14.2808 12.2131 14.268C15.5939 12.6927 19.2158 11.5338 23.0013 10.872C23.0702 10.8612 23.1391 10.8935 23.1748 10.9554C23.6426 11.7961 24.1772 12.8743 24.5389 13.7554C28.5292 13.1366 32.5817 13.1366 36.6554 13.7554C37.0171 12.8931 37.5332 11.7961 37.9989 10.9553C38.0155 10.9247 38.0412 10.9001 38.0724 10.8851C38.1036 10.8701 38.1386 10.8655 38.1725 10.8719C41.96 11.5358 45.5819 12.6947 48.96 14.268C48.9898 14.2807 49.0143 14.3023 49.0289 14.3319ZM26.5675 33.4139C26.6092 30.447 24.4786 27.992 21.8041 27.992C19.1515 27.992 17.0414 30.4255 17.0414 33.4139C17.0414 36.4016 19.1932 38.8352 21.8041 38.8352C24.4574 38.8352 26.5675 36.4016 26.5675 33.4139ZM44.178 33.4139C44.2198 30.447 42.0892 27.9919 39.4153 27.992C36.762 27.992 34.652 30.4255 34.652 33.4139C34.652 36.4016 36.8037 38.8351 39.4153 38.8351C42.0892 38.8351 44.178 36.4016 44.178 33.4139Z" fill="#F2F2F2"/>
</svg>
