<svg width="61" height="61" viewBox="0 0 61 61" fill="none" xmlns="http://www.w3.org/2000/svg">
<path d="M37.8796 10.8691L21.3079 10.8691C14.573 10.8691 9.09375 16.3484 9.09374 23.0833L9.09372 39.655C9.09372 46.3899 14.5729 51.8691 21.3078 51.8691L37.8796 51.8691C44.6145 51.8691 50.0937 46.3899 50.0937 39.655L50.0937 23.0832C50.0937 16.3483 44.6144 10.8691 37.8796 10.8691ZM45.9691 39.655C45.9691 44.1227 42.3473 47.7445 37.8796 47.7445L21.3078 47.7445C16.8402 47.7445 13.2183 44.1227 13.2183 39.655L13.2183 23.0833C13.2183 18.6155 16.8402 14.9937 21.3079 14.9937L37.8796 14.9937C42.3473 14.9937 45.9691 18.6155 45.9691 23.0832L45.9691 39.655Z" fill="#F2F2F2"/>
<path d="M29.5938 20.8691C23.804 20.8691 19.0937 25.5794 19.0937 31.3691C19.0937 37.1588 23.804 41.8691 29.5937 41.8691C35.3834 41.8691 40.0937 37.1588 40.0937 31.3691C40.0937 25.5794 35.3835 20.8691 29.5938 20.8691ZM29.5937 37.7851C26.0503 37.7851 23.1779 34.9126 23.1779 31.3692C23.1779 27.8257 26.0504 24.9533 29.5937 24.9533C33.1372 24.9533 36.0096 27.8257 36.0096 31.3692C36.0096 34.9125 33.1371 37.7851 29.5937 37.7851Z" fill="#F2F2F2"/>
<path d="M40.5937 22.8691C41.9745 22.8691 43.0937 21.7498 43.0937 20.3691C43.0937 18.9884 41.9745 17.8691 40.5938 17.8691C39.213 17.8691 38.0937 18.9884 38.0937 20.3691C38.0937 21.7499 39.213 22.8691 40.5937 22.8691Z" fill="#F2F2F2"/>
</svg>
