<svg width="61" height="61" viewBox="0 0 61 61" fill="none" xmlns="http://www.w3.org/2000/svg">
<path d="M9.09375 16.3985C9.09375 15.0853 9.55547 14.002 10.4789 13.1485C11.4023 12.2949 12.6028 11.8682 14.0802 11.8682C15.5313 11.8682 16.7054 12.2883 17.6024 13.1288C18.5258 13.9954 18.9876 15.1247 18.9876 16.5166C18.9876 17.7772 18.5391 18.8277 17.642 19.6682C16.7186 20.5348 15.5049 20.9682 14.0011 20.9682L13.9615 20.9682C12.5104 20.9682 11.3364 20.5348 10.4393 19.6682C9.54225 18.8015 9.09374 17.7116 9.09375 16.3985ZM9.60819 50.8682L9.60822 24.553L18.3939 24.553L18.3939 50.8682L9.60819 50.8682ZM23.2617 50.8682L32.0474 50.8681L32.0474 36.1742C32.0474 35.255 32.1529 34.5459 32.364 34.0469C32.7334 33.154 33.294 32.3989 34.046 31.7818C34.7979 31.1646 35.7411 30.856 36.8756 30.856C39.8306 30.856 41.308 32.8388 41.308 36.8045L41.308 50.8681L50.0937 50.8681L50.0937 35.7803C50.0937 31.8934 49.1703 28.9454 47.3235 26.9363C45.4766 24.9272 43.0362 23.9227 40.002 23.9227C36.5986 23.9227 33.947 25.3803 32.0474 28.2954L32.0474 28.3742L32.0078 28.3742L32.0474 28.2954L32.0474 24.553L23.2617 24.553C23.3144 25.3934 23.3408 28.0065 23.3408 32.3924C23.3408 36.7782 23.3144 42.9368 23.2617 50.8682Z" fill="#F2F2F2"/>
</svg>
