<svg width="61" height="61" viewBox="0 0 61 61" fill="none" xmlns="http://www.w3.org/2000/svg">
<path d="M51.3109 47.659L55.0937 51.285L55.0937 51.4053L35.9062 51.4053L35.9062 51.2851L39.7578 47.659C40.1687 47.3231 40.3656 46.7903 40.2711 46.2667L40.2711 23.0869C40.2711 22.1073 40.2711 20.7833 40.443 19.6508L27.5 51.8691L27.3461 51.8691L13.9437 22.2275L13.3789 20.9384L13.3789 40.3742C13.2183 41.6742 13.4383 42.9926 14.0125 44.1717L19.4047 51.2859L19.4047 51.4061L5.09371 51.4061L5.09371 51.2859L10.4859 44.1547C11.0562 42.9819 11.2672 41.6696 11.1187 40.3742L11.1187 18.8938C11.2062 17.8359 10.8883 16.7841 10.2281 15.9557L6.41172 10.9894L6.41172 10.8691L20.1055 10.8691L31.5742 35.9748L41.6734 10.8691L55.0766 10.8691L55.0766 10.9893L51.3109 15.1995C50.8594 15.5307 50.6344 16.0899 50.7289 16.6421L50.7289 46.2667C50.6795 46.5298 50.7083 46.8015 50.8116 47.0487C50.9149 47.2958 51.0884 47.5079 51.3109 47.659Z" fill="#F2F2F2"/>
</svg>
