<svg width="61" height="61" viewBox="0 0 61 61" fill="none" xmlns="http://www.w3.org/2000/svg">
<path d="M27.0937 26.6204L27.0937 24.9929C26.5424 24.913 25.9869 24.8717 25.4307 24.8691C18.6287 24.8691 13.0937 30.5425 13.0937 37.5159C13.0937 41.7928 15.1797 45.5801 18.3607 47.8691C16.2307 45.5341 15.0457 42.4565 15.0477 39.2595C15.0477 32.3858 20.4247 26.7803 27.0937 26.6204Z" fill="#F2F2F2"/>
<path d="M27.4215 43.8691C30.2974 43.8691 32.6423 41.4541 32.7493 38.4429L32.7593 11.5702L37.4091 11.5702C37.3096 11.0093 37.259 10.4399 37.2581 9.86913L30.9084 9.86913L30.8974 36.7429C30.7914 39.7519 28.4445 42.167 25.5696 42.167C24.7071 42.1671 23.8575 41.9447 23.0937 41.5189C23.5887 42.2465 24.239 42.839 24.9914 43.2475C25.7437 43.6561 26.5766 43.8691 27.4215 43.8691ZM46.0927 20.6917L46.0927 19.1979C44.3857 19.1999 42.7149 18.6754 41.283 17.6881C42.5397 19.2143 44.2273 20.2679 46.0937 20.6917" fill="#F2F2F2"/>
<path d="M41.0937 17.9956C39.6974 16.3054 38.9263 14.1263 38.9258 11.8691L37.2288 11.8691C37.4508 13.118 37.9081 14.3054 38.5726 15.3587C39.2371 16.412 40.0949 17.3092 41.0937 17.9956ZM25.4187 31.2245C22.4787 31.2288 20.0967 33.7541 20.0937 36.8709C20.0968 37.9041 20.3646 38.9166 20.8678 39.798C21.3711 40.6794 22.0905 41.3958 22.9477 41.8691C22.2936 40.9143 21.9405 39.761 21.9397 38.5766C21.9427 35.4588 24.3247 32.9324 27.2647 32.9291C27.8147 32.9291 28.3397 33.0256 28.8367 33.1906L28.8367 26.3334C28.3159 26.255 27.7907 26.2142 27.2647 26.2113C27.1727 26.2113 27.0817 26.2177 26.9907 26.2188L26.9907 31.4859C26.482 31.3143 25.952 31.2262 25.4187 31.2245Z" fill="#F2F2F2"/>
<path d="M45.2467 21.8691L45.2467 27.102C42.0879 27.107 39.0065 26.054 36.4337 24.0902L36.4337 37.7691C36.4337 44.6016 31.2037 50.1602 24.7757 50.1602C22.2907 50.1602 19.9867 49.3266 18.0937 47.9134C19.1865 49.1634 20.5074 50.1595 21.9744 50.84C23.4414 51.5204 25.0232 51.8707 26.6217 51.8691C33.0507 51.8691 38.2807 46.3105 38.2807 39.4791L38.2807 25.7991C40.8536 27.7625 43.935 28.8152 47.0937 28.8098L47.0937 22.078C46.473 22.0778 45.8539 22.0078 45.2467 21.8691Z" fill="#F2F2F2"/>
<path d="M37.0727 37.2965L37.0727 23.4124C39.7203 25.4106 42.8693 26.4779 46.0937 26.4698L46.0937 21.1606C44.1977 20.7346 42.4767 19.6618 41.1817 18.0989C39.1097 16.6799 37.6797 14.4292 37.2257 11.8691L32.4788 11.8691L32.4687 39.2454C32.3587 42.3114 29.9637 44.7717 27.0287 44.7717C25.2747 44.7695 23.6307 43.8792 22.6087 42.3788C20.8147 41.3875 19.6897 39.43 19.6887 37.2955C19.6917 34.1252 22.1287 31.5575 25.1387 31.5531C25.6987 31.5531 26.2367 31.6508 26.7467 31.8191L26.7467 26.4633C20.2957 26.6229 15.0937 32.1959 15.0937 39.0294C15.0937 42.3354 16.3127 45.3439 18.2987 47.5902C20.3154 49.0801 22.6994 49.8744 25.1387 49.8691C31.7187 49.8691 37.0727 44.2288 37.0727 37.2965Z" fill="#F2F2F2"/>
</svg>
