<svg width="61" height="61" viewBox="0 0 61 61" fill="none" xmlns="http://www.w3.org/2000/svg">
<path fill-rule="evenodd" clip-rule="evenodd" d="M12.8369 10.8691L10.0937 17.9064L10.0937 46.6673L19.8439 46.6673L19.8439 51.8691L25.3282 51.8691L30.5082 46.6672L38.43 46.6672L49.0937 35.9585L49.0938 10.8691L12.8369 10.8691ZM45.4377 34.1238L39.3429 40.2418L29.5934 40.2418L24.4134 45.4437L24.4134 40.2418L16.1873 40.2418L16.1873 14.5399L45.4365 14.5399L45.4365 34.1238L45.4377 34.1238ZM39.3429 21.5778L39.3429 32.2865L35.6876 32.2865L35.6876 21.5778L39.3429 21.5778ZM29.5928 21.5778L29.5928 32.2865L25.9374 32.2865L25.9374 21.5778L29.5928 21.5778Z" fill="#F2F2F2"/>
</svg>
