<svg width="61" height="61" viewBox="0 0 61 61" fill="none" xmlns="http://www.w3.org/2000/svg">
<path d="M44.3325 13.8691L16.855 13.8691C11.464 13.8691 7.09375 18.4683 7.09374 24.1416L7.09373 38.5967C7.09372 44.27 11.464 48.8691 16.855 48.8691L44.3324 48.8691C49.7234 48.8691 54.0937 44.27 54.0937 38.5966L54.0937 24.1416C54.0937 18.4682 49.7235 13.8691 44.3325 13.8691ZM37.7309 32.0724L24.8789 38.5231C24.5364 38.6949 24.1408 38.4322 24.1408 38.033L24.1408 24.7285C24.1408 24.3235 24.5468 24.0611 24.89 24.2442L37.7421 31.098C38.1242 31.3017 38.1175 31.8784 37.7309 32.0724Z" fill="#F2F2F2"/>
</svg>
