<svg width="16" height="16" viewBox="0 0 16 16" fill="none" xmlns="http://www.w3.org/2000/svg">
<path d="M14.7797 15.7963L9.33333 10.3423C8.88136 10.7346 8.35405 11.0401 7.75141 11.2588C7.14878 11.4776 6.50847 11.587 5.83051 11.587C4.20339 11.587 2.82486 11.0212 1.69492 9.88968C0.564972 8.75813 0 7.39274 0 5.79349C0 4.19425 0.564972 2.82885 1.69492 1.69731C2.82486 0.565771 4.19586 0 5.80791 0C7.4049 0 8.76459 0.565771 9.887 1.69731C11.0094 2.82885 11.5706 4.19425 11.5706 5.79349C11.5706 6.44224 11.4652 7.06836 11.2542 7.67185C11.0433 8.27534 10.7269 8.84111 10.3051 9.36917L15.7966 14.8232C15.9322 14.9439 16 15.0985 16 15.2871C16 15.4757 15.9247 15.6455 15.774 15.7963C15.6384 15.9321 15.4727 16 15.2768 16C15.081 16 14.9153 15.9321 14.7797 15.7963ZM5.80791 10.2291C7.02825 10.2291 8.0678 9.79538 8.92655 8.92786C9.78531 8.06035 10.2147 7.01556 10.2147 5.79349C10.2147 4.57143 9.78531 3.52664 8.92655 2.65912C8.0678 1.79161 7.02825 1.35785 5.80791 1.35785C4.5725 1.35785 3.52166 1.79161 2.65537 2.65912C1.78908 3.52664 1.35593 4.57143 1.35593 5.79349C1.35593 7.01556 1.78908 8.06035 2.65537 8.92786C3.52166 9.79538 4.5725 10.2291 5.80791 10.2291Z" fill="white"/>
</svg>
