<svg width="20" height="18" viewBox="0 0 20 18" fill="none" xmlns="http://www.w3.org/2000/svg">
<path d="M12.1673 11.3333H17.5007C17.9427 11.3333 18.3666 11.1577 18.6792 10.8451C18.9917 10.5325 19.1673 10.1086 19.1673 9.66658V7.91325C19.1675 7.69545 19.1251 7.47972 19.0423 7.27825L16.4632 1.01575C16.4002 0.86307 16.2934 0.732525 16.1561 0.640684C16.0189 0.548843 15.8575 0.499847 15.6923 0.499918H1.66732C1.4463 0.499918 1.23434 0.587715 1.07806 0.743996C0.921782 0.900276 0.833984 1.11224 0.833984 1.33325V9.66658C0.833984 9.8876 0.921782 10.0996 1.07806 10.2558C1.23434 10.4121 1.4463 10.4999 1.66732 10.4999H4.56898C4.7024 10.4999 4.83387 10.5319 4.95235 10.5932C5.07082 10.6546 5.17284 10.7435 5.24982 10.8524L9.79398 17.2916C9.85143 17.373 9.93614 17.4311 10.0328 17.4554C10.1294 17.4797 10.2315 17.4686 10.3207 17.4241L11.8323 16.6683C12.2577 16.4556 12.5976 16.1038 12.7954 15.6713C12.9933 15.2388 13.0372 14.7516 12.9198 14.2908L12.1673 11.3333ZM5.83398 9.17658V2.16658H15.134L17.5007 7.91325V9.66658H12.1673C11.9135 9.66662 11.663 9.72464 11.435 9.8362C11.207 9.94777 11.0075 10.1099 10.8517 10.3103C10.6959 10.5107 10.588 10.7441 10.5361 10.9926C10.4842 11.241 10.4897 11.4981 10.5523 11.7441L11.3048 14.7008C11.3284 14.793 11.3196 14.8905 11.2801 14.9771C11.2405 15.0636 11.1725 15.134 11.0873 15.1766L10.5365 15.4516L6.61148 9.89159C6.40315 9.59659 6.13648 9.35492 5.83398 9.17658ZM4.16732 8.83325H2.50065V2.16658H4.16732V8.83325Z" fill="#F2F2F2"/>
</svg>
