<svg width="20" height="18" viewBox="0 0 20 18" fill="none" xmlns="http://www.w3.org/2000/svg">
<path d="M12.1673 6.66675H17.5007C17.9427 6.66675 18.3666 6.84234 18.6792 7.1549C18.9917 7.46746 19.1673 7.89139 19.1673 8.33342V10.0867C19.1675 10.3045 19.1251 10.5203 19.0423 10.7217L16.4632 16.9842C16.4002 17.1369 16.2934 17.2675 16.1561 17.3593C16.0189 17.4512 15.8575 17.5002 15.6923 17.5001H1.66732C1.4463 17.5001 1.23434 17.4123 1.07806 17.256C0.921782 17.0997 0.833984 16.8878 0.833984 16.6667V8.33342C0.833984 8.1124 0.921782 7.90044 1.07806 7.74416C1.23434 7.58788 1.4463 7.50008 1.66732 7.50008H4.56898C4.7024 7.50012 4.83387 7.46812 4.95235 7.40678C5.07082 7.34544 5.17284 7.25655 5.24982 7.14758L9.79398 0.708416C9.85143 0.62701 9.93614 0.568883 10.0328 0.544574C10.1294 0.520266 10.2315 0.531385 10.3207 0.575916L11.8323 1.33175C12.2577 1.54438 12.5976 1.89618 12.7954 2.32868C12.9933 2.76118 13.0372 3.24835 12.9198 3.70925L12.1673 6.66675ZM5.83398 8.82342V15.8334H15.134L17.5007 10.0867V8.33342H12.1673C11.9135 8.33338 11.663 8.27536 11.435 8.1638C11.207 8.05223 11.0075 7.89006 10.8517 7.68965C10.6959 7.48925 10.588 7.25591 10.5361 7.00744C10.4842 6.75896 10.4897 6.50192 10.5523 6.25592L11.3048 3.29925C11.3284 3.20702 11.3196 3.10951 11.2801 3.02294C11.2405 2.93637 11.1725 2.86596 11.0873 2.82342L10.5365 2.54842L6.61148 8.10841C6.40315 8.40341 6.13648 8.64508 5.83398 8.82342ZM4.16732 9.16675H2.50065V15.8334H4.16732V9.16675Z" fill="#F2F2F2"/>
</svg>
