<svg width="128" height="24" viewBox="0 0 128 24" fill="none" xmlns="http://www.w3.org/2000/svg">
<path d="M11.0676 2.40576C11.3976 1.55427 12.6024 1.55427 12.9324 2.40576L14.7999 7.22423C14.9418 7.5903 15.2848 7.83949 15.6768 7.8613L20.8365 8.14844C21.7483 8.19918 22.1206 9.34501 21.4128 9.922L17.4073 13.1871C17.1029 13.4352 16.9719 13.8384 17.0723 14.2179L18.3937 19.2138C18.6272 20.0967 17.6525 20.8049 16.885 20.31L12.5419 17.5094C12.212 17.2967 11.788 17.2967 11.4581 17.5094L7.11499 20.31C6.34751 20.8049 5.3728 20.0967 5.60631 19.2138L6.92767 14.2179C7.02806 13.8384 6.89706 13.4352 6.59274 13.1871L2.5872 9.922C1.87937 9.34501 2.25167 8.19918 3.16347 8.14844L8.3232 7.8613C8.7152 7.83949 9.05817 7.5903 9.20006 7.22423L11.0676 2.40576Z" fill="white" fill-opacity="0.05"/>
<path d="M11.5338 2.58645C11.6988 2.16071 12.3012 2.16071 12.4662 2.58645L14.3337 7.40492C14.5466 7.95403 15.061 8.32781 15.649 8.36053L20.8087 8.64766C21.2646 8.67303 21.4508 9.24595 21.0969 9.53444L17.0913 12.7996C16.6349 13.1716 16.4384 13.7764 16.589 14.3458L17.9103 19.3417C18.0271 19.7831 17.5397 20.1372 17.156 19.8897L12.8129 17.0892C12.318 16.7701 11.682 16.7701 11.1871 17.0892L6.84403 19.8897C6.46029 20.1372 5.97293 19.7831 6.08969 19.3417L7.41105 14.3458C7.56163 13.7764 7.36513 13.1716 6.90866 12.7996L2.90312 9.53444C2.5492 9.24595 2.73535 8.67303 3.19125 8.64766L8.35098 8.36053C8.93899 8.32781 9.45344 7.95403 9.66626 7.40492L11.5338 2.58645Z" stroke="url(#paint0_linear_2243_23321)" stroke-opacity="0.5"/>
<path d="M37.0676 2.40576C37.3976 1.55427 38.6024 1.55427 38.9324 2.40576L40.7999 7.22423C40.9418 7.5903 41.2848 7.83949 41.6768 7.8613L46.8365 8.14844C47.7483 8.19918 48.1206 9.34501 47.4128 9.922L43.4073 13.1871C43.1029 13.4352 42.9719 13.8384 43.0723 14.2179L44.3937 19.2138C44.6272 20.0967 43.6525 20.8049 42.885 20.31L38.5419 17.5094C38.212 17.2967 37.788 17.2967 37.4581 17.5094L33.115 20.31C32.3475 20.8049 31.3728 20.0967 31.6063 19.2138L32.9277 14.2179C33.0281 13.8384 32.8971 13.4352 32.5927 13.1871L28.5872 9.922C27.8794 9.34501 28.2517 8.19918 29.1635 8.14844L34.3232 7.8613C34.7152 7.83949 35.0582 7.5903 35.2001 7.22423L37.0676 2.40576Z" fill="white" fill-opacity="0.05"/>
<path d="M37.5338 2.58645C37.6988 2.16071 38.3012 2.16071 38.4662 2.58645L40.3337 7.40492C40.5466 7.95403 41.061 8.32781 41.649 8.36053L46.8087 8.64766C47.2646 8.67303 47.4508 9.24595 47.0969 9.53444L43.0913 12.7996C42.6349 13.1716 42.4384 13.7764 42.589 14.3458L43.9103 19.3417C44.0271 19.7831 43.5397 20.1372 43.156 19.8897L38.8129 17.0892C38.318 16.7701 37.682 16.7701 37.1871 17.0892L32.844 19.8897C32.4603 20.1372 31.9729 19.7831 32.0897 19.3417L33.411 14.3458C33.5616 13.7764 33.3651 13.1716 32.9087 12.7996L28.9031 9.53444C28.5492 9.24595 28.7354 8.67303 29.1913 8.64766L34.351 8.36053C34.939 8.32781 35.4534 7.95403 35.6663 7.40492L37.5338 2.58645Z" stroke="url(#paint1_linear_2243_23321)" stroke-opacity="0.5"/>
<path d="M63.0676 2.40576C63.3976 1.55427 64.6024 1.55427 64.9324 2.40576L66.7999 7.22423C66.9418 7.5903 67.2848 7.83949 67.6768 7.8613L72.8365 8.14844C73.7483 8.19918 74.1206 9.34501 73.4128 9.922L69.4073 13.1871C69.1029 13.4352 68.9719 13.8384 69.0723 14.2179L70.3937 19.2138C70.6272 20.0967 69.6525 20.8049 68.885 20.31L64.5419 17.5094C64.212 17.2967 63.788 17.2967 63.4581 17.5094L59.115 20.31C58.3475 20.8049 57.3728 20.0967 57.6063 19.2138L58.9277 14.2179C59.0281 13.8384 58.8971 13.4352 58.5927 13.1871L54.5872 9.922C53.8794 9.34501 54.2517 8.19918 55.1635 8.14844L60.3232 7.8613C60.7152 7.83949 61.0582 7.5903 61.2001 7.22423L63.0676 2.40576Z" fill="white" fill-opacity="0.05"/>
<path d="M63.5338 2.58645C63.6988 2.16071 64.3012 2.16071 64.4662 2.58645L66.3337 7.40492C66.5466 7.95403 67.061 8.32781 67.649 8.36053L72.8087 8.64766C73.2646 8.67303 73.4508 9.24595 73.0969 9.53444L69.0913 12.7996C68.6349 13.1716 68.4384 13.7764 68.589 14.3458L69.9103 19.3417C70.0271 19.7831 69.5397 20.1372 69.156 19.8897L64.8129 17.0892C64.318 16.7701 63.682 16.7701 63.1871 17.0892L58.844 19.8897C58.4603 20.1372 57.9729 19.7831 58.0897 19.3417L59.411 14.3458C59.5616 13.7764 59.3651 13.1716 58.9087 12.7996L54.9031 9.53444C54.5492 9.24595 54.7354 8.67303 55.1913 8.64766L60.351 8.36053C60.939 8.32781 61.4534 7.95403 61.6663 7.40492L63.5338 2.58645Z" stroke="url(#paint2_linear_2243_23321)" stroke-opacity="0.5"/>
<path d="M89.0676 2.40576C89.3976 1.55427 90.6024 1.55427 90.9324 2.40576L92.7999 7.22423C92.9418 7.5903 93.2848 7.83949 93.6768 7.8613L98.8365 8.14844C99.7483 8.19918 100.121 9.34501 99.4128 9.922L95.4073 13.1871C95.1029 13.4352 94.9719 13.8384 95.0723 14.2179L96.3937 19.2138C96.6272 20.0967 95.6525 20.8049 94.885 20.31L90.5419 17.5094C90.212 17.2967 89.788 17.2967 89.4581 17.5094L85.115 20.31C84.3475 20.8049 83.3728 20.0967 83.6063 19.2138L84.9277 14.2179C85.0281 13.8384 84.8971 13.4352 84.5927 13.1871L80.5872 9.922C79.8794 9.34501 80.2517 8.19918 81.1635 8.14844L86.3232 7.8613C86.7152 7.83949 87.0582 7.5903 87.2001 7.22423L89.0676 2.40576Z" fill="white" fill-opacity="0.05"/>
<path d="M89.5338 2.58645C89.6988 2.16071 90.3012 2.16071 90.4662 2.58645L92.3337 7.40492C92.5466 7.95403 93.061 8.32781 93.649 8.36053L98.8087 8.64766C99.2646 8.67303 99.4508 9.24595 99.0969 9.53444L95.0913 12.7996C94.6349 13.1716 94.4384 13.7764 94.589 14.3458L95.9103 19.3417C96.0271 19.7831 95.5397 20.1372 95.156 19.8897L90.8129 17.0892C90.318 16.7701 89.682 16.7701 89.1871 17.0892L84.844 19.8897C84.4603 20.1372 83.9729 19.7831 84.0897 19.3417L85.411 14.3458C85.5616 13.7764 85.3651 13.1716 84.9087 12.7996L80.9031 9.53444C80.5492 9.24595 80.7354 8.67303 81.1913 8.64766L86.351 8.36053C86.939 8.32781 87.4534 7.95403 87.6663 7.40492L89.5338 2.58645Z" stroke="url(#paint3_linear_2243_23321)" stroke-opacity="0.5"/>
<path d="M115.068 2.40576C115.398 1.55427 116.602 1.55427 116.932 2.40576L118.8 7.22423C118.942 7.5903 119.285 7.83949 119.677 7.8613L124.837 8.14844C125.748 8.19918 126.121 9.34501 125.413 9.922L121.407 13.1871C121.103 13.4352 120.972 13.8384 121.072 14.2179L122.394 19.2138C122.627 20.0967 121.652 20.8049 120.885 20.31L116.542 17.5094C116.212 17.2967 115.788 17.2967 115.458 17.5094L111.115 20.31C110.348 20.8049 109.373 20.0967 109.606 19.2138L110.928 14.2179C111.028 13.8384 110.897 13.4352 110.593 13.1871L106.587 9.922C105.879 9.34501 106.252 8.19918 107.163 8.14844L112.323 7.8613C112.715 7.83949 113.058 7.5903 113.2 7.22423L115.068 2.40576Z" fill="white" fill-opacity="0.05"/>
<path d="M115.534 2.58645C115.699 2.16071 116.301 2.16071 116.466 2.58645L118.334 7.40492C118.547 7.95403 119.061 8.32781 119.649 8.36053L124.809 8.64766C125.265 8.67303 125.451 9.24595 125.097 9.53444L121.091 12.7996C120.635 13.1716 120.438 13.7764 120.589 14.3458L121.91 19.3417C122.027 19.7831 121.54 20.1372 121.156 19.8897L116.813 17.0892C116.318 16.7701 115.682 16.7701 115.187 17.0892L110.844 19.8897C110.46 20.1372 109.973 19.7831 110.09 19.3417L111.411 14.3458C111.562 13.7764 111.365 13.1716 110.909 12.7996L106.903 9.53444C106.549 9.24595 106.735 8.67303 107.191 8.64766L112.351 8.36053C112.939 8.32781 113.453 7.95403 113.666 7.40492L115.534 2.58645Z" stroke="url(#paint4_linear_2243_23321)" stroke-opacity="0.5"/>
<defs>
<linearGradient id="paint0_linear_2243_23321" x1="-7.3264e-08" y1="7" x2="29" y2="12" gradientUnits="userSpaceOnUse">
<stop stop-color="white"/>
<stop offset="1" stop-color="white" stop-opacity="0"/>
</linearGradient>
<linearGradient id="paint1_linear_2243_23321" x1="26" y1="7" x2="55" y2="12" gradientUnits="userSpaceOnUse">
<stop stop-color="white"/>
<stop offset="1" stop-color="white" stop-opacity="0"/>
</linearGradient>
<linearGradient id="paint2_linear_2243_23321" x1="52" y1="7" x2="81" y2="12" gradientUnits="userSpaceOnUse">
<stop stop-color="white"/>
<stop offset="1" stop-color="white" stop-opacity="0"/>
</linearGradient>
<linearGradient id="paint3_linear_2243_23321" x1="78" y1="7" x2="107" y2="12" gradientUnits="userSpaceOnUse">
<stop stop-color="white"/>
<stop offset="1" stop-color="white" stop-opacity="0"/>
</linearGradient>
<linearGradient id="paint4_linear_2243_23321" x1="104" y1="7" x2="133" y2="12" gradientUnits="userSpaceOnUse">
<stop stop-color="white"/>
<stop offset="1" stop-color="white" stop-opacity="0"/>
</linearGradient>
</defs>
</svg>
