<svg width="1516" height="693" viewBox="0 0 1516 693" fill="none" xmlns="http://www.w3.org/2000/svg">
<g filter="url(#filter0_d_3007_25685)">
<path d="M109.568 214.042L200.599 161.485L291.631 214.042V319.157L200.599 371.714L109.568 319.157V214.042Z" stroke="white" stroke-width="4.30398" shape-rendering="crispEdges"/>
</g>
<path d="M292.886 213.792L384.779 160.738L476.672 213.792V319.901L384.779 372.955L292.886 319.901V213.792Z" stroke="white" stroke-opacity="0.1" stroke-width="2.58239"/>
<path d="M201.636 54.5452L293.529 1.49094L385.422 54.5452V160.654L293.529 213.708L201.636 160.654V54.5452Z" stroke="url(#paint0_linear_3007_25685)" stroke-opacity="0.1" stroke-width="2.58239"/>
<path d="M1311.71 54.5452L1403.6 1.49094L1495.49 54.5452V160.654L1403.6 213.708L1311.71 160.654V54.5452Z" stroke="url(#paint1_linear_3007_25685)" stroke-opacity="0.1" stroke-width="2.58239"/>
<path d="M753.41 54.5452L845.303 1.49094L937.195 54.5452V160.654L845.303 213.708L753.41 160.654V54.5452Z" stroke="url(#paint2_linear_3007_25685)" stroke-opacity="0.1" stroke-width="2.58239"/>
<path d="M293.91 637.674L385.803 690.728L477.695 637.674V531.565L385.803 478.511L293.91 531.565V637.674Z" stroke="url(#paint3_linear_3007_25685)" stroke-opacity="0.1" stroke-width="2.58239"/>
<path d="M15.7068 475.705L107.599 528.759L199.492 475.705V369.596L107.599 316.542L15.7068 369.596V475.705Z" stroke="url(#paint4_linear_3007_25685)" stroke-opacity="0.1" stroke-width="2.58239"/>
<path d="M1125.27 372.9L1217.16 319.846L1309.05 372.9V479.009L1217.16 532.063L1125.27 479.009V372.9Z" stroke="white" stroke-opacity="0.1" stroke-width="2.58239"/>
<g filter="url(#filter1_d_3007_25685)">
<path d="M386.708 373.397L477.74 320.84L568.772 373.397V478.512L477.74 531.069L386.708 478.512V373.397Z" stroke="white" stroke-width="4.30398" shape-rendering="crispEdges"/>
</g>
<g filter="url(#filter2_d_3007_25685)">
<path d="M941.06 374.397L1032.09 321.84L1123.12 374.397V479.512L1032.09 532.069L941.06 479.512V374.397Z" stroke="white" stroke-width="4.30398" shape-rendering="crispEdges"/>
</g>
<path d="M1218.82 531.062L1309.85 478.505L1400.88 531.062V636.177L1309.85 688.734L1218.82 636.177V531.062Z" stroke="white" stroke-opacity="0.1" stroke-width="4.30398"/>
<g filter="url(#filter3_d_3007_25685)">
<path d="M1219.96 214.289L1310.99 161.732L1402.02 214.289V319.404L1310.99 371.961L1219.96 319.404V214.289Z" stroke="white" stroke-width="4.30398" shape-rendering="crispEdges"/>
</g>
<g filter="url(#filter4_d_3007_25685)">
<path d="M663.888 214.289L754.92 161.732L845.952 214.289V319.404L754.92 371.961L663.888 319.404V214.289Z" stroke="white" stroke-width="4.30398" shape-rendering="crispEdges"/>
</g>
<path d="M477.121 213.545L569.013 160.491L660.906 213.545V319.654L569.013 372.708L477.121 319.654V213.545Z" stroke="white" stroke-opacity="0.1" stroke-width="2.58239"/>
<path d="M845.511 213.792L937.404 160.738L1029.3 213.792V319.901L937.404 372.955L845.511 319.901V213.792Z" stroke="white" stroke-opacity="0.1" stroke-width="2.58239"/>
<path d="M150.132 271.879V274.909H139.94H138.839V255.627H142.006H149.995V258.657H142.006V263.671H149.306V266.646H142.006V271.879H150.132ZM162.191 264.772H171.144V267.61V274.909H168.114V272.292C167.416 273.247 166.507 273.982 165.387 274.496C164.266 275.01 163.009 275.267 161.613 275.267C159.795 275.267 158.142 274.827 156.655 273.945C155.167 273.064 154.001 271.861 153.156 270.337C152.312 268.794 151.889 267.105 151.889 265.268C151.889 263.414 152.321 261.724 153.184 260.2C154.047 258.676 155.241 257.473 156.765 256.591C158.289 255.71 159.997 255.269 161.888 255.269C163.357 255.269 164.735 255.563 166.02 256.151C167.306 256.72 168.398 257.519 169.298 258.547C170.198 259.557 170.813 260.696 171.144 261.963H167.783C167.379 260.916 166.635 260.053 165.552 259.374C164.468 258.694 163.247 258.354 161.888 258.354C160.548 258.354 159.354 258.657 158.307 259.263C157.279 259.851 156.48 260.668 155.911 261.715C155.342 262.762 155.057 263.946 155.057 265.268C155.057 266.627 155.342 267.839 155.911 268.904C156.499 269.969 157.307 270.805 158.335 271.411C159.382 272.017 160.566 272.32 161.888 272.32C163.541 272.32 164.937 271.907 166.075 271.08C167.214 270.254 167.847 269.097 167.976 267.61H162.191V264.772ZM192.906 258.657H188.031V274.909H184.863V258.657H179.96V255.627H188.031H192.906V258.657ZM199.215 275.267C197.893 275.267 196.672 274.946 195.552 274.303C194.45 273.66 193.568 272.788 192.907 271.686C192.265 270.585 191.943 269.363 191.943 268.023C191.943 266.682 192.265 265.461 192.907 264.359C193.568 263.239 194.45 262.367 195.552 261.742C196.672 261.1 197.893 260.778 199.215 260.778C200.556 260.778 201.777 261.1 202.879 261.742C203.999 262.367 204.88 263.239 205.523 264.359C206.166 265.461 206.487 266.682 206.487 268.023C206.487 269.363 206.166 270.585 205.523 271.686C204.88 272.788 203.999 273.66 202.879 274.303C201.759 274.946 200.537 275.267 199.215 275.267ZM199.215 272.375C200.023 272.375 200.749 272.191 201.391 271.824C202.052 271.438 202.567 270.915 202.934 270.254C203.32 269.593 203.512 268.849 203.512 268.023C203.512 267.196 203.32 266.453 202.934 265.792C202.567 265.131 202.052 264.616 201.391 264.249C200.749 263.863 200.023 263.671 199.215 263.671C198.407 263.671 197.673 263.863 197.012 264.249C196.369 264.616 195.855 265.131 195.469 265.792C195.102 266.453 194.918 267.196 194.918 268.023C194.918 268.849 195.102 269.593 195.469 270.254C195.855 270.915 196.369 271.438 197.012 271.824C197.673 272.191 198.407 272.375 199.215 272.375ZM217.661 274.909L212.152 268.546V274.909H209.177V255.627H212.152V267.224L217.386 261.136H220.939L215.044 267.885L221.215 274.909H217.661ZM224.484 269.29C224.704 270.392 225.191 271.236 225.944 271.824C226.715 272.412 227.642 272.706 228.726 272.706C229.46 272.706 230.121 272.549 230.709 272.237C231.297 271.925 231.719 271.521 231.976 271.025L235.006 270.998C234.584 272.32 233.803 273.367 232.665 274.138C231.544 274.891 230.213 275.267 228.671 275.267C227.238 275.267 225.971 274.955 224.869 274.331C223.767 273.706 222.914 272.843 222.308 271.741C221.702 270.64 221.399 269.4 221.399 268.023C221.399 266.664 221.702 265.434 222.308 264.332C222.914 263.23 223.767 262.367 224.869 261.742C225.971 261.1 227.22 260.778 228.615 260.778C229.956 260.778 231.14 261.109 232.169 261.77C233.216 262.413 234.024 263.294 234.593 264.414C235.162 265.516 235.447 266.728 235.447 268.05C235.447 268.363 235.41 268.776 235.337 269.29H224.484ZM232.444 266.838C232.261 265.737 231.811 264.901 231.095 264.332C230.397 263.762 229.57 263.478 228.615 263.478C227.514 263.478 226.595 263.781 225.861 264.387C225.126 264.993 224.658 265.81 224.456 266.838H232.444ZM244.873 260.778C245.736 260.778 246.508 260.99 247.187 261.412C247.885 261.834 248.427 262.44 248.812 263.23C249.216 264.02 249.418 264.956 249.418 266.04V274.909H246.443V266.205C246.443 265.36 246.205 264.708 245.727 264.249C245.268 263.79 244.662 263.56 243.909 263.56C243.065 263.56 242.358 263.836 241.788 264.387C241.237 264.938 240.962 265.81 240.962 267.004V274.909H237.987V261.136H240.962V262.707C241.807 261.421 243.11 260.778 244.873 260.778ZM255.102 264.993C255.102 265.525 255.331 265.911 255.79 266.15C256.249 266.37 256.993 266.609 258.021 266.866C258.995 267.086 259.793 267.325 260.418 267.582C261.061 267.821 261.602 268.225 262.043 268.794C262.502 269.345 262.732 270.089 262.732 271.025C262.732 272.347 262.217 273.385 261.189 274.138C260.179 274.891 258.894 275.267 257.333 275.267C255.735 275.267 254.431 274.863 253.421 274.055C252.411 273.247 251.906 272.109 251.906 270.64H254.826C254.826 271.301 255.046 271.797 255.487 272.127C255.946 272.439 256.561 272.595 257.333 272.595C258.067 272.595 258.655 272.467 259.096 272.21C259.536 271.934 259.757 271.539 259.757 271.025C259.757 270.529 259.518 270.162 259.041 269.923C258.581 269.685 257.856 269.437 256.864 269.18C255.891 268.959 255.083 268.721 254.44 268.464C253.816 268.206 253.274 267.802 252.815 267.252C252.356 266.682 252.127 265.929 252.127 264.993C252.127 263.707 252.622 262.688 253.614 261.935C254.624 261.164 255.864 260.778 257.333 260.778C258.783 260.778 259.995 261.182 260.969 261.99C261.96 262.798 262.456 263.928 262.456 265.378H259.536C259.536 264.736 259.325 264.258 258.903 263.946C258.48 263.616 257.957 263.45 257.333 263.45C256.672 263.45 256.13 263.588 255.708 263.863C255.304 264.121 255.102 264.497 255.102 264.993Z" fill="white"/>
<path d="M448.954 418.159C447.668 418.159 446.502 417.93 445.456 417.471C444.409 416.993 443.573 416.295 442.949 415.377C442.325 414.441 442.012 413.302 442.012 411.962H445.18C445.18 412.972 445.511 413.743 446.172 414.275C446.833 414.808 447.76 415.074 448.954 415.074C449.982 415.074 450.79 414.854 451.378 414.413C451.984 413.972 452.287 413.385 452.287 412.65C452.287 411.934 451.975 411.365 451.35 410.942C450.744 410.502 449.826 410.061 448.596 409.62C447.218 409.124 446.135 408.684 445.345 408.298C444.574 407.912 443.895 407.334 443.307 406.563C442.719 405.791 442.426 404.791 442.426 403.56C442.426 402.44 442.71 401.476 443.279 400.668C443.849 399.842 444.592 399.217 445.511 398.795C446.447 398.373 447.457 398.161 448.541 398.161C449.679 398.161 450.735 398.391 451.708 398.85C452.682 399.291 453.453 399.961 454.022 400.861C454.61 401.761 454.904 402.853 454.904 404.139H451.736C451.736 403.202 451.451 402.486 450.882 401.99C450.313 401.494 449.532 401.246 448.541 401.246C447.659 401.246 446.943 401.458 446.392 401.88C445.86 402.302 445.593 402.862 445.593 403.56C445.593 404.332 445.878 404.938 446.447 405.378C447.035 405.819 447.916 406.251 449.092 406.673C450.579 407.224 451.699 407.683 452.452 408.05C453.223 408.417 453.912 408.978 454.518 409.73C455.142 410.483 455.455 411.457 455.455 412.65C455.455 413.789 455.161 414.78 454.573 415.625C453.985 416.452 453.196 417.085 452.204 417.526C451.213 417.948 450.129 418.159 448.954 418.159ZM464.513 418.159C463.191 418.159 461.97 417.838 460.849 417.195C459.748 416.553 458.866 415.68 458.205 414.578C457.562 413.477 457.241 412.255 457.241 410.915C457.241 409.574 457.562 408.353 458.205 407.251C458.866 406.131 459.748 405.259 460.849 404.635C461.97 403.992 463.191 403.67 464.513 403.67C465.853 403.67 467.075 403.992 468.176 404.635C469.297 405.259 470.178 406.131 470.821 407.251C471.464 408.353 471.785 409.574 471.785 410.915C471.785 412.255 471.464 413.477 470.821 414.578C470.178 415.68 469.297 416.553 468.176 417.195C467.056 417.838 465.835 418.159 464.513 418.159ZM464.513 415.267C465.321 415.267 466.046 415.083 466.689 414.716C467.35 414.331 467.864 413.807 468.232 413.146C468.617 412.485 468.81 411.741 468.81 410.915C468.81 410.089 468.617 409.345 468.232 408.684C467.864 408.023 467.35 407.508 466.689 407.141C466.046 406.756 465.321 406.563 464.513 406.563C463.705 406.563 462.97 406.756 462.309 407.141C461.667 407.508 461.152 408.023 460.767 408.684C460.399 409.345 460.216 410.089 460.216 410.915C460.216 411.741 460.399 412.485 460.767 413.146C461.152 413.807 461.667 414.331 462.309 414.716C462.97 415.083 463.705 415.267 464.513 415.267ZM487.779 412.981C487.559 413.972 487.118 414.863 486.457 415.653C485.814 416.442 485.016 417.058 484.061 417.498C483.106 417.939 482.077 418.159 480.976 418.159C479.617 418.159 478.377 417.838 477.257 417.195C476.155 416.553 475.283 415.68 474.64 414.578C474.016 413.477 473.704 412.255 473.704 410.915C473.704 409.556 474.016 408.326 474.64 407.224C475.283 406.122 476.155 405.259 477.257 404.635C478.377 403.992 479.617 403.67 480.976 403.67C482.077 403.67 483.106 403.891 484.061 404.332C485.016 404.772 485.814 405.387 486.457 406.177C487.118 406.948 487.559 407.839 487.779 408.849H484.639C484.345 408.151 483.868 407.6 483.207 407.196C482.564 406.792 481.82 406.59 480.976 406.59C480.186 406.59 479.461 406.783 478.8 407.169C478.138 407.536 477.615 408.05 477.229 408.711C476.862 409.372 476.679 410.107 476.679 410.915C476.679 411.723 476.862 412.457 477.229 413.119C477.615 413.78 478.138 414.303 478.8 414.689C479.461 415.056 480.186 415.24 480.976 415.24C481.82 415.24 482.573 415.038 483.234 414.634C483.895 414.211 484.364 413.66 484.639 412.981H487.779ZM490.131 398.519H493.106V401.825H490.131V398.519ZM490.131 404.029H493.106V417.801H490.131V404.029ZM501.876 403.67C503.474 403.67 504.787 404.139 505.815 405.075C506.843 406.012 507.357 407.316 507.357 408.987V417.801H504.438V416.507C503.556 417.608 502.252 418.159 500.526 418.159C499.204 418.159 498.084 417.783 497.166 417.03C496.247 416.259 495.788 415.175 495.788 413.78C495.788 412.384 496.247 411.31 497.166 410.557C498.084 409.804 499.204 409.427 500.526 409.427C502.197 409.427 503.501 409.896 504.438 410.832V409.124C504.438 408.206 504.208 407.536 503.749 407.114C503.29 406.673 502.666 406.453 501.876 406.453C501.123 406.453 500.508 406.645 500.03 407.031C499.553 407.398 499.314 407.912 499.314 408.574H496.394C496.394 407.582 496.633 406.719 497.111 405.984C497.606 405.231 498.267 404.662 499.094 404.276C499.92 403.872 500.848 403.67 501.876 403.67ZM501.49 415.846C502.372 415.846 503.079 415.653 503.611 415.267C504.162 414.881 504.438 414.386 504.438 413.78C504.438 413.155 504.162 412.659 503.611 412.292C503.079 411.925 502.372 411.741 501.49 411.741C500.59 411.741 499.911 411.925 499.452 412.292C498.993 412.659 498.763 413.155 498.763 413.78C498.763 414.404 498.993 414.909 499.452 415.295C499.911 415.662 500.59 415.846 501.49 415.846ZM510.467 397.969H513.442V417.801H510.467V397.969ZM412.271 440.094C413.024 438.552 414.347 437.781 416.238 437.781V441.003C415.136 440.93 414.2 441.196 413.428 441.802C412.657 442.39 412.271 443.363 412.271 444.722V451.801H409.297V438.029H412.271V440.094ZM420.165 446.182C420.385 447.284 420.872 448.129 421.624 448.716C422.396 449.304 423.323 449.598 424.407 449.598C425.141 449.598 425.802 449.442 426.39 449.129C426.977 448.817 427.4 448.413 427.657 447.917L430.687 447.89C430.265 449.212 429.484 450.259 428.346 451.03C427.225 451.783 425.894 452.159 424.351 452.159C422.919 452.159 421.652 451.847 420.55 451.223C419.448 450.598 418.594 449.735 417.988 448.634C417.382 447.532 417.079 446.292 417.079 444.915C417.079 443.556 417.382 442.326 417.988 441.224C418.594 440.122 419.448 439.259 420.55 438.635C421.652 437.992 422.901 437.67 424.296 437.67C425.637 437.67 426.821 438.001 427.85 438.662C428.896 439.305 429.704 440.186 430.274 441.306C430.843 442.408 431.128 443.62 431.128 444.942C431.128 445.255 431.091 445.668 431.017 446.182H420.165ZM428.125 443.73C427.942 442.629 427.492 441.793 426.775 441.224C426.078 440.655 425.251 440.37 424.296 440.37C423.195 440.37 422.276 440.673 421.542 441.279C420.807 441.885 420.339 442.702 420.137 443.73H428.125ZM446.972 446.981C446.752 447.972 446.311 448.863 445.65 449.653C445.007 450.442 444.209 451.058 443.254 451.498C442.299 451.939 441.27 452.159 440.169 452.159C438.81 452.159 437.57 451.838 436.45 451.195C435.348 450.553 434.476 449.68 433.833 448.578C433.209 447.477 432.897 446.255 432.897 444.915C432.897 443.556 433.209 442.326 433.833 441.224C434.476 440.122 435.348 439.259 436.45 438.635C437.57 437.992 438.81 437.67 440.169 437.67C441.27 437.67 442.299 437.891 443.254 438.332C444.209 438.772 445.007 439.387 445.65 440.177C446.311 440.948 446.752 441.839 446.972 442.849H443.832C443.538 442.151 443.061 441.6 442.4 441.196C441.757 440.792 441.013 440.59 440.169 440.59C439.379 440.59 438.654 440.783 437.992 441.169C437.331 441.536 436.808 442.05 436.422 442.711C436.055 443.372 435.871 444.107 435.871 444.915C435.871 445.723 436.055 446.457 436.422 447.119C436.808 447.78 437.331 448.303 437.992 448.689C438.654 449.056 439.379 449.24 440.169 449.24C441.013 449.24 441.766 449.038 442.427 448.634C443.088 448.211 443.557 447.66 443.832 446.981H446.972ZM455.824 452.159C454.502 452.159 453.281 451.838 452.161 451.195C451.059 450.553 450.177 449.68 449.516 448.578C448.874 447.477 448.552 446.255 448.552 444.915C448.552 443.574 448.874 442.353 449.516 441.251C450.177 440.131 451.059 439.259 452.161 438.635C453.281 437.992 454.502 437.67 455.824 437.67C457.165 437.67 458.386 437.992 459.488 438.635C460.608 439.259 461.489 440.131 462.132 441.251C462.775 442.353 463.096 443.574 463.096 444.915C463.096 446.255 462.775 447.477 462.132 448.578C461.489 449.68 460.608 450.553 459.488 451.195C458.368 451.838 457.146 452.159 455.824 452.159ZM455.824 449.267C456.632 449.267 457.358 449.083 458 448.716C458.661 448.331 459.176 447.807 459.543 447.146C459.929 446.485 460.121 445.741 460.121 444.915C460.121 444.089 459.929 443.345 459.543 442.684C459.176 442.023 458.661 441.508 458 441.141C457.358 440.756 456.632 440.563 455.824 440.563C455.016 440.563 454.282 440.756 453.621 441.141C452.978 441.508 452.464 442.023 452.078 442.684C451.711 443.345 451.527 444.089 451.527 444.915C451.527 445.741 451.711 446.485 452.078 447.146C452.464 447.807 452.978 448.331 453.621 448.716C454.282 449.083 455.016 449.267 455.824 449.267ZM479.669 438.029V451.168C479.669 452.582 479.339 453.775 478.678 454.749C478.035 455.722 477.181 456.447 476.116 456.925C475.051 457.421 473.903 457.668 472.673 457.668C471.497 457.668 470.386 457.448 469.34 457.007C468.311 456.567 467.476 455.942 466.833 455.134C466.209 454.326 465.896 453.381 465.896 452.297H468.871C468.871 452.738 469.018 453.16 469.312 453.564C469.624 453.987 470.065 454.326 470.634 454.583C471.222 454.84 471.901 454.969 472.673 454.969C473.958 454.969 474.959 454.629 475.675 453.95C476.391 453.289 476.749 452.361 476.749 451.168V449.487C476.217 450.259 475.537 450.856 474.711 451.278C473.903 451.682 472.957 451.884 471.874 451.884C470.643 451.884 469.505 451.572 468.458 450.947C467.411 450.305 466.576 449.442 465.952 448.358C465.327 447.256 465.015 446.063 465.015 444.777C465.015 443.473 465.318 442.28 465.924 441.196C466.548 440.113 467.384 439.259 468.431 438.635C469.496 437.992 470.643 437.67 471.874 437.67C472.957 437.67 473.903 437.882 474.711 438.304C475.537 438.708 476.217 439.296 476.749 440.067V438.029H479.669ZM472.37 449.102C473.196 449.102 473.94 448.918 474.601 448.551C475.28 448.165 475.804 447.642 476.171 446.981C476.557 446.32 476.749 445.585 476.749 444.777C476.749 443.969 476.557 443.235 476.171 442.574C475.804 441.912 475.28 441.398 474.601 441.031C473.94 440.645 473.196 440.453 472.37 440.453C471.543 440.453 470.79 440.645 470.111 441.031C469.45 441.398 468.926 441.912 468.541 442.574C468.174 443.235 467.99 443.969 467.99 444.777C467.99 445.585 468.174 446.32 468.541 446.981C468.926 447.642 469.45 448.165 470.111 448.551C470.79 448.918 471.543 449.102 472.37 449.102ZM489.942 437.67C490.805 437.67 491.577 437.882 492.256 438.304C492.954 438.726 493.496 439.332 493.881 440.122C494.285 440.912 494.487 441.848 494.487 442.932V451.801H491.512V443.097C491.512 442.252 491.274 441.6 490.796 441.141C490.337 440.682 489.731 440.453 488.978 440.453C488.133 440.453 487.426 440.728 486.857 441.279C486.306 441.83 486.031 442.702 486.031 443.896V451.801H483.056V438.029H486.031V439.599C486.876 438.313 488.179 437.67 489.942 437.67ZM497.609 432.519H500.584V435.825H497.609V432.519ZM497.609 438.029H500.584V451.801H497.609V438.029ZM510.842 440.893H508.307V451.801H505.332V440.893H502.798V438.029H505.332V433.621H508.307V438.029H510.842V440.893ZM513.076 432.519H516.051V435.825H513.076V432.519ZM513.076 438.029H516.051V451.801H513.076V438.029ZM526.006 452.159C524.684 452.159 523.463 451.838 522.342 451.195C521.241 450.553 520.359 449.68 519.698 448.578C519.055 447.477 518.734 446.255 518.734 444.915C518.734 443.574 519.055 442.353 519.698 441.251C520.359 440.131 521.241 439.259 522.342 438.635C523.463 437.992 524.684 437.67 526.006 437.67C527.347 437.67 528.568 437.992 529.67 438.635C530.79 439.259 531.671 440.131 532.314 441.251C532.957 442.353 533.278 443.574 533.278 444.915C533.278 446.255 532.957 447.477 532.314 448.578C531.671 449.68 530.79 450.553 529.67 451.195C528.549 451.838 527.328 452.159 526.006 452.159ZM526.006 449.267C526.814 449.267 527.539 449.083 528.182 448.716C528.843 448.331 529.357 447.807 529.725 447.146C530.11 446.485 530.303 445.741 530.303 444.915C530.303 444.089 530.11 443.345 529.725 442.684C529.357 442.023 528.843 441.508 528.182 441.141C527.539 440.756 526.814 440.563 526.006 440.563C525.198 440.563 524.463 440.756 523.802 441.141C523.16 441.508 522.645 442.023 522.26 442.684C521.893 443.345 521.709 444.089 521.709 444.915C521.709 445.741 521.893 446.485 522.26 447.146C522.645 447.807 523.16 448.331 523.802 448.716C524.463 449.083 525.198 449.267 526.006 449.267ZM542.854 437.67C543.717 437.67 544.489 437.882 545.168 438.304C545.866 438.726 546.408 439.332 546.793 440.122C547.197 440.912 547.399 441.848 547.399 442.932V451.801H544.424V443.097C544.424 442.252 544.186 441.6 543.708 441.141C543.249 440.682 542.643 440.453 541.89 440.453C541.046 440.453 540.339 440.728 539.769 441.279C539.218 441.83 538.943 442.702 538.943 443.896V451.801H535.968V438.029H538.943V439.599C539.788 438.313 541.091 437.67 542.854 437.67Z" fill="white"/>
<path d="M748.464 238.412V257.693H745.985L737.859 244.609V257.693H734.691V238.412H737.17L745.296 251.496V238.412H748.464ZM755.478 241.442V247.254H763.191V250.284H755.478V257.693H752.31V238.412H755.478H763.466V241.442H755.478ZM777.514 241.442H772.639V257.693H769.471V241.442H764.568V238.412H772.639H777.514V241.442ZM708.502 277.921V291.06C708.502 292.474 708.171 293.667 707.51 294.641C706.868 295.614 706.014 296.339 704.949 296.817C703.884 297.313 702.736 297.561 701.505 297.561C700.33 297.561 699.219 297.34 698.172 296.899C697.144 296.459 696.309 295.834 695.666 295.026C695.041 294.218 694.729 293.273 694.729 292.189H697.704C697.704 292.63 697.851 293.052 698.145 293.456C698.457 293.879 698.898 294.218 699.467 294.475C700.055 294.733 700.734 294.861 701.505 294.861C702.791 294.861 703.792 294.521 704.508 293.842C705.224 293.181 705.582 292.253 705.582 291.06V289.38C705.05 290.151 704.37 290.748 703.544 291.17C702.736 291.574 701.79 291.776 700.707 291.776C699.476 291.776 698.338 291.464 697.291 290.839C696.244 290.197 695.409 289.334 694.784 288.25C694.16 287.148 693.848 285.955 693.848 284.669C693.848 283.365 694.151 282.172 694.757 281.088C695.381 280.005 696.217 279.151 697.263 278.527C698.329 277.884 699.476 277.563 700.707 277.563C701.79 277.563 702.736 277.774 703.544 278.196C704.37 278.6 705.05 279.188 705.582 279.959V277.921H708.502ZM701.202 288.994C702.029 288.994 702.773 288.81 703.434 288.443C704.113 288.057 704.636 287.534 705.004 286.873C705.389 286.212 705.582 285.477 705.582 284.669C705.582 283.861 705.389 283.127 705.004 282.466C704.636 281.805 704.113 281.29 703.434 280.923C702.773 280.537 702.029 280.345 701.202 280.345C700.376 280.345 699.623 280.537 698.944 280.923C698.283 281.29 697.759 281.805 697.374 282.466C697.006 283.127 696.823 283.861 696.823 284.669C696.823 285.477 697.006 286.212 697.374 286.873C697.759 287.534 698.283 288.057 698.944 288.443C699.623 288.81 700.376 288.994 701.202 288.994ZM711.889 272.412H714.864V275.717H711.889V272.412ZM711.889 277.921H714.864V291.693H711.889V277.921ZM729.942 277.921L724.929 291.693H722.147H721.761L716.72 277.921H719.888L723.331 288.168L726.774 277.921H729.942ZM733.839 286.074C734.06 287.176 734.546 288.021 735.299 288.608C736.071 289.196 736.998 289.49 738.081 289.49C738.816 289.49 739.477 289.334 740.065 289.021C740.652 288.709 741.075 288.305 741.332 287.809L744.362 287.782C743.939 289.104 743.159 290.151 742.02 290.922C740.9 291.675 739.569 292.051 738.026 292.051C736.594 292.051 735.327 291.739 734.225 291.115C733.123 290.491 732.269 289.627 731.663 288.526C731.057 287.424 730.754 286.184 730.754 284.807C730.754 283.448 731.057 282.218 731.663 281.116C732.269 280.014 733.123 279.151 734.225 278.527C735.327 277.884 736.576 277.563 737.971 277.563C739.312 277.563 740.496 277.893 741.525 278.554C742.571 279.197 743.379 280.078 743.949 281.199C744.518 282.3 744.803 283.512 744.803 284.835C744.803 285.147 744.766 285.56 744.692 286.074H733.839ZM741.8 283.623C741.616 282.521 741.167 281.685 740.45 281.116C739.753 280.547 738.926 280.262 737.971 280.262C736.869 280.262 735.951 280.565 735.217 281.171C734.482 281.777 734.014 282.594 733.812 283.623H741.8ZM752.659 277.563C754.257 277.563 755.57 278.031 756.598 278.967C757.626 279.904 758.141 281.208 758.141 282.879V291.693H755.221V290.399C754.339 291.501 753.036 292.051 751.309 292.051C749.987 292.051 748.867 291.675 747.949 290.922C747.031 290.151 746.572 289.067 746.572 287.672C746.572 286.276 747.031 285.202 747.949 284.449C748.867 283.696 749.987 283.32 751.309 283.32C752.98 283.32 754.284 283.788 755.221 284.724V283.017C755.221 282.098 754.991 281.428 754.532 281.006C754.073 280.565 753.449 280.345 752.659 280.345C751.906 280.345 751.291 280.537 750.814 280.923C750.336 281.29 750.097 281.805 750.097 282.466H747.178C747.178 281.474 747.416 280.611 747.894 279.876C748.39 279.123 749.051 278.554 749.877 278.169C750.703 277.765 751.631 277.563 752.659 277.563ZM752.273 289.738C753.155 289.738 753.862 289.545 754.394 289.159C754.945 288.774 755.221 288.278 755.221 287.672C755.221 287.047 754.945 286.552 754.394 286.184C753.862 285.817 753.155 285.633 752.273 285.633C751.374 285.633 750.694 285.817 750.235 286.184C749.776 286.552 749.546 287.047 749.546 287.672C749.546 288.296 749.776 288.801 750.235 289.187C750.694 289.554 751.374 289.738 752.273 289.738ZM778.501 277.921L773.9 291.693H771.201H770.981L768.997 285.771L767.014 291.693H764.59H764.094L759.494 277.921H762.662L765.747 288.14L767.758 282.025L766.381 277.921H769.135L772.33 287.892L775.333 277.921H778.501ZM785.1 277.563C786.698 277.563 788.011 278.031 789.039 278.967C790.068 279.904 790.582 281.208 790.582 282.879V291.693H787.662V290.399C786.781 291.501 785.477 292.051 783.751 292.051C782.428 292.051 781.308 291.675 780.39 290.922C779.472 290.151 779.013 289.067 779.013 287.672C779.013 286.276 779.472 285.202 780.39 284.449C781.308 283.696 782.428 283.32 783.751 283.32C785.422 283.32 786.725 283.788 787.662 284.724V283.017C787.662 282.098 787.432 281.428 786.973 281.006C786.514 280.565 785.89 280.345 785.1 280.345C784.347 280.345 783.732 280.537 783.255 280.923C782.777 281.29 782.539 281.805 782.539 282.466H779.619C779.619 281.474 779.857 280.611 780.335 279.876C780.831 279.123 781.492 278.554 782.318 278.169C783.145 277.765 784.072 277.563 785.1 277.563ZM784.715 289.738C785.596 289.738 786.303 289.545 786.836 289.159C787.387 288.774 787.662 288.278 787.662 287.672C787.662 287.047 787.387 286.552 786.836 286.184C786.303 285.817 785.596 285.633 784.715 285.633C783.815 285.633 783.135 285.817 782.676 286.184C782.217 286.552 781.988 287.047 781.988 287.672C781.988 288.296 782.217 288.801 782.676 289.187C783.135 289.554 783.815 289.738 784.715 289.738ZM805.046 277.921L798.436 297.202H795.268L797.196 291.528L791.825 277.921H794.992L798.683 287.396L801.879 277.921H805.046ZM809.084 281.777C809.084 282.31 809.314 282.695 809.773 282.934C810.232 283.154 810.976 283.393 812.004 283.65C812.977 283.87 813.776 284.109 814.4 284.366C815.043 284.605 815.585 285.009 816.026 285.578C816.485 286.129 816.714 286.873 816.714 287.809C816.714 289.132 816.2 290.169 815.172 290.922C814.162 291.675 812.876 292.051 811.315 292.051C809.718 292.051 808.414 291.647 807.404 290.839C806.394 290.031 805.889 288.893 805.889 287.424H808.809C808.809 288.085 809.029 288.581 809.47 288.911C809.929 289.223 810.544 289.38 811.315 289.38C812.05 289.38 812.638 289.251 813.078 288.994C813.519 288.718 813.739 288.324 813.739 287.809C813.739 287.314 813.501 286.946 813.023 286.708C812.564 286.469 811.839 286.221 810.847 285.964C809.874 285.744 809.066 285.505 808.423 285.248C807.799 284.991 807.257 284.587 806.798 284.036C806.339 283.466 806.109 282.714 806.109 281.777C806.109 280.492 806.605 279.472 807.597 278.719C808.607 277.948 809.846 277.563 811.315 277.563C812.766 277.563 813.978 277.967 814.951 278.775C815.943 279.583 816.439 280.712 816.439 282.163H813.519C813.519 281.52 813.308 281.042 812.885 280.73C812.463 280.4 811.94 280.234 811.315 280.234C810.654 280.234 810.113 280.372 809.69 280.648C809.286 280.905 809.084 281.281 809.084 281.777Z" fill="white"/>
<path d="M970.346 414.771V417.801H960.155H959.053V398.519H962.22H970.209V401.549H962.22V406.563H969.52V409.538H962.22V414.771H970.346ZM978.352 403.67C979.95 403.67 981.263 404.139 982.291 405.075C983.32 406.012 983.834 407.316 983.834 408.987V417.801H980.914V416.507C980.033 417.608 978.729 418.159 977.003 418.159C975.681 418.159 974.56 417.783 973.642 417.03C972.724 416.259 972.265 415.175 972.265 413.78C972.265 412.384 972.724 411.31 973.642 410.557C974.56 409.804 975.681 409.427 977.003 409.427C978.674 409.427 979.978 409.896 980.914 410.832V409.124C980.914 408.206 980.685 407.536 980.226 407.114C979.766 406.673 979.142 406.453 978.352 406.453C977.6 406.453 976.984 406.645 976.507 407.031C976.029 407.398 975.791 407.912 975.791 408.574H972.871C972.871 407.582 973.11 406.719 973.587 405.984C974.083 405.231 974.744 404.662 975.57 404.276C976.397 403.872 977.324 403.67 978.352 403.67ZM977.967 415.846C978.848 415.846 979.555 415.653 980.088 415.267C980.639 414.881 980.914 414.386 980.914 413.78C980.914 413.155 980.639 412.659 980.088 412.292C979.555 411.925 978.848 411.741 977.967 411.741C977.067 411.741 976.388 411.925 975.928 412.292C975.469 412.659 975.24 413.155 975.24 413.78C975.24 414.404 975.469 414.909 975.928 415.295C976.388 415.662 977.067 415.846 977.967 415.846ZM989.918 406.094C990.671 404.552 991.993 403.781 993.885 403.781V407.003C992.783 406.93 991.846 407.196 991.075 407.802C990.304 408.39 989.918 409.363 989.918 410.722V417.801H986.943V404.029H989.918V406.094ZM996.036 397.969H999.01V417.801H996.036V397.969ZM1014.09 404.029L1007.48 423.31H1004.31L1006.24 417.636L1000.87 404.029H1004.03L1007.73 413.504L1010.92 404.029H1014.09ZM1028.17 403.67C1029.77 403.67 1031.08 404.139 1032.11 405.075C1033.14 406.012 1033.65 407.316 1033.65 408.987V417.801H1030.73V416.507C1029.85 417.608 1028.55 418.159 1026.82 418.159C1025.5 418.159 1024.38 417.783 1023.46 417.03C1022.54 416.259 1022.08 415.175 1022.08 413.78C1022.08 412.384 1022.54 411.31 1023.46 410.557C1024.38 409.804 1025.5 409.427 1026.82 409.427C1028.49 409.427 1029.8 409.896 1030.73 410.832V409.124C1030.73 408.206 1030.5 407.536 1030.04 407.114C1029.58 406.673 1028.96 406.453 1028.17 406.453C1027.42 406.453 1026.8 406.645 1026.33 407.031C1025.85 407.398 1025.61 407.912 1025.61 408.574H1022.69C1022.69 407.582 1022.93 406.719 1023.41 405.984C1023.9 405.231 1024.56 404.662 1025.39 404.276C1026.22 403.872 1027.14 403.67 1028.17 403.67ZM1027.79 415.846C1028.67 415.846 1029.37 415.653 1029.91 415.267C1030.46 414.881 1030.73 414.386 1030.73 413.78C1030.73 413.155 1030.46 412.659 1029.91 412.292C1029.37 411.925 1028.67 411.741 1027.79 411.741C1026.89 411.741 1026.21 411.925 1025.75 412.292C1025.29 412.659 1025.06 413.155 1025.06 413.78C1025.06 414.404 1025.29 414.909 1025.75 415.295C1026.21 415.662 1026.89 415.846 1027.79 415.846ZM1050.07 412.981C1049.85 413.972 1049.41 414.863 1048.74 415.653C1048.1 416.442 1047.3 417.058 1046.35 417.498C1045.39 417.939 1044.36 418.159 1043.26 418.159C1041.9 418.159 1040.66 417.838 1039.54 417.195C1038.44 416.553 1037.57 415.68 1036.93 414.578C1036.3 413.477 1035.99 412.255 1035.99 410.915C1035.99 409.556 1036.3 408.326 1036.93 407.224C1037.57 406.122 1038.44 405.259 1039.54 404.635C1040.66 403.992 1041.9 403.67 1043.26 403.67C1044.36 403.67 1045.39 403.891 1046.35 404.332C1047.3 404.772 1048.1 405.387 1048.74 406.177C1049.41 406.948 1049.85 407.839 1050.07 408.849H1046.93C1046.63 408.151 1046.15 407.6 1045.49 407.196C1044.85 406.792 1044.11 406.59 1043.26 406.59C1042.47 406.59 1041.75 406.783 1041.09 407.169C1040.43 407.536 1039.9 408.05 1039.52 408.711C1039.15 409.372 1038.97 410.107 1038.97 410.915C1038.97 411.723 1039.15 412.457 1039.52 413.119C1039.9 413.78 1040.43 414.303 1041.09 414.689C1041.75 415.056 1042.47 415.24 1043.26 415.24C1044.11 415.24 1044.86 415.038 1045.52 414.634C1046.18 414.211 1046.65 413.66 1046.93 412.981H1050.07ZM1065.72 412.981C1065.5 413.972 1065.06 414.863 1064.4 415.653C1063.76 416.442 1062.96 417.058 1062 417.498C1061.05 417.939 1060.02 418.159 1058.92 418.159C1057.56 418.159 1056.32 417.838 1055.2 417.195C1054.1 416.553 1053.23 415.68 1052.58 414.578C1051.96 413.477 1051.65 412.255 1051.65 410.915C1051.65 409.556 1051.96 408.326 1052.58 407.224C1053.23 406.122 1054.1 405.259 1055.2 404.635C1056.32 403.992 1057.56 403.67 1058.92 403.67C1060.02 403.67 1061.05 403.891 1062 404.332C1062.96 404.772 1063.76 405.387 1064.4 406.177C1065.06 406.948 1065.5 407.839 1065.72 408.849H1062.58C1062.29 408.151 1061.81 407.6 1061.15 407.196C1060.51 406.792 1059.76 406.59 1058.92 406.59C1058.13 406.59 1057.4 406.783 1056.74 407.169C1056.08 407.536 1055.56 408.05 1055.17 408.711C1054.8 409.372 1054.62 410.107 1054.62 410.915C1054.62 411.723 1054.8 412.457 1055.17 413.119C1055.56 413.78 1056.08 414.303 1056.74 414.689C1057.4 415.056 1058.13 415.24 1058.92 415.24C1059.76 415.24 1060.52 415.038 1061.18 414.634C1061.84 414.211 1062.31 413.66 1062.58 412.981H1065.72ZM1070.39 412.182C1070.61 413.284 1071.09 414.129 1071.85 414.716C1072.62 415.304 1073.55 415.598 1074.63 415.598C1075.36 415.598 1076.02 415.442 1076.61 415.129C1077.2 414.817 1077.62 414.413 1077.88 413.917L1080.91 413.89C1080.49 415.212 1079.71 416.259 1078.57 417.03C1077.45 417.783 1076.12 418.159 1074.57 418.159C1073.14 418.159 1071.87 417.847 1070.77 417.223C1069.67 416.598 1068.82 415.735 1068.21 414.634C1067.61 413.532 1067.3 412.292 1067.3 410.915C1067.3 409.556 1067.61 408.326 1068.21 407.224C1068.82 406.122 1069.67 405.259 1070.77 404.635C1071.87 403.992 1073.12 403.67 1074.52 403.67C1075.86 403.67 1077.04 404.001 1078.07 404.662C1079.12 405.305 1079.93 406.186 1080.5 407.306C1081.07 408.408 1081.35 409.62 1081.35 410.942C1081.35 411.255 1081.31 411.668 1081.24 412.182H1070.39ZM1078.35 409.73C1078.16 408.629 1077.71 407.793 1077 407.224C1076.3 406.655 1075.47 406.37 1074.52 406.37C1073.42 406.37 1072.5 406.673 1071.76 407.279C1071.03 407.885 1070.56 408.702 1070.36 409.73H1078.35ZM1086.45 407.885C1086.45 408.417 1086.68 408.803 1087.14 409.042C1087.6 409.262 1088.34 409.501 1089.37 409.758C1090.35 409.978 1091.14 410.217 1091.77 410.474C1092.41 410.713 1092.95 411.117 1093.39 411.686C1093.85 412.237 1094.08 412.981 1094.08 413.917C1094.08 415.24 1093.57 416.277 1092.54 417.03C1091.53 417.783 1090.24 418.159 1088.68 418.159C1087.09 418.159 1085.78 417.755 1084.77 416.947C1083.76 416.139 1083.26 415.001 1083.26 413.532H1086.18C1086.18 414.193 1086.4 414.689 1086.84 415.019C1087.3 415.331 1087.91 415.487 1088.68 415.487C1089.42 415.487 1090.01 415.359 1090.45 415.102C1090.89 414.826 1091.11 414.432 1091.11 413.917C1091.11 413.422 1090.87 413.054 1090.39 412.816C1089.93 412.577 1089.21 412.329 1088.22 412.072C1087.24 411.851 1086.43 411.613 1085.79 411.356C1085.17 411.099 1084.62 410.695 1084.17 410.144C1083.71 409.574 1083.48 408.821 1083.48 407.885C1083.48 406.599 1083.97 405.58 1084.96 404.827C1085.97 404.056 1087.21 403.67 1088.68 403.67C1090.13 403.67 1091.35 404.074 1092.32 404.882C1093.31 405.69 1093.81 406.82 1093.81 408.271H1090.89C1090.89 407.628 1090.68 407.15 1090.25 406.838C1089.83 406.508 1089.31 406.342 1088.68 406.342C1088.02 406.342 1087.48 406.48 1087.06 406.756C1086.65 407.013 1086.45 407.389 1086.45 407.885ZM1099.2 407.885C1099.2 408.417 1099.43 408.803 1099.89 409.042C1100.35 409.262 1101.09 409.501 1102.12 409.758C1103.1 409.978 1103.89 410.217 1104.52 410.474C1105.16 410.713 1105.7 411.117 1106.14 411.686C1106.6 412.237 1106.83 412.981 1106.83 413.917C1106.83 415.24 1106.32 416.277 1105.29 417.03C1104.28 417.783 1102.99 418.159 1101.43 418.159C1099.84 418.159 1098.53 417.755 1097.52 416.947C1096.51 416.139 1096.01 415.001 1096.01 413.532H1098.93C1098.93 414.193 1099.15 414.689 1099.59 415.019C1100.05 415.331 1100.66 415.487 1101.43 415.487C1102.17 415.487 1102.76 415.359 1103.2 415.102C1103.64 414.826 1103.86 414.432 1103.86 413.917C1103.86 413.422 1103.62 413.054 1103.14 412.816C1102.68 412.577 1101.96 412.329 1100.97 412.072C1099.99 411.851 1099.18 411.613 1098.54 411.356C1097.92 411.099 1097.38 410.695 1096.92 410.144C1096.46 409.574 1096.23 408.821 1096.23 407.885C1096.23 406.599 1096.72 405.58 1097.72 404.827C1098.73 404.056 1099.96 403.67 1101.43 403.67C1102.88 403.67 1104.1 404.074 1105.07 404.882C1106.06 405.69 1106.56 406.82 1106.56 408.271H1103.64C1103.64 407.628 1103.43 407.15 1103 406.838C1102.58 406.508 1102.06 406.342 1101.43 406.342C1100.77 406.342 1100.23 406.48 1099.81 406.756C1099.4 407.013 1099.2 407.389 1099.2 407.885ZM984.494 440.893H981.959V451.801H978.984V440.893H976.45V438.029H978.984V433.621H981.959V438.029H984.494V440.893ZM992.825 452.159C991.503 452.159 990.282 451.838 989.162 451.195C988.06 450.553 987.179 449.68 986.517 448.578C985.875 447.477 985.553 446.255 985.553 444.915C985.553 443.574 985.875 442.353 986.517 441.251C987.179 440.131 988.06 439.259 989.162 438.635C990.282 437.992 991.503 437.67 992.825 437.67C994.166 437.67 995.387 437.992 996.489 438.635C997.609 439.259 998.491 440.131 999.133 441.251C999.776 442.353 1000.1 443.574 1000.1 444.915C1000.1 446.255 999.776 447.477 999.133 448.578C998.491 449.68 997.609 450.553 996.489 451.195C995.369 451.838 994.148 452.159 992.825 452.159ZM992.825 449.267C993.633 449.267 994.359 449.083 995.001 448.716C995.663 448.331 996.177 447.807 996.544 447.146C996.93 446.485 997.122 445.741 997.122 444.915C997.122 444.089 996.93 443.345 996.544 442.684C996.177 442.023 995.663 441.508 995.001 441.141C994.359 440.756 993.633 440.563 992.825 440.563C992.017 440.563 991.283 440.756 990.622 441.141C989.979 441.508 989.465 442.023 989.079 442.684C988.712 443.345 988.528 444.089 988.528 444.915C988.528 445.741 988.712 446.485 989.079 447.146C989.465 447.807 989.979 448.331 990.622 448.716C991.283 449.083 992.017 449.267 992.825 449.267ZM1023.56 438.029V451.168C1023.56 452.582 1023.23 453.775 1022.57 454.749C1021.92 455.722 1021.07 456.447 1020 456.925C1018.94 457.421 1017.79 457.668 1016.56 457.668C1015.38 457.668 1014.27 457.448 1013.23 457.007C1012.2 456.567 1011.36 455.942 1010.72 455.134C1010.1 454.326 1009.78 453.381 1009.78 452.297H1012.76C1012.76 452.738 1012.91 453.16 1013.2 453.564C1013.51 453.987 1013.95 454.326 1014.52 454.583C1015.11 454.84 1015.79 454.969 1016.56 454.969C1017.85 454.969 1018.85 454.629 1019.56 453.95C1020.28 453.289 1020.64 452.361 1020.64 451.168V449.487C1020.1 450.259 1019.42 450.856 1018.6 451.278C1017.79 451.682 1016.84 451.884 1015.76 451.884C1014.53 451.884 1013.39 451.572 1012.35 450.947C1011.3 450.305 1010.46 449.442 1009.84 448.358C1009.21 447.256 1008.9 446.063 1008.9 444.777C1008.9 443.473 1009.21 442.28 1009.81 441.196C1010.44 440.113 1011.27 439.259 1012.32 438.635C1013.38 437.992 1014.53 437.67 1015.76 437.67C1016.84 437.67 1017.79 437.882 1018.6 438.304C1019.42 438.708 1020.1 439.296 1020.64 440.067V438.029H1023.56ZM1016.26 449.102C1017.08 449.102 1017.83 448.918 1018.49 448.551C1019.17 448.165 1019.69 447.642 1020.06 446.981C1020.44 446.32 1020.64 445.585 1020.64 444.777C1020.64 443.969 1020.44 443.235 1020.06 442.574C1019.69 441.912 1019.17 441.398 1018.49 441.031C1017.83 440.645 1017.08 440.453 1016.26 440.453C1015.43 440.453 1014.68 440.645 1014 441.031C1013.34 441.398 1012.81 441.912 1012.43 442.574C1012.06 443.235 1011.88 443.969 1011.88 444.777C1011.88 445.585 1012.06 446.32 1012.43 446.981C1012.81 447.642 1013.34 448.165 1014 448.551C1014.68 448.918 1015.43 449.102 1016.26 449.102ZM1032.26 437.67C1033.86 437.67 1035.17 438.139 1036.2 439.075C1037.23 440.012 1037.74 441.316 1037.74 442.987V451.801H1034.82V450.507C1033.94 451.608 1032.64 452.159 1030.91 452.159C1029.59 452.159 1028.47 451.783 1027.55 451.03C1026.63 450.259 1026.17 449.175 1026.17 447.78C1026.17 446.384 1026.63 445.31 1027.55 444.557C1028.47 443.804 1029.59 443.427 1030.91 443.427C1032.58 443.427 1033.88 443.896 1034.82 444.832V443.124C1034.82 442.206 1034.59 441.536 1034.13 441.114C1033.67 440.673 1033.05 440.453 1032.26 440.453C1031.51 440.453 1030.89 440.645 1030.41 441.031C1029.94 441.398 1029.7 441.912 1029.7 442.574H1026.78C1026.78 441.582 1027.02 440.719 1027.49 439.984C1027.99 439.231 1028.65 438.662 1029.48 438.276C1030.3 437.872 1031.23 437.67 1032.26 437.67ZM1031.87 449.846C1032.76 449.846 1033.46 449.653 1034 449.267C1034.55 448.881 1034.82 448.386 1034.82 447.78C1034.82 447.155 1034.55 446.659 1034 446.292C1033.46 445.925 1032.76 445.741 1031.87 445.741C1030.97 445.741 1030.29 445.925 1029.84 446.292C1029.38 446.659 1029.15 447.155 1029.15 447.78C1029.15 448.404 1029.38 448.909 1029.84 449.295C1030.29 449.662 1030.97 449.846 1031.87 449.846ZM1054.57 437.67C1055.85 437.67 1056.89 438.093 1057.68 438.938C1058.49 439.782 1058.89 440.976 1058.89 442.518V451.801H1055.92V442.684C1055.92 441.912 1055.73 441.352 1055.34 441.003C1054.95 440.636 1054.45 440.453 1053.82 440.453C1053.16 440.453 1052.59 440.682 1052.09 441.141C1051.59 441.582 1051.35 442.316 1051.35 443.345V451.801H1048.37V442.684C1048.37 441.912 1048.18 441.352 1047.79 441.003C1047.41 440.636 1046.91 440.453 1046.3 440.453C1045.64 440.453 1045.07 440.682 1044.57 441.141C1044.07 441.582 1043.83 442.316 1043.83 443.345V451.801H1040.85V438.029H1043.83V439.461C1044.6 438.267 1045.74 437.67 1047.24 437.67C1047.98 437.67 1048.65 437.845 1049.25 438.194C1049.86 438.524 1050.34 439.011 1050.68 439.654C1051.64 438.332 1052.93 437.67 1054.57 437.67ZM1064.31 446.182C1064.53 447.284 1065.01 448.129 1065.77 448.716C1066.54 449.304 1067.47 449.598 1068.55 449.598C1069.28 449.598 1069.95 449.442 1070.53 449.129C1071.12 448.817 1071.54 448.413 1071.8 447.917L1074.83 447.89C1074.41 449.212 1073.63 450.259 1072.49 451.03C1071.37 451.783 1070.04 452.159 1068.49 452.159C1067.06 452.159 1065.8 451.847 1064.69 451.223C1063.59 450.598 1062.74 449.735 1062.13 448.634C1061.53 447.532 1061.22 446.292 1061.22 444.915C1061.22 443.556 1061.53 442.326 1062.13 441.224C1062.74 440.122 1063.59 439.259 1064.69 438.635C1065.8 437.992 1067.04 437.67 1068.44 437.67C1069.78 437.67 1070.96 438.001 1071.99 438.662C1073.04 439.305 1073.85 440.186 1074.42 441.306C1074.99 442.408 1075.27 443.62 1075.27 444.942C1075.27 445.255 1075.23 445.668 1075.16 446.182H1064.31ZM1072.27 443.73C1072.08 442.629 1071.63 441.793 1070.92 441.224C1070.22 440.655 1069.39 440.37 1068.44 440.37C1067.34 440.37 1066.42 440.673 1065.69 441.279C1064.95 441.885 1064.48 442.702 1064.28 443.73H1072.27ZM1080.37 441.885C1080.37 442.417 1080.6 442.803 1081.06 443.042C1081.52 443.262 1082.26 443.501 1083.29 443.758C1084.27 443.978 1085.06 444.217 1085.69 444.474C1086.33 444.713 1086.87 445.117 1087.31 445.686C1087.77 446.237 1088 446.981 1088 447.917C1088 449.24 1087.49 450.277 1086.46 451.03C1085.45 451.783 1084.16 452.159 1082.6 452.159C1081.01 452.159 1079.7 451.755 1078.69 450.947C1077.68 450.139 1077.18 449.001 1077.18 447.532H1080.1C1080.1 448.193 1080.32 448.689 1080.76 449.019C1081.22 449.331 1081.83 449.487 1082.6 449.487C1083.34 449.487 1083.93 449.359 1084.37 449.102C1084.81 448.826 1085.03 448.432 1085.03 447.917C1085.03 447.422 1084.79 447.054 1084.31 446.816C1083.85 446.577 1083.13 446.329 1082.14 446.072C1081.16 445.851 1080.35 445.613 1079.71 445.356C1079.09 445.099 1078.55 444.695 1078.09 444.144C1077.63 443.574 1077.4 442.821 1077.4 441.885C1077.4 440.599 1077.89 439.58 1078.89 438.827C1079.9 438.056 1081.13 437.67 1082.6 437.67C1084.05 437.67 1085.27 438.074 1086.24 438.882C1087.23 439.69 1087.73 440.82 1087.73 442.271H1084.81C1084.81 441.628 1084.6 441.15 1084.17 440.838C1083.75 440.508 1083.23 440.342 1082.6 440.342C1081.94 440.342 1081.4 440.48 1080.98 440.756C1080.57 441.013 1080.37 441.389 1080.37 441.885Z" fill="white"/>
<path d="M1268.03 590.373V593.403H1257.84H1256.74V574.122H1259.91H1267.9V577.152H1259.91V582.165H1267.21V585.14H1259.91V590.373H1268.03ZM1277.61 579.273C1278.47 579.273 1279.24 579.484 1279.92 579.906C1280.62 580.328 1281.16 580.934 1281.55 581.724C1281.95 582.514 1282.15 583.45 1282.15 584.534V593.403H1279.18V584.699C1279.18 583.854 1278.94 583.202 1278.46 582.743C1278 582.284 1277.4 582.055 1276.64 582.055C1275.8 582.055 1275.09 582.33 1274.52 582.881C1273.97 583.432 1273.7 584.304 1273.7 585.498V593.403H1270.72V579.631H1273.7V581.201C1274.54 579.915 1275.85 579.273 1277.61 579.273ZM1299.19 574.122V593.403H1296.21V591.42C1295.68 592.155 1295 592.733 1294.17 593.155C1293.36 593.559 1292.43 593.761 1291.36 593.761C1290.13 593.761 1288.99 593.44 1287.95 592.797C1286.9 592.155 1286.07 591.282 1285.44 590.181C1284.83 589.079 1284.53 587.858 1284.53 586.517C1284.53 585.176 1284.83 583.955 1285.44 582.853C1286.07 581.733 1286.9 580.861 1287.95 580.237C1288.99 579.594 1290.13 579.273 1291.36 579.273C1292.43 579.273 1293.36 579.475 1294.17 579.879C1295 580.283 1295.68 580.861 1296.21 581.614V574.122H1299.19ZM1291.86 590.924C1292.69 590.924 1293.43 590.741 1294.09 590.373C1294.75 589.988 1295.27 589.464 1295.63 588.803C1296.02 588.124 1296.21 587.362 1296.21 586.517C1296.21 585.672 1296.02 584.919 1295.63 584.258C1295.27 583.579 1294.75 583.055 1294.09 582.688C1293.43 582.303 1292.69 582.11 1291.86 582.11C1291.03 582.11 1290.29 582.303 1289.63 582.688C1288.97 583.055 1288.44 583.579 1288.06 584.258C1287.69 584.919 1287.51 585.672 1287.51 586.517C1287.51 587.362 1287.69 588.124 1288.06 588.803C1288.44 589.464 1288.97 589.988 1289.63 590.373C1290.29 590.741 1291.03 590.924 1291.86 590.924ZM1323.23 579.273C1324.52 579.273 1325.55 579.695 1326.34 580.54C1327.15 581.384 1327.55 582.578 1327.55 584.121V593.403H1324.58V584.286C1324.58 583.515 1324.39 582.954 1324 582.606C1323.62 582.238 1323.11 582.055 1322.49 582.055C1321.83 582.055 1321.25 582.284 1320.75 582.743C1320.26 583.184 1320.01 583.919 1320.01 584.947V593.403H1317.03V584.286C1317.03 583.515 1316.84 582.954 1316.45 582.606C1316.07 582.238 1315.57 582.055 1314.97 582.055C1314.31 582.055 1313.73 582.284 1313.23 582.743C1312.74 583.184 1312.49 583.919 1312.49 584.947V593.403H1309.51V579.631H1312.49V581.063C1313.26 579.869 1314.4 579.273 1315.9 579.273C1316.64 579.273 1317.31 579.447 1317.91 579.796C1318.52 580.126 1319 580.613 1319.35 581.256C1320.3 579.934 1321.6 579.273 1323.23 579.273ZM1337.16 593.761C1335.83 593.761 1334.61 593.44 1333.49 592.797C1332.39 592.155 1331.51 591.282 1330.85 590.181C1330.21 589.079 1329.88 587.858 1329.88 586.517C1329.88 585.176 1330.21 583.955 1330.85 582.853C1331.51 581.733 1332.39 580.861 1333.49 580.237C1334.61 579.594 1335.83 579.273 1337.16 579.273C1338.5 579.273 1339.72 579.594 1340.82 580.237C1341.94 580.861 1342.82 581.733 1343.46 582.853C1344.11 583.955 1344.43 585.176 1344.43 586.517C1344.43 587.858 1344.11 589.079 1343.46 590.181C1342.82 591.282 1341.94 592.155 1340.82 592.797C1339.7 593.44 1338.48 593.761 1337.16 593.761ZM1337.16 590.869C1337.96 590.869 1338.69 590.686 1339.33 590.318C1339.99 589.933 1340.51 589.409 1340.87 588.748C1341.26 588.087 1341.45 587.343 1341.45 586.517C1341.45 585.691 1341.26 584.947 1340.87 584.286C1340.51 583.625 1339.99 583.111 1339.33 582.743C1338.69 582.358 1337.96 582.165 1337.16 582.165C1336.35 582.165 1335.61 582.358 1334.95 582.743C1334.31 583.111 1333.8 583.625 1333.41 584.286C1333.04 584.947 1332.86 585.691 1332.86 586.517C1332.86 587.343 1333.04 588.087 1333.41 588.748C1333.8 589.409 1334.31 589.933 1334.95 590.318C1335.61 590.686 1336.35 590.869 1337.16 590.869ZM1350.09 581.697C1350.85 580.154 1352.17 579.383 1354.06 579.383V582.606C1352.96 582.532 1352.02 582.798 1351.25 583.404C1350.48 583.992 1350.09 584.965 1350.09 586.324V593.403H1347.12V579.631H1350.09V581.697ZM1357.99 587.784C1358.21 588.886 1358.69 589.731 1359.45 590.318C1360.22 590.906 1361.14 591.2 1362.23 591.2C1362.96 591.2 1363.62 591.044 1364.21 590.731C1364.8 590.419 1365.22 590.015 1365.48 589.519L1368.51 589.492C1368.09 590.814 1367.31 591.861 1366.17 592.632C1365.05 593.385 1363.72 593.761 1362.17 593.761C1360.74 593.761 1359.47 593.449 1358.37 592.825C1357.27 592.201 1356.42 591.337 1355.81 590.236C1355.2 589.134 1354.9 587.894 1354.9 586.517C1354.9 585.158 1355.2 583.928 1355.81 582.826C1356.42 581.724 1357.27 580.861 1358.37 580.237C1359.47 579.594 1360.72 579.273 1362.12 579.273C1363.46 579.273 1364.64 579.603 1365.67 580.264C1366.72 580.907 1367.53 581.788 1368.1 582.909C1368.66 584.01 1368.95 585.222 1368.95 586.545C1368.95 586.857 1368.91 587.27 1368.84 587.784H1357.99ZM1365.95 585.333C1365.76 584.231 1365.31 583.395 1364.6 582.826C1363.9 582.257 1363.07 581.972 1362.12 581.972C1361.02 581.972 1360.1 582.275 1359.36 582.881C1358.63 583.487 1358.16 584.304 1357.96 585.333H1365.95Z" fill="white" fill-opacity="0.1"/>
<path d="M1266.63 211.587C1268.37 211.587 1269.94 212.019 1271.34 212.882C1272.75 213.727 1273.85 214.884 1274.64 216.353C1275.45 217.822 1275.86 219.447 1275.86 221.228C1275.86 223.01 1275.45 224.635 1274.64 226.104C1273.85 227.573 1272.75 228.739 1271.34 229.602C1269.94 230.447 1268.37 230.869 1266.63 230.869H1259.6H1258.5V211.587H1261.67H1266.63ZM1266.63 227.839C1267.82 227.839 1268.89 227.555 1269.82 226.985C1270.76 226.416 1271.49 225.626 1272 224.616C1272.53 223.606 1272.8 222.477 1272.8 221.228C1272.8 219.961 1272.53 218.832 1272 217.84C1271.49 216.83 1270.76 216.041 1269.82 215.471C1268.89 214.902 1267.82 214.617 1266.63 214.617H1261.67V227.839H1266.63ZM1278.57 211.587H1281.54V214.893H1278.57V211.587ZM1278.57 217.096H1281.54V230.869H1278.57V217.096ZM1287.56 220.953C1287.56 221.485 1287.79 221.871 1288.24 222.11C1288.7 222.33 1289.45 222.569 1290.48 222.826C1291.45 223.046 1292.25 223.285 1292.87 223.542C1293.52 223.781 1294.06 224.185 1294.5 224.754C1294.96 225.305 1295.19 226.049 1295.19 226.985C1295.19 228.307 1294.67 229.345 1293.64 230.098C1292.63 230.851 1291.35 231.227 1289.79 231.227C1288.19 231.227 1286.89 230.823 1285.88 230.015C1284.87 229.207 1284.36 228.069 1284.36 226.6H1287.28C1287.28 227.261 1287.5 227.757 1287.94 228.087C1288.4 228.399 1289.02 228.555 1289.79 228.555C1290.52 228.555 1291.11 228.427 1291.55 228.17C1291.99 227.894 1292.21 227.499 1292.21 226.985C1292.21 226.489 1291.97 226.122 1291.5 225.883C1291.04 225.645 1290.31 225.397 1289.32 225.14C1288.35 224.919 1287.54 224.681 1286.9 224.424C1286.27 224.166 1285.73 223.762 1285.27 223.212C1284.81 222.642 1284.58 221.889 1284.58 220.953C1284.58 219.667 1285.08 218.648 1286.07 217.895C1287.08 217.124 1288.32 216.738 1289.79 216.738C1291.24 216.738 1292.45 217.142 1293.42 217.95C1294.42 218.758 1294.91 219.888 1294.91 221.338H1291.99C1291.99 220.696 1291.78 220.218 1291.36 219.906C1290.94 219.576 1290.41 219.41 1289.79 219.41C1289.13 219.41 1288.58 219.548 1288.16 219.823C1287.76 220.081 1287.56 220.457 1287.56 220.953ZM1311.05 226.049C1310.83 227.04 1310.39 227.931 1309.73 228.721C1309.08 229.51 1308.29 230.125 1307.33 230.566C1306.38 231.007 1305.35 231.227 1304.25 231.227C1302.89 231.227 1301.65 230.906 1300.53 230.263C1299.43 229.62 1298.55 228.748 1297.91 227.646C1297.29 226.545 1296.97 225.323 1296.97 223.983C1296.97 222.624 1297.29 221.394 1297.91 220.292C1298.55 219.19 1299.43 218.327 1300.53 217.702C1301.65 217.06 1302.89 216.738 1304.25 216.738C1305.35 216.738 1306.38 216.959 1307.33 217.399C1308.29 217.84 1309.08 218.455 1309.73 219.245C1310.39 220.016 1310.83 220.907 1311.05 221.917H1307.91C1307.62 221.219 1307.14 220.668 1306.48 220.264C1305.83 219.86 1305.09 219.658 1304.25 219.658C1303.46 219.658 1302.73 219.851 1302.07 220.237C1301.41 220.604 1300.89 221.118 1300.5 221.779C1300.13 222.44 1299.95 223.175 1299.95 223.983C1299.95 224.791 1300.13 225.525 1300.5 226.186C1300.89 226.848 1301.41 227.371 1302.07 227.757C1302.73 228.124 1303.46 228.307 1304.25 228.307C1305.09 228.307 1305.84 228.105 1306.5 227.701C1307.17 227.279 1307.63 226.728 1307.91 226.049H1311.05ZM1319.9 231.227C1318.58 231.227 1317.36 230.906 1316.24 230.263C1315.14 229.62 1314.25 228.748 1313.59 227.646C1312.95 226.545 1312.63 225.323 1312.63 223.983C1312.63 222.642 1312.95 221.421 1313.59 220.319C1314.25 219.199 1315.14 218.327 1316.24 217.702C1317.36 217.06 1318.58 216.738 1319.9 216.738C1321.24 216.738 1322.46 217.06 1323.57 217.702C1324.69 218.327 1325.57 219.199 1326.21 220.319C1326.85 221.421 1327.17 222.642 1327.17 223.983C1327.17 225.323 1326.85 226.545 1326.21 227.646C1325.57 228.748 1324.69 229.62 1323.57 230.263C1322.44 230.906 1321.22 231.227 1319.9 231.227ZM1319.9 228.335C1320.71 228.335 1321.43 228.151 1322.08 227.784C1322.74 227.398 1323.25 226.875 1323.62 226.214C1324.01 225.553 1324.2 224.809 1324.2 223.983C1324.2 223.156 1324.01 222.413 1323.62 221.752C1323.25 221.091 1322.74 220.576 1322.08 220.209C1321.43 219.823 1320.71 219.631 1319.9 219.631C1319.09 219.631 1318.36 219.823 1317.7 220.209C1317.06 220.576 1316.54 221.091 1316.16 221.752C1315.79 222.413 1315.6 223.156 1315.6 223.983C1315.6 224.809 1315.79 225.553 1316.16 226.214C1316.54 226.875 1317.06 227.398 1317.7 227.784C1318.36 228.151 1319.09 228.335 1319.9 228.335ZM1340.96 217.096V230.869H1337.99V229.299C1337.14 230.585 1335.84 231.227 1334.08 231.227C1333.21 231.227 1332.43 231.016 1331.74 230.594C1331.06 230.171 1330.52 229.565 1330.11 228.776C1329.73 227.986 1329.53 227.05 1329.53 225.966V217.096H1332.51V225.773C1332.51 226.636 1332.74 227.297 1333.2 227.757C1333.66 228.216 1334.26 228.445 1335.01 228.445C1335.88 228.445 1336.58 228.17 1337.14 227.619C1337.7 227.05 1337.99 226.177 1337.99 225.002V217.096H1340.96ZM1351.3 216.738C1352.17 216.738 1352.94 216.95 1353.62 217.372C1354.31 217.794 1354.86 218.4 1355.24 219.19C1355.65 219.98 1355.85 220.916 1355.85 222V230.869H1352.87V222.165C1352.87 221.32 1352.63 220.668 1352.16 220.209C1351.7 219.75 1351.09 219.52 1350.34 219.52C1349.49 219.52 1348.79 219.796 1348.22 220.347C1347.67 220.898 1347.39 221.77 1347.39 222.964V230.869H1344.42V217.096H1347.39V218.667C1348.24 217.381 1349.54 216.738 1351.3 216.738ZM1365.77 219.961H1363.24V230.869H1360.26V219.961H1357.73V217.096H1360.26V212.689H1363.24V217.096H1365.77V219.961ZM1266.92 259.049C1266.7 260.04 1266.26 260.931 1265.6 261.721C1264.96 262.51 1264.16 263.125 1263.2 263.566C1262.25 264.007 1261.22 264.227 1260.12 264.227C1258.76 264.227 1257.52 263.906 1256.4 263.263C1255.3 262.62 1254.42 261.748 1253.78 260.646C1253.16 259.545 1252.84 258.323 1252.84 256.983C1252.84 255.624 1253.16 254.394 1253.78 253.292C1254.42 252.19 1255.3 251.327 1256.4 250.702C1257.52 250.06 1258.76 249.738 1260.12 249.738C1261.22 249.738 1262.25 249.959 1263.2 250.399C1264.16 250.84 1264.96 251.455 1265.6 252.245C1266.26 253.016 1266.7 253.907 1266.92 254.917H1263.78C1263.49 254.219 1263.01 253.668 1262.35 253.264C1261.71 252.86 1260.96 252.658 1260.12 252.658C1259.33 252.658 1258.6 252.851 1257.94 253.237C1257.28 253.604 1256.76 254.118 1256.37 254.779C1256 255.44 1255.82 256.175 1255.82 256.983C1255.82 257.791 1256 258.525 1256.37 259.186C1256.76 259.848 1257.28 260.371 1257.94 260.757C1258.6 261.124 1259.33 261.307 1260.12 261.307C1260.96 261.307 1261.71 261.105 1262.38 260.701C1263.04 260.279 1263.5 259.728 1263.78 259.049H1266.92ZM1275.77 264.227C1274.45 264.227 1273.23 263.906 1272.11 263.263C1271.01 262.62 1270.13 261.748 1269.46 260.646C1268.82 259.545 1268.5 258.323 1268.5 256.983C1268.5 255.642 1268.82 254.421 1269.46 253.319C1270.13 252.199 1271.01 251.327 1272.11 250.702C1273.23 250.06 1274.45 249.738 1275.77 249.738C1277.11 249.738 1278.33 250.06 1279.44 250.702C1280.56 251.327 1281.44 252.199 1282.08 253.319C1282.72 254.421 1283.04 255.642 1283.04 256.983C1283.04 258.323 1282.72 259.545 1282.08 260.646C1281.44 261.748 1280.56 262.62 1279.44 263.263C1278.32 263.906 1277.09 264.227 1275.77 264.227ZM1275.77 261.335C1276.58 261.335 1277.31 261.151 1277.95 260.784C1278.61 260.398 1279.12 259.875 1279.49 259.214C1279.88 258.553 1280.07 257.809 1280.07 256.983C1280.07 256.156 1279.88 255.413 1279.49 254.752C1279.12 254.091 1278.61 253.576 1277.95 253.209C1277.31 252.823 1276.58 252.631 1275.77 252.631C1274.96 252.631 1274.23 252.823 1273.57 253.209C1272.93 253.576 1272.41 254.091 1272.03 254.752C1271.66 255.413 1271.48 256.156 1271.48 256.983C1271.48 257.809 1271.66 258.553 1272.03 259.214C1272.41 259.875 1272.93 260.398 1273.57 260.784C1274.23 261.151 1274.96 261.335 1275.77 261.335ZM1299.64 244.587V263.869H1296.67V261.886C1296.14 262.62 1295.46 263.199 1294.63 263.621C1293.82 264.025 1292.89 264.227 1291.82 264.227C1290.59 264.227 1289.45 263.906 1288.41 263.263C1287.36 262.62 1286.52 261.748 1285.9 260.646C1285.29 259.545 1284.99 258.323 1284.99 256.983C1284.99 255.642 1285.29 254.421 1285.9 253.319C1286.52 252.199 1287.36 251.327 1288.41 250.702C1289.45 250.06 1290.59 249.738 1291.82 249.738C1292.89 249.738 1293.82 249.94 1294.63 250.344C1295.46 250.748 1296.14 251.327 1296.67 252.08V244.587H1299.64ZM1292.32 261.39C1293.14 261.39 1293.89 261.206 1294.55 260.839C1295.21 260.454 1295.72 259.93 1296.09 259.269C1296.48 258.59 1296.67 257.828 1296.67 256.983C1296.67 256.138 1296.48 255.385 1296.09 254.724C1295.72 254.045 1295.21 253.521 1294.55 253.154C1293.89 252.768 1293.14 252.576 1292.32 252.576C1291.49 252.576 1290.75 252.768 1290.09 253.154C1289.43 253.521 1288.9 254.045 1288.52 254.724C1288.15 255.385 1287.97 256.138 1287.97 256.983C1287.97 257.828 1288.15 258.59 1288.52 259.269C1288.9 259.93 1289.43 260.454 1290.09 260.839C1290.75 261.206 1291.49 261.39 1292.32 261.39ZM1305.4 258.25C1305.62 259.352 1306.11 260.196 1306.86 260.784C1307.63 261.372 1308.56 261.666 1309.64 261.666C1310.38 261.666 1311.04 261.509 1311.62 261.197C1312.21 260.885 1312.63 260.481 1312.89 259.985L1315.92 259.958C1315.5 261.28 1314.72 262.327 1313.58 263.098C1312.46 263.851 1311.13 264.227 1309.59 264.227C1308.15 264.227 1306.89 263.915 1305.78 263.291C1304.68 262.666 1303.83 261.803 1303.22 260.701C1302.62 259.6 1302.31 258.36 1302.31 256.983C1302.31 255.624 1302.62 254.394 1303.22 253.292C1303.83 252.19 1304.68 251.327 1305.78 250.702C1306.89 250.06 1308.13 249.738 1309.53 249.738C1310.87 249.738 1312.06 250.069 1313.08 250.73C1314.13 251.373 1314.94 252.254 1315.51 253.374C1316.08 254.476 1316.36 255.688 1316.36 257.01C1316.36 257.323 1316.32 257.736 1316.25 258.25H1305.4ZM1313.36 255.798C1313.18 254.697 1312.73 253.861 1312.01 253.292C1311.31 252.722 1310.49 252.438 1309.53 252.438C1308.43 252.438 1307.51 252.741 1306.78 253.347C1306.04 253.953 1305.57 254.77 1305.37 255.798H1313.36ZM1321.46 253.953C1321.46 254.485 1321.69 254.871 1322.15 255.11C1322.61 255.33 1323.35 255.569 1324.38 255.826C1325.36 256.046 1326.16 256.285 1326.78 256.542C1327.42 256.781 1327.96 257.185 1328.4 257.754C1328.86 258.305 1329.09 259.049 1329.09 259.985C1329.09 261.307 1328.58 262.345 1327.55 263.098C1326.54 263.851 1325.26 264.227 1323.69 264.227C1322.1 264.227 1320.79 263.823 1319.78 263.015C1318.77 262.207 1318.27 261.069 1318.27 259.6H1321.19C1321.19 260.261 1321.41 260.757 1321.85 261.087C1322.31 261.399 1322.92 261.555 1323.69 261.555C1324.43 261.555 1325.02 261.427 1325.46 261.17C1325.9 260.894 1326.12 260.499 1326.12 259.985C1326.12 259.489 1325.88 259.122 1325.4 258.883C1324.94 258.645 1324.22 258.397 1323.23 258.14C1322.25 257.919 1321.45 257.681 1320.8 257.424C1320.18 257.166 1319.64 256.762 1319.18 256.212C1318.72 255.642 1318.49 254.889 1318.49 253.953C1318.49 252.667 1318.98 251.648 1319.98 250.895C1320.99 250.124 1322.23 249.738 1323.69 249.738C1325.15 249.738 1326.36 250.142 1327.33 250.95C1328.32 251.758 1328.82 252.888 1328.82 254.338H1325.9C1325.9 253.696 1325.69 253.218 1325.26 252.906C1324.84 252.576 1324.32 252.41 1323.69 252.41C1323.03 252.41 1322.49 252.548 1322.07 252.823C1321.67 253.081 1321.46 253.457 1321.46 253.953ZM1345.69 247.094C1345.57 247.076 1345.37 247.066 1345.12 247.066C1344.22 247.066 1343.54 247.287 1343.08 247.728C1342.64 248.168 1342.42 248.866 1342.42 249.821V250.096H1345.69V252.961H1342.42V263.869H1339.44V252.961H1337.35V250.096H1339.44V249.821C1339.44 248.04 1339.91 246.662 1340.85 245.689C1341.8 244.698 1343.19 244.202 1345.01 244.202C1345.3 244.202 1345.53 244.211 1345.69 244.229V247.094ZM1353.65 264.227C1352.33 264.227 1351.1 263.906 1349.98 263.263C1348.88 262.62 1348 261.748 1347.34 260.646C1346.7 259.545 1346.38 258.323 1346.38 256.983C1346.38 255.642 1346.7 254.421 1347.34 253.319C1348 252.199 1348.88 251.327 1349.98 250.702C1351.1 250.06 1352.33 249.738 1353.65 249.738C1354.99 249.738 1356.21 250.06 1357.31 250.702C1358.43 251.327 1359.31 252.199 1359.96 253.319C1360.6 254.421 1360.92 255.642 1360.92 256.983C1360.92 258.323 1360.6 259.545 1359.96 260.646C1359.31 261.748 1358.43 262.62 1357.31 263.263C1356.19 263.906 1354.97 264.227 1353.65 264.227ZM1353.65 261.335C1354.46 261.335 1355.18 261.151 1355.82 260.784C1356.48 260.398 1357 259.875 1357.37 259.214C1357.75 258.553 1357.94 257.809 1357.94 256.983C1357.94 256.156 1357.75 255.413 1357.37 254.752C1357 254.091 1356.48 253.576 1355.82 253.209C1355.18 252.823 1354.46 252.631 1353.65 252.631C1352.84 252.631 1352.1 252.823 1351.44 253.209C1350.8 253.576 1350.29 254.091 1349.9 254.752C1349.53 255.413 1349.35 256.156 1349.35 256.983C1349.35 257.809 1349.53 258.553 1349.9 259.214C1350.29 259.875 1350.8 260.398 1351.44 260.784C1352.1 261.151 1352.84 261.335 1353.65 261.335ZM1366.58 252.162C1367.34 250.62 1368.66 249.849 1370.55 249.849V253.071C1369.45 252.998 1368.51 253.264 1367.74 253.87C1366.97 254.458 1366.58 255.431 1366.58 256.79V263.869H1363.61V250.096H1366.58V252.162ZM1303.05 277.587V296.869H1300.57L1292.44 283.785V296.869H1289.28V277.587H1291.76L1299.88 290.671V277.587H1303.05ZM1313.51 285.961H1310.97V296.869H1308V285.961H1305.46V283.096H1308V278.689H1310.97V283.096H1313.51V285.961ZM1322.63 280.094C1322.5 280.076 1322.31 280.066 1322.05 280.066C1321.15 280.066 1320.47 280.287 1320.01 280.728C1319.57 281.168 1319.35 281.866 1319.35 282.821V283.096H1322.63V285.961H1319.35V296.869H1316.37V285.961H1314.28V283.096H1316.37V282.821C1316.37 281.04 1316.84 279.662 1317.78 278.689C1318.73 277.698 1320.12 277.202 1321.94 277.202C1322.23 277.202 1322.46 277.211 1322.63 277.229V280.094ZM1326.78 286.953C1326.78 287.485 1327.01 287.871 1327.46 288.11C1327.92 288.33 1328.67 288.569 1329.7 288.826C1330.67 289.046 1331.47 289.285 1332.09 289.542C1332.74 289.781 1333.28 290.185 1333.72 290.754C1334.18 291.305 1334.41 292.049 1334.41 292.985C1334.41 294.307 1333.89 295.345 1332.86 296.098C1331.85 296.851 1330.57 297.227 1329.01 297.227C1327.41 297.227 1326.11 296.823 1325.1 296.015C1324.09 295.207 1323.58 294.069 1323.58 292.6H1326.5C1326.5 293.261 1326.72 293.757 1327.16 294.087C1327.62 294.399 1328.24 294.555 1329.01 294.555C1329.74 294.555 1330.33 294.427 1330.77 294.17C1331.21 293.894 1331.43 293.499 1331.43 292.985C1331.43 292.489 1331.19 292.122 1330.72 291.883C1330.26 291.645 1329.53 291.397 1328.54 291.14C1327.57 290.919 1326.76 290.681 1326.12 290.424C1325.49 290.166 1324.95 289.762 1324.49 289.212C1324.03 288.642 1323.8 287.889 1323.8 286.953C1323.8 285.667 1324.3 284.648 1325.29 283.895C1326.3 283.124 1327.54 282.738 1329.01 282.738C1330.46 282.738 1331.67 283.142 1332.64 283.95C1333.64 284.758 1334.13 285.888 1334.13 287.338H1331.21C1331.21 286.696 1331 286.218 1330.58 285.906C1330.16 285.576 1329.63 285.41 1329.01 285.41C1328.35 285.41 1327.8 285.548 1327.38 285.823C1326.98 286.081 1326.78 286.457 1326.78 286.953Z" fill="white"/>
<path d="M1260.76 320.483C1260.1 320.483 1259.49 320.323 1258.93 320.001C1258.38 319.68 1257.94 319.244 1257.62 318.693C1257.3 318.142 1257.14 317.531 1257.14 316.861C1257.14 316.191 1257.3 315.58 1257.62 315.029C1257.94 314.478 1258.38 314.042 1258.93 313.721C1259.49 313.399 1260.1 313.239 1260.76 313.239C1261.42 313.239 1262.03 313.399 1262.58 313.721C1263.14 314.042 1263.58 314.478 1263.9 315.029C1264.23 315.58 1264.4 316.191 1264.4 316.861C1264.4 317.531 1264.23 318.142 1263.9 318.693C1263.58 319.244 1263.14 319.68 1262.58 320.001C1262.03 320.323 1261.42 320.483 1260.76 320.483ZM1260.76 319.313C1261.21 319.313 1261.62 319.207 1261.99 318.996C1262.36 318.775 1262.66 318.482 1262.87 318.114C1263.09 317.738 1263.2 317.32 1263.2 316.861C1263.2 316.402 1263.09 315.989 1262.87 315.621C1262.66 315.245 1262.36 314.951 1261.99 314.74C1261.62 314.52 1261.21 314.409 1260.76 314.409C1260.31 314.409 1259.9 314.52 1259.53 314.74C1259.17 314.951 1258.87 315.245 1258.65 315.621C1258.44 315.989 1258.34 316.402 1258.34 316.861C1258.34 317.32 1258.44 317.738 1258.65 318.114C1258.87 318.482 1259.17 318.775 1259.53 318.996C1259.9 319.207 1260.31 319.313 1260.76 319.313ZM1269.05 313.239C1269.48 313.239 1269.87 313.344 1270.22 313.556C1270.57 313.767 1270.84 314.07 1271.04 314.465C1271.25 314.85 1271.36 315.305 1271.36 315.828V320.304H1270.16V315.883C1270.16 315.406 1270.03 315.038 1269.76 314.781C1269.5 314.515 1269.16 314.382 1268.73 314.382C1268.25 314.382 1267.84 314.547 1267.5 314.878C1267.17 315.199 1267.01 315.7 1267.01 316.379V320.304H1265.81V313.418H1267.01V314.272C1267.46 313.583 1268.14 313.239 1269.05 313.239ZM1279.73 314.575H1278.38V320.304H1277.18V314.575H1275.81V313.418H1277.18V311.214H1278.38V313.418H1279.73V314.575ZM1284.12 313.239C1284.55 313.239 1284.94 313.344 1285.29 313.556C1285.64 313.767 1285.92 314.07 1286.12 314.465C1286.33 314.85 1286.44 315.305 1286.44 315.828V320.304H1285.24V315.883C1285.24 315.406 1285.11 315.038 1284.84 314.781C1284.58 314.515 1284.24 314.382 1283.81 314.382C1283.33 314.382 1282.92 314.547 1282.58 314.878C1282.25 315.199 1282.08 315.7 1282.08 316.379V320.304H1280.89V310.663H1282.08V314.272C1282.53 313.583 1283.21 313.239 1284.12 313.239ZM1288.94 317.412C1289.04 318.036 1289.3 318.523 1289.72 318.872C1290.15 319.221 1290.68 319.395 1291.3 319.395C1291.73 319.395 1292.1 319.303 1292.43 319.12C1292.77 318.927 1293.02 318.684 1293.16 318.39H1294.42C1294.22 319.023 1293.83 319.533 1293.27 319.919C1292.71 320.295 1292.05 320.483 1291.29 320.483C1290.58 320.483 1289.96 320.327 1289.42 320.015C1288.88 319.703 1288.45 319.271 1288.15 318.72C1287.86 318.169 1287.71 317.55 1287.71 316.861C1287.71 316.182 1287.86 315.566 1288.15 315.015C1288.45 314.465 1288.88 314.033 1289.42 313.721C1289.96 313.399 1290.58 313.239 1291.28 313.239C1291.95 313.239 1292.54 313.404 1293.05 313.735C1293.57 314.065 1293.96 314.51 1294.24 315.071C1294.51 315.621 1294.65 316.223 1294.65 316.875C1294.65 317.049 1294.64 317.228 1294.61 317.412H1288.94ZM1293.43 316.351C1293.34 315.709 1293.1 315.217 1292.7 314.878C1292.29 314.538 1291.81 314.368 1291.26 314.368C1290.63 314.368 1290.11 314.547 1289.69 314.905C1289.29 315.263 1289.04 315.745 1288.94 316.351H1293.43ZM1305.11 319.092V320.304H1300.01H1299.53V310.663H1300.81H1305.04V311.875H1300.81V314.836H1304.7V316.035H1300.81V319.092H1305.11ZM1309.11 313.239C1309.9 313.239 1310.54 313.473 1311.04 313.941C1311.54 314.409 1311.8 315.048 1311.8 315.856V320.304H1310.61V319.588C1310.16 320.185 1309.48 320.483 1308.56 320.483C1308.13 320.483 1307.73 320.401 1307.36 320.235C1306.99 320.07 1306.7 319.822 1306.48 319.492C1306.26 319.152 1306.15 318.748 1306.15 318.28C1306.15 317.811 1306.26 317.412 1306.48 317.081C1306.7 316.742 1306.99 316.489 1307.36 316.324C1307.73 316.159 1308.13 316.076 1308.56 316.076C1309 316.076 1309.4 316.145 1309.74 316.283C1310.09 316.42 1310.38 316.618 1310.61 316.875V315.897C1310.61 315.383 1310.47 315.002 1310.19 314.754C1309.91 314.506 1309.55 314.382 1309.11 314.382C1308.69 314.382 1308.34 314.492 1308.05 314.712C1307.77 314.924 1307.62 315.227 1307.62 315.621H1306.44C1306.44 315.153 1306.55 314.74 1306.78 314.382C1307.01 314.024 1307.33 313.744 1307.73 313.542C1308.15 313.34 1308.61 313.239 1309.11 313.239ZM1308.9 319.464C1309.41 319.464 1309.82 319.354 1310.13 319.134C1310.45 318.913 1310.61 318.629 1310.61 318.28C1310.61 317.912 1310.45 317.623 1310.13 317.412C1309.82 317.192 1309.41 317.081 1308.9 317.081C1308.39 317.081 1308 317.192 1307.73 317.412C1307.48 317.632 1307.35 317.922 1307.35 318.28C1307.35 318.638 1307.48 318.927 1307.73 319.147C1308 319.358 1308.39 319.464 1308.9 319.464ZM1314.65 314.451C1315.08 313.68 1315.77 313.294 1316.73 313.294V314.547C1316.15 314.52 1315.66 314.676 1315.25 315.015C1314.85 315.346 1314.65 315.879 1314.65 316.613V320.304H1313.45V313.418H1314.65V314.451ZM1321.12 313.239C1321.56 313.239 1321.95 313.344 1322.29 313.556C1322.64 313.767 1322.92 314.07 1323.12 314.465C1323.33 314.85 1323.44 315.305 1323.44 315.828V320.304H1322.24V315.883C1322.24 315.406 1322.11 315.038 1321.84 314.781C1321.58 314.515 1321.24 314.382 1320.81 314.382C1320.33 314.382 1319.92 314.547 1319.58 314.878C1319.25 315.199 1319.09 315.7 1319.09 316.379V320.304H1317.89V313.418H1319.09V314.272C1319.54 313.583 1320.21 313.239 1321.12 313.239ZM1325.12 318.817H1326.6V320.304H1325.12V318.817ZM1332.69 315.332H1337.07V316.503V320.304H1335.83V318.913C1335.48 319.427 1335.01 319.818 1334.41 320.084C1333.81 320.35 1333.15 320.483 1332.43 320.483C1331.5 320.483 1330.66 320.263 1329.9 319.822C1329.16 319.372 1328.57 318.766 1328.14 318.004C1327.72 317.242 1327.51 316.402 1327.51 315.484C1327.51 314.566 1327.72 313.725 1328.16 312.963C1328.59 312.201 1329.18 311.6 1329.93 311.159C1330.69 310.709 1331.55 310.484 1332.49 310.484C1333.21 310.484 1333.88 310.627 1334.5 310.911C1335.14 311.196 1335.68 311.586 1336.13 312.082C1336.58 312.578 1336.89 313.138 1337.07 313.762H1335.7C1335.47 313.165 1335.06 312.679 1334.46 312.302C1333.88 311.917 1333.22 311.724 1332.49 311.724C1331.78 311.724 1331.14 311.889 1330.57 312.22C1330.01 312.55 1329.56 313 1329.24 313.569C1328.93 314.139 1328.78 314.777 1328.78 315.484C1328.78 316.191 1328.93 316.833 1329.24 317.412C1329.56 317.99 1330.01 318.445 1330.57 318.775C1331.14 319.106 1331.78 319.271 1332.49 319.271C1333.09 319.271 1333.63 319.17 1334.12 318.968C1334.61 318.757 1335.01 318.454 1335.3 318.059C1335.61 317.655 1335.77 317.173 1335.8 316.613H1335.83V316.503H1332.69V315.332ZM1341.38 313.239C1342.17 313.239 1342.81 313.473 1343.31 313.941C1343.81 314.409 1344.06 315.048 1344.06 315.856V320.304H1342.88V319.588C1342.43 320.185 1341.74 320.483 1340.83 320.483C1340.39 320.483 1340 320.401 1339.63 320.235C1339.26 320.07 1338.97 319.822 1338.75 319.492C1338.53 319.152 1338.42 318.748 1338.42 318.28C1338.42 317.811 1338.53 317.412 1338.75 317.081C1338.97 316.742 1339.26 316.489 1339.63 316.324C1340 316.159 1340.39 316.076 1340.83 316.076C1341.27 316.076 1341.66 316.145 1342.01 316.283C1342.36 316.42 1342.65 316.618 1342.88 316.875V315.897C1342.88 315.383 1342.74 315.002 1342.45 314.754C1342.18 314.506 1341.82 314.382 1341.38 314.382C1340.95 314.382 1340.6 314.492 1340.32 314.712C1340.03 314.924 1339.89 315.227 1339.89 315.621H1338.71C1338.71 315.153 1338.82 314.74 1339.05 314.382C1339.28 314.024 1339.6 313.744 1340 313.542C1340.41 313.34 1340.87 313.239 1341.38 313.239ZM1341.17 319.464C1341.68 319.464 1342.08 319.354 1342.4 319.134C1342.72 318.913 1342.88 318.629 1342.88 318.28C1342.88 317.912 1342.72 317.623 1342.4 317.412C1342.08 317.192 1341.68 317.081 1341.17 317.081C1340.66 317.081 1340.27 317.192 1340 317.412C1339.74 317.632 1339.61 317.922 1339.61 318.28C1339.61 318.638 1339.74 318.927 1340 319.147C1340.27 319.358 1340.66 319.464 1341.17 319.464ZM1352.48 313.239C1353.1 313.239 1353.62 313.455 1354.02 313.886C1354.43 314.308 1354.64 314.901 1354.64 315.663V320.304H1353.44V315.704C1353.44 315.254 1353.33 314.924 1353.1 314.712C1352.88 314.492 1352.59 314.382 1352.24 314.382C1351.87 314.382 1351.53 314.52 1351.22 314.795C1350.93 315.061 1350.78 315.498 1350.78 316.104V320.304H1349.59V315.704C1349.59 315.254 1349.47 314.924 1349.24 314.712C1349.01 314.492 1348.72 314.382 1348.37 314.382C1348 314.382 1347.66 314.52 1347.35 314.795C1347.06 315.061 1346.91 315.498 1346.91 316.104V320.304H1345.72V313.418H1346.91V314.175C1347.34 313.551 1347.93 313.239 1348.7 313.239C1349.08 313.239 1349.42 313.335 1349.74 313.528C1350.05 313.712 1350.3 313.978 1350.48 314.327C1350.94 313.601 1351.61 313.239 1352.48 313.239ZM1357.13 317.412C1357.23 318.036 1357.49 318.523 1357.91 318.872C1358.34 319.221 1358.87 319.395 1359.5 319.395C1359.92 319.395 1360.29 319.303 1360.63 319.12C1360.96 318.927 1361.21 318.684 1361.36 318.39H1362.61C1362.41 319.023 1362.03 319.533 1361.47 319.919C1360.91 320.295 1360.24 320.483 1359.48 320.483C1358.77 320.483 1358.15 320.327 1357.61 320.015C1357.07 319.703 1356.64 319.271 1356.34 318.72C1356.05 318.169 1355.9 317.55 1355.9 316.861C1355.9 316.182 1356.05 315.566 1356.34 315.015C1356.64 314.465 1357.07 314.033 1357.61 313.721C1358.15 313.399 1358.77 313.239 1359.47 313.239C1360.14 313.239 1360.73 313.404 1361.24 313.735C1361.76 314.065 1362.15 314.51 1362.43 315.071C1362.7 315.621 1362.84 316.223 1362.84 316.875C1362.84 317.049 1362.83 317.228 1362.8 317.412H1357.13ZM1361.62 316.351C1361.53 315.709 1361.29 315.217 1360.89 314.878C1360.48 314.538 1360.01 314.368 1359.45 314.368C1358.82 314.368 1358.3 314.547 1357.88 314.905C1357.48 315.263 1357.23 315.745 1357.13 316.351H1361.62ZM1365.15 315.291C1365.15 315.594 1365.28 315.819 1365.53 315.966C1365.8 316.104 1366.2 316.237 1366.74 316.365C1367.24 316.494 1367.64 316.622 1367.96 316.751C1368.27 316.87 1368.53 317.068 1368.75 317.343C1368.98 317.609 1369.09 317.972 1369.09 318.431C1369.09 319.046 1368.84 319.542 1368.34 319.919C1367.86 320.295 1367.23 320.483 1366.45 320.483C1365.68 320.483 1365.05 320.286 1364.57 319.891C1364.08 319.487 1363.84 318.936 1363.84 318.238H1365.02C1365.02 318.624 1365.15 318.909 1365.41 319.092C1365.67 319.276 1366.02 319.368 1366.45 319.368C1366.88 319.368 1367.22 319.29 1367.49 319.134C1367.75 318.977 1367.89 318.743 1367.89 318.431C1367.89 318.22 1367.82 318.05 1367.68 317.922C1367.54 317.784 1367.37 317.678 1367.16 317.605C1366.95 317.531 1366.66 317.444 1366.29 317.343C1365.79 317.215 1365.39 317.091 1365.08 316.971C1364.77 316.843 1364.5 316.645 1364.28 316.379C1364.06 316.104 1363.95 315.741 1363.95 315.291C1363.95 314.887 1364.06 314.529 1364.28 314.217C1364.5 313.904 1364.8 313.666 1365.17 313.5C1365.56 313.326 1365.99 313.239 1366.45 313.239C1367.17 313.239 1367.76 313.441 1368.23 313.845C1368.71 314.249 1368.95 314.795 1368.95 315.484H1367.76C1367.76 315.098 1367.63 314.813 1367.38 314.63C1367.13 314.446 1366.82 314.354 1366.45 314.354C1366.09 314.354 1365.78 314.437 1365.52 314.602C1365.27 314.758 1365.15 314.988 1365.15 315.291ZM1283.8 337.304H1282.53V329.771L1279.84 335.679H1278.74L1276.06 329.771V337.304H1274.78V327.663H1276.06H1276.31L1279.29 334.219L1282.27 327.663H1283.8V337.304ZM1288.31 330.239C1289.1 330.239 1289.74 330.473 1290.24 330.941C1290.74 331.409 1291 332.048 1291 332.856V337.304H1289.81V336.588C1289.36 337.185 1288.68 337.483 1287.76 337.483C1287.33 337.483 1286.93 337.401 1286.56 337.235C1286.19 337.07 1285.9 336.822 1285.68 336.492C1285.46 336.152 1285.35 335.748 1285.35 335.28C1285.35 334.811 1285.46 334.412 1285.68 334.081C1285.9 333.742 1286.19 333.489 1286.56 333.324C1286.93 333.159 1287.33 333.076 1287.76 333.076C1288.2 333.076 1288.6 333.145 1288.94 333.283C1289.29 333.42 1289.58 333.618 1289.81 333.875V332.897C1289.81 332.383 1289.67 332.002 1289.38 331.754C1289.11 331.506 1288.75 331.382 1288.31 331.382C1287.89 331.382 1287.53 331.492 1287.25 331.712C1286.97 331.924 1286.82 332.227 1286.82 332.621H1285.64C1285.64 332.153 1285.75 331.74 1285.98 331.382C1286.21 331.024 1286.53 330.744 1286.93 330.542C1287.35 330.34 1287.81 330.239 1288.31 330.239ZM1288.1 336.464C1288.61 336.464 1289.02 336.354 1289.33 336.134C1289.65 335.913 1289.81 335.629 1289.81 335.28C1289.81 334.912 1289.65 334.623 1289.33 334.412C1289.02 334.192 1288.61 334.081 1288.1 334.081C1287.59 334.081 1287.2 334.192 1286.93 334.412C1286.68 334.632 1286.55 334.922 1286.55 335.28C1286.55 335.638 1286.68 335.927 1286.93 336.147C1287.2 336.358 1287.59 336.464 1288.1 336.464ZM1293.85 331.451C1294.28 330.68 1294.97 330.294 1295.93 330.294V331.547C1295.35 331.52 1294.86 331.676 1294.45 332.015C1294.05 332.346 1293.85 332.879 1293.85 333.613V337.304H1292.65V330.418H1293.85V331.451ZM1301.38 337.304L1298.29 334.054V337.304H1297.09V327.663H1298.29V333.475L1301.25 330.418H1302.75L1299.48 333.751L1302.89 337.304H1301.38ZM1304.23 334.412C1304.34 335.036 1304.6 335.523 1305.02 335.872C1305.45 336.221 1305.98 336.395 1306.6 336.395C1307.03 336.395 1307.4 336.303 1307.73 336.12C1308.07 335.927 1308.32 335.684 1308.46 335.39H1309.72C1309.51 336.023 1309.13 336.533 1308.57 336.919C1308.01 337.295 1307.35 337.483 1306.59 337.483C1305.88 337.483 1305.26 337.327 1304.72 337.015C1304.18 336.703 1303.75 336.271 1303.45 335.72C1303.16 335.169 1303.01 334.55 1303.01 333.861C1303.01 333.182 1303.16 332.566 1303.45 332.015C1303.75 331.465 1304.18 331.033 1304.72 330.721C1305.26 330.399 1305.88 330.239 1306.58 330.239C1307.25 330.239 1307.84 330.404 1308.35 330.735C1308.87 331.065 1309.26 331.51 1309.54 332.071C1309.81 332.621 1309.95 333.223 1309.95 333.875C1309.95 334.049 1309.94 334.228 1309.91 334.412H1304.23ZM1308.72 333.351C1308.64 332.709 1308.4 332.217 1307.99 331.878C1307.59 331.538 1307.11 331.368 1306.56 331.368C1305.93 331.368 1305.41 331.547 1304.99 331.905C1304.59 332.263 1304.34 332.745 1304.23 333.351H1308.72ZM1314.46 331.575H1313.11V337.304H1311.91V331.575H1310.55V330.418H1311.91V328.214H1313.11V330.418H1314.46V331.575ZM1319.42 330.239C1320.06 330.239 1320.64 330.399 1321.17 330.721C1321.7 331.042 1322.13 331.478 1322.44 332.029C1322.75 332.58 1322.91 333.191 1322.91 333.861C1322.91 334.531 1322.75 335.142 1322.44 335.693C1322.13 336.244 1321.7 336.68 1321.17 337.001C1320.64 337.323 1320.06 337.483 1319.42 337.483C1318.85 337.483 1318.35 337.364 1317.91 337.125C1317.47 336.886 1317.1 336.556 1316.82 336.134V340.059H1315.62V330.418H1316.82V331.589C1317.1 331.166 1317.47 330.836 1317.91 330.597C1318.35 330.358 1318.85 330.239 1319.42 330.239ZM1319.27 336.326C1319.72 336.326 1320.13 336.221 1320.5 336.01C1320.87 335.789 1321.17 335.491 1321.38 335.114C1321.6 334.738 1321.71 334.32 1321.71 333.861C1321.71 333.402 1321.6 332.984 1321.38 332.608C1321.17 332.231 1320.87 331.937 1320.5 331.726C1320.13 331.506 1319.72 331.396 1319.27 331.396C1318.81 331.396 1318.39 331.506 1318.02 331.726C1317.65 331.937 1317.36 332.231 1317.14 332.608C1316.92 332.984 1316.82 333.402 1316.82 333.861C1316.82 334.32 1316.92 334.738 1317.14 335.114C1317.36 335.491 1317.65 335.789 1318.02 336.01C1318.39 336.221 1318.81 336.326 1319.27 336.326ZM1324.34 327.388H1325.53V337.304H1324.34V327.388ZM1329.94 330.239C1330.73 330.239 1331.37 330.473 1331.87 330.941C1332.37 331.409 1332.62 332.048 1332.62 332.856V337.304H1331.44V336.588C1330.99 337.185 1330.31 337.483 1329.39 337.483C1328.96 337.483 1328.56 337.401 1328.19 337.235C1327.82 337.07 1327.53 336.822 1327.31 336.492C1327.09 336.152 1326.98 335.748 1326.98 335.28C1326.98 334.811 1327.09 334.412 1327.31 334.081C1327.53 333.742 1327.82 333.489 1328.19 333.324C1328.56 333.159 1328.96 333.076 1329.39 333.076C1329.83 333.076 1330.22 333.145 1330.57 333.283C1330.92 333.42 1331.21 333.618 1331.44 333.875V332.897C1331.44 332.383 1331.3 332.002 1331.01 331.754C1330.74 331.506 1330.38 331.382 1329.94 331.382C1329.52 331.382 1329.16 331.492 1328.88 331.712C1328.59 331.924 1328.45 332.227 1328.45 332.621H1327.27C1327.27 332.153 1327.38 331.74 1327.61 331.382C1327.84 331.024 1328.16 330.744 1328.56 330.542C1328.97 330.34 1329.43 330.239 1329.94 330.239ZM1329.73 336.464C1330.24 336.464 1330.65 336.354 1330.96 336.134C1331.28 335.913 1331.44 335.629 1331.44 335.28C1331.44 334.912 1331.28 334.623 1330.96 334.412C1330.65 334.192 1330.24 334.081 1329.73 334.081C1329.22 334.081 1328.83 334.192 1328.56 334.412C1328.3 334.632 1328.18 334.922 1328.18 335.28C1328.18 335.638 1328.3 335.927 1328.56 336.147C1328.83 336.358 1329.22 336.464 1329.73 336.464ZM1340.86 334.99C1340.68 335.725 1340.27 336.326 1339.65 336.795C1339.03 337.254 1338.32 337.483 1337.51 337.483C1336.83 337.483 1336.22 337.327 1335.67 337.015C1335.12 336.694 1334.68 336.257 1334.36 335.707C1334.05 335.146 1333.89 334.531 1333.89 333.861C1333.89 333.191 1334.05 332.58 1334.36 332.029C1334.68 331.469 1335.12 331.033 1335.67 330.721C1336.22 330.399 1336.83 330.239 1337.51 330.239C1338.32 330.239 1339.03 330.468 1339.65 330.927C1340.27 331.387 1340.68 331.983 1340.86 332.718H1339.59C1339.44 332.323 1339.17 332.006 1338.79 331.768C1338.42 331.529 1337.99 331.409 1337.51 331.409C1337.06 331.409 1336.65 331.52 1336.29 331.74C1335.92 331.951 1335.63 332.245 1335.41 332.621C1335.19 332.989 1335.09 333.402 1335.09 333.861C1335.09 334.311 1335.19 334.724 1335.41 335.101C1335.63 335.468 1335.92 335.762 1336.29 335.982C1336.65 336.193 1337.06 336.299 1337.51 336.299C1337.99 336.299 1338.42 336.179 1338.79 335.941C1339.17 335.702 1339.44 335.385 1339.59 334.99H1340.86ZM1342.98 334.412C1343.09 335.036 1343.35 335.523 1343.77 335.872C1344.2 336.221 1344.73 336.395 1345.35 336.395C1345.78 336.395 1346.15 336.303 1346.48 336.12C1346.82 335.927 1347.07 335.684 1347.21 335.39H1348.47C1348.26 336.023 1347.88 336.533 1347.32 336.919C1346.76 337.295 1346.1 337.483 1345.34 337.483C1344.63 337.483 1344.01 337.327 1343.47 337.015C1342.92 336.703 1342.5 336.271 1342.2 335.72C1341.91 335.169 1341.76 334.55 1341.76 333.861C1341.76 333.182 1341.91 332.566 1342.2 332.015C1342.5 331.465 1342.92 331.033 1343.47 330.721C1344.01 330.399 1344.63 330.239 1345.33 330.239C1346 330.239 1346.59 330.404 1347.1 330.735C1347.62 331.065 1348.01 331.51 1348.29 332.071C1348.56 332.621 1348.7 333.223 1348.7 333.875C1348.7 334.049 1348.69 334.228 1348.66 334.412H1342.98ZM1347.47 333.351C1347.39 332.709 1347.15 332.217 1346.74 331.878C1346.34 331.538 1345.86 331.368 1345.31 331.368C1344.68 331.368 1344.15 331.547 1343.74 331.905C1343.34 332.263 1343.09 332.745 1342.98 333.351H1347.47Z" fill="white"/>
<line x1="292.033" y1="318.359" x2="387.581" y2="374.311" stroke="white" stroke-width="4.30398"/>
<line x1="845.525" y1="317.498" x2="941.073" y2="373.45" stroke="white" stroke-width="4.30398"/>
<line y1="-2.15199" x2="110.725" y2="-2.15199" transform="matrix(-0.862932 0.50532 0.50532 0.862932 664.531 320.216)" stroke="white" stroke-width="4.30398"/>
<line y1="-2.15199" x2="110.725" y2="-2.15199" transform="matrix(-0.862932 0.50532 0.50532 0.862932 1220.61 320.216)" stroke="white" stroke-width="4.30398"/>
<line x1="1310.56" y1="371.003" x2="1310.56" y2="478.602" stroke="white" stroke-opacity="0.1" stroke-width="4.30398"/>
<defs>
<filter id="filter0_d_3007_25685" x="29.9444" y="84.9716" width="341.31" height="370.142" filterUnits="userSpaceOnUse" color-interpolation-filters="sRGB">
<feFlood flood-opacity="0" result="BackgroundImageFix"/>
<feColorMatrix in="SourceAlpha" type="matrix" values="0 0 0 0 0 0 0 0 0 0 0 0 0 0 0 0 0 0 127 0" result="hardAlpha"/>
<feOffset dy="3.44318"/>
<feGaussianBlur stdDeviation="38.7358"/>
<feComposite in2="hardAlpha" operator="out"/>
<feColorMatrix type="matrix" values="0 0 0 0 1 0 0 0 0 0.451667 0 0 0 0 0.550367 0 0 0 1 0"/>
<feBlend mode="normal" in2="BackgroundImageFix" result="effect1_dropShadow_3007_25685"/>
<feBlend mode="normal" in="SourceGraphic" in2="effect1_dropShadow_3007_25685" result="shape"/>
</filter>
<filter id="filter1_d_3007_25685" x="307.085" y="244.327" width="341.31" height="370.142" filterUnits="userSpaceOnUse" color-interpolation-filters="sRGB">
<feFlood flood-opacity="0" result="BackgroundImageFix"/>
<feColorMatrix in="SourceAlpha" type="matrix" values="0 0 0 0 0 0 0 0 0 0 0 0 0 0 0 0 0 0 127 0" result="hardAlpha"/>
<feOffset dy="3.44318"/>
<feGaussianBlur stdDeviation="38.7358"/>
<feComposite in2="hardAlpha" operator="out"/>
<feColorMatrix type="matrix" values="0 0 0 0 1 0 0 0 0 0.451667 0 0 0 0 0.550367 0 0 0 1 0"/>
<feBlend mode="normal" in2="BackgroundImageFix" result="effect1_dropShadow_3007_25685"/>
<feBlend mode="normal" in="SourceGraphic" in2="effect1_dropShadow_3007_25685" result="shape"/>
</filter>
<filter id="filter2_d_3007_25685" x="861.437" y="245.327" width="341.31" height="370.142" filterUnits="userSpaceOnUse" color-interpolation-filters="sRGB">
<feFlood flood-opacity="0" result="BackgroundImageFix"/>
<feColorMatrix in="SourceAlpha" type="matrix" values="0 0 0 0 0 0 0 0 0 0 0 0 0 0 0 0 0 0 127 0" result="hardAlpha"/>
<feOffset dy="3.44318"/>
<feGaussianBlur stdDeviation="38.7358"/>
<feComposite in2="hardAlpha" operator="out"/>
<feColorMatrix type="matrix" values="0 0 0 0 1 0 0 0 0 0.451667 0 0 0 0 0.550367 0 0 0 1 0"/>
<feBlend mode="normal" in2="BackgroundImageFix" result="effect1_dropShadow_3007_25685"/>
<feBlend mode="normal" in="SourceGraphic" in2="effect1_dropShadow_3007_25685" result="shape"/>
</filter>
<filter id="filter3_d_3007_25685" x="1140.34" y="85.2187" width="341.31" height="370.142" filterUnits="userSpaceOnUse" color-interpolation-filters="sRGB">
<feFlood flood-opacity="0" result="BackgroundImageFix"/>
<feColorMatrix in="SourceAlpha" type="matrix" values="0 0 0 0 0 0 0 0 0 0 0 0 0 0 0 0 0 0 127 0" result="hardAlpha"/>
<feOffset dy="3.44318"/>
<feGaussianBlur stdDeviation="38.7358"/>
<feComposite in2="hardAlpha" operator="out"/>
<feColorMatrix type="matrix" values="0 0 0 0 1 0 0 0 0 0.451667 0 0 0 0 0.550367 0 0 0 1 0"/>
<feBlend mode="normal" in2="BackgroundImageFix" result="effect1_dropShadow_3007_25685"/>
<feBlend mode="normal" in="SourceGraphic" in2="effect1_dropShadow_3007_25685" result="shape"/>
</filter>
<filter id="filter4_d_3007_25685" x="584.265" y="85.2187" width="341.31" height="370.142" filterUnits="userSpaceOnUse" color-interpolation-filters="sRGB">
<feFlood flood-opacity="0" result="BackgroundImageFix"/>
<feColorMatrix in="SourceAlpha" type="matrix" values="0 0 0 0 0 0 0 0 0 0 0 0 0 0 0 0 0 0 127 0" result="hardAlpha"/>
<feOffset dy="3.44318"/>
<feGaussianBlur stdDeviation="38.7358"/>
<feComposite in2="hardAlpha" operator="out"/>
<feColorMatrix type="matrix" values="0 0 0 0 1 0 0 0 0 0.451667 0 0 0 0 0.550367 0 0 0 1 0"/>
<feBlend mode="normal" in2="BackgroundImageFix" result="effect1_dropShadow_3007_25685"/>
<feBlend mode="normal" in="SourceGraphic" in2="effect1_dropShadow_3007_25685" result="shape"/>
</filter>
<linearGradient id="paint0_linear_3007_25685" x1="286.212" y1="215.199" x2="293.529" y2="-13.3423" gradientUnits="userSpaceOnUse">
<stop stop-color="white"/>
<stop offset="1" stop-color="white" stop-opacity="0"/>
</linearGradient>
<linearGradient id="paint1_linear_3007_25685" x1="1396.28" y1="215.199" x2="1403.6" y2="-13.3423" gradientUnits="userSpaceOnUse">
<stop stop-color="white"/>
<stop offset="1" stop-color="white" stop-opacity="0"/>
</linearGradient>
<linearGradient id="paint2_linear_3007_25685" x1="837.986" y1="215.199" x2="845.303" y2="-13.3423" gradientUnits="userSpaceOnUse">
<stop stop-color="white"/>
<stop offset="1" stop-color="white" stop-opacity="0"/>
</linearGradient>
<linearGradient id="paint3_linear_3007_25685" x1="378.486" y1="477.02" x2="385.803" y2="705.561" gradientUnits="userSpaceOnUse">
<stop stop-color="white"/>
<stop offset="1" stop-color="white" stop-opacity="0"/>
</linearGradient>
<linearGradient id="paint4_linear_3007_25685" x1="100.283" y1="315.051" x2="107.599" y2="543.592" gradientUnits="userSpaceOnUse">
<stop stop-color="white"/>
<stop offset="1" stop-color="white" stop-opacity="0"/>
</linearGradient>
</defs>
</svg>
