<svg width="801" height="304" viewBox="0 0 801 304" fill="none" xmlns="http://www.w3.org/2000/svg">
<path d="M297.074 158.56L292.712 162.123L277.074 45.1766L281.437 41.6128L297.074 158.56Z" fill="#85888A"/>
<path d="M316.094 276.034L311.699 279.622L272.094 160.692L276.488 157.103L316.094 276.034Z" fill="#85888A"/>
<path d="M337.117 272.584L332.815 276.497L311.117 278.61L315.419 274.697L337.117 272.584Z" fill="#85888A"/>
<path d="M267.074 279.066L262.77 282.642L232.074 49.2143L236.378 45.6382L267.074 279.066Z" fill="#85888A"/>
<path d="M292.117 276.611L287.736 280.374L263.117 282.637L267.499 278.874L292.117 276.611Z" fill="#85888A"/>
<path d="M305.229 39.6118L336.07 272.516L314.259 274.442L275.282 156.19L291.212 276.479L266.912 278.625L236.07 45.7208L257.875 43.7941L296.431 158.848L280.929 41.7578L305.229 39.6118Z" fill="#F2F2F2"/>
<path d="M196.078 72.7637L191.746 76.4485L177.078 77.7849L181.41 74.1002L196.078 72.7637Z" fill="#85888A"/>
<path d="M227.094 163.139L222.521 166.351C220.733 167.608 218.257 168.546 215.094 169.165L219.667 165.953C222.828 165.334 225.304 164.396 227.094 163.139Z" fill="#858585"/>
<path d="M207.078 154.559L202.802 158.122L192.078 76.3243L196.355 72.7607L207.078 154.559Z" fill="#85888A"/>
<path d="M210.098 178.208L205.766 181.892L191.098 183.229L195.43 179.544L210.098 178.208Z" fill="#85888A"/>
<path d="M248.117 281.641L243.783 285.385L219.117 287.667L223.451 283.923L248.117 281.641Z" fill="#85888A"/>
<path d="M224.098 284.079L219.598 287.668L205.098 181.794L209.597 178.205L224.098 284.079Z" fill="#85888A"/>
<path d="M184.074 287.116L179.773 290.692L149.074 57.2636L153.379 53.6875L184.074 287.116Z" fill="#85888A"/>
<path d="M229.616 157.458C228.876 159.42 227.633 161.15 226.016 162.473C224.32 163.92 221.933 164.994 218.854 165.696C225.45 166.196 229.66 168.147 231.484 171.549C233.23 174.726 234.388 178.197 234.899 181.791L248.074 281.004L223.367 283.199L209.403 177.863L194.713 179.165L208.695 284.479L184.013 286.674L153.074 53.6071L196.821 49.7552C202.445 49.2675 207.507 50.8721 212.005 54.5691C216.503 58.2662 219.121 62.8997 219.857 68.4696L230.14 145.932C230.378 147.801 230.522 149.681 230.572 151.565C230.635 153.573 230.311 155.575 229.616 157.458ZM206.344 154.817L195.466 72.8775L180.765 74.1798L191.665 156.119L206.355 154.828" fill="#F2F2F2"/>
<path d="M209.117 284.66L204.779 288.404L180.117 290.686L184.448 286.942L209.117 284.66Z" fill="#85888A"/>
<path d="M113.082 79.8086L108.75 83.4934L94.082 84.8299L98.4139 81.1451L113.082 79.8086Z" fill="#85888A"/>
<path d="M73.3731 81.2542L69.276 84.8343C68.5531 79.0581 69.8113 73.9618 73.0505 69.5453C73.9125 68.3576 74.8954 67.2762 75.981 66.3209L80.0781 62.7407C78.9925 63.696 78.0096 64.7775 77.1477 65.9651C73.9176 70.3816 72.6594 75.478 73.3731 81.2542Z" fill="#858585"/>
<path d="M124.082 161.604L119.806 165.167L109.082 83.3692L113.359 79.8057L124.082 161.604Z" fill="#85888A"/>
<path d="M127.102 185.252L122.77 188.937L108.102 190.274L112.433 186.585L127.102 185.252Z" fill="#85888A"/>
<path d="M141.102 291.124L136.839 294.713L123.102 188.839L127.364 185.25L141.102 291.124Z" fill="#85888A"/>
<path d="M166.117 288.685L161.783 292.428L137.117 294.711L141.451 290.967L166.117 288.685Z" fill="#85888A"/>
<path d="M102.082 294.164L97.6791 297.736L69.082 85.3933L73.485 81.8213L102.082 294.164Z" fill="#85888A"/>
<path d="M127.121 291.706L122.786 295.449L98.1211 297.731L102.456 293.988L127.121 291.706Z" fill="#85888A"/>
<path d="M129.185 61.6207C133.548 65.1247 136.37 70.2274 137.038 75.8225L165.078 288.074L140.491 290.25L126.596 184.922L111.978 186.217L125.909 291.542L101.323 293.719L73.2866 81.4637C72.5249 75.703 73.8506 70.6203 77.2638 66.2156C80.6771 61.8109 85.1774 59.361 90.7648 58.8659L114.09 56.8026C119.677 56.3051 124.709 57.9111 129.185 61.6207ZM123.552 161.86L112.727 79.9125L98.1083 81.2076L108.934 163.155L123.552 161.864" fill="#F2F2F2"/>
<path d="M60.082 83.8379L55.6792 87.4458L28.082 89.8634L32.4849 86.2555L60.082 83.8379Z" fill="#85888A"/>
<path d="M70.1016 190.287L65.6273 194.143L42.1016 196.312L46.5759 192.456L70.1016 190.287Z" fill="#85888A"/>
<path d="M87.1211 295.735L82.7995 299.259L31.1211 303.769L35.4427 300.245L87.1211 295.735Z" fill="#85888A"/>
<path d="M35.0781 300.183L30.7739 303.775L0.078125 69.3575L4.38238 65.7661L35.0781 300.183Z" fill="#85888A"/>
<path d="M56.071 61.7485L59.0971 84.5142L31.8443 86.9106L42.7505 169L65.6117 166.988L68.6778 190.073L45.8166 192.084L56.803 274.815L84.0557 272.415L87.0781 295.18L35.0852 299.757L4.07812 66.3251L56.071 61.7485Z" fill="#F2F2F2"/>
<path d="M750.07 23.4512L745.591 26.4327L731.07 27.4683L735.55 24.4868L750.07 23.4512Z" fill="#85888A"/>
<path d="M757.07 76.1265L752.484 79.687L745.07 27.0092L749.657 23.4487L757.07 76.1265Z" fill="#85888A"/>
<path d="M782.078 74.6646L777.594 78.408L752.078 80.6902L756.562 76.9467L782.078 74.6646Z" fill="#85888A"/>
<path d="M709.917 23.9088L705.372 27.4737C704.421 20.6555 705.689 15.5419 709.178 12.1329C709.604 11.7171 710.053 11.3233 710.522 10.9531L715.066 7.38818C714.597 7.75932 714.147 8.15308 713.719 8.56796C710.22 11.977 708.951 17.0906 709.913 23.9088" fill="#858585"/>
<path d="M717.07 81.1784L712.759 84.7156L705.07 26.9933L709.382 23.4561L717.07 81.1784Z" fill="#85888A"/>
<path d="M723.082 96.1914L718.627 99.7781C716.5 96.9227 715.142 94.4384 714.522 92.3217C713.87 90.0145 713.389 87.6637 713.082 85.2879L717.537 81.7012C717.844 84.077 718.325 86.4278 718.978 88.735C719.589 90.8517 720.948 93.336 723.082 96.1914Z" fill="#858585"/>
<path d="M763.082 149.443L758.669 153.002L718.082 100.324L722.496 96.7642L763.082 149.443Z" fill="#85888A"/>
<path d="M767.094 158.339L762.953 162.033C762.784 160.335 762.378 158.676 761.75 157.112C761.012 155.533 760.121 154.045 759.094 152.672L763.234 148.978C764.262 150.35 765.152 151.839 765.891 153.418C766.517 154.982 766.923 156.641 767.094 158.339Z" fill="#858585"/>
<path d="M775.094 210.693L770.507 214.253L763.094 161.576L767.68 158.015L775.094 210.693Z" fill="#85888A"/>
<path d="M794.109 229.315L789.786 232.727C786.505 235.314 781.946 236.855 776.109 237.349L780.433 233.937C786.265 233.443 790.824 231.902 794.109 229.315Z" fill="#858585"/>
<path d="M781.106 233.336L776.643 236.647L755.105 238.357L759.568 235.046L781.106 233.336Z" fill="#85888A"/>
<path d="M736.094 218.685L731.673 222.295L724.094 165.65L728.515 162.04L736.094 218.685Z" fill="#85888A"/>
<path d="M749.492 0.510766C756.243 -0.0740713 761.731 1.01397 765.958 3.77489C770.184 6.53581 772.752 11.329 773.66 18.1546L781.201 74.1309L756.174 76.3057L749.054 23.5241L734.798 24.7632L741.907 77.5412C742.103 79.2451 742.602 80.9011 743.381 82.4319C744.156 83.8748 745.038 85.2579 746.022 86.5696L784.137 136.332C785.452 137.854 786.636 139.482 787.677 141.201C788.49 142.605 789.221 144.055 789.865 145.543C790.532 147.171 791.026 148.864 791.338 150.595C791.707 152.503 792.075 154.849 792.443 157.616L799.766 211.992C800.687 218.815 799.46 223.932 796.083 227.344C792.706 230.755 787.631 232.764 780.858 233.371L759.629 235.199C752.871 235.786 747.382 234.698 743.163 231.935C738.944 229.171 736.376 224.379 735.457 217.559L727.917 161.579L752.966 159.407L760.075 212.185L774.331 210.95L767.221 158.168C767.04 156.529 766.609 154.927 765.943 153.417C765.159 151.892 764.213 150.455 763.121 149.129L722.675 96.3364C720.575 93.4963 719.234 91.0253 718.623 88.9199C717.979 86.6251 717.504 84.2869 717.201 81.9238L709.359 23.7069C708.438 16.8838 709.665 11.7664 713.042 8.3549C716.419 4.94334 721.493 2.94515 728.263 2.36031L749.492 0.510766Z" fill="#F2F2F2"/>
<path d="M759.106 235.692L754.795 239.214C748.169 239.794 742.79 238.72 738.658 235.992C734.526 233.264 732.008 228.533 731.105 221.799L735.416 218.277C736.319 225.013 738.836 229.744 742.968 232.47C747.101 235.195 752.48 236.27 759.106 235.692Z" fill="#858585"/>
<path d="M697.07 27.481L692.67 31.0867L665.07 33.5065L669.474 29.9008L697.07 27.481Z" fill="#85888A"/>
<path d="M707.09 133.929L702.616 137.786L679.09 139.955L683.56 136.098L707.09 133.929Z" fill="#85888A"/>
<path d="M724.109 239.378L719.787 242.906L668.109 247.412L672.432 243.888L724.109 239.378Z" fill="#85888A"/>
<path d="M672.066 243.826L667.762 247.418L637.066 13.0005L641.371 9.40918L672.066 243.826Z" fill="#85888A"/>
<path d="M693.057 5.3916L696.079 28.1573L668.831 30.5574L679.735 112.643L702.602 110.631L705.668 133.716L682.801 135.727L693.792 218.458L721.044 216.058L724.066 238.824L672.076 243.4L641.066 9.96819L693.057 5.3916Z" fill="#F2F2F2"/>
<path d="M590.582 145.427L586.07 149.01L589.562 19.0275L594.07 15.4443L590.582 145.427Z" fill="#85888A"/>
<path d="M630.09 248.852L625.558 252.444L607.09 118.458L611.622 114.862L630.09 248.852Z" fill="#85888A"/>
<path d="M653.114 246.417L648.779 250.162L624.113 252.442L628.448 248.696L653.114 246.417Z" fill="#85888A"/>
<path d="M595.09 232.797L590.72 236.385L557.09 122.476L561.46 118.888L595.09 232.797Z" fill="#85888A"/>
<path d="M608.11 231.358L603.885 234.393L591.109 235.375L595.334 232.341L608.11 231.358Z" fill="#85888A"/>
<path d="M554.071 254.91L549.766 258.486L519.07 25.0586L523.371 21.4824L554.071 254.91Z" fill="#85888A"/>
<path d="M579.114 252.456L574.782 256.199L550.113 258.481L554.448 254.738L579.114 252.456Z" fill="#85888A"/>
<path d="M622.819 12.4434L654.07 245.76L629.135 247.935L611.276 114.612L608.376 231.268L595.123 232.425L561.402 118.966L579.257 252.29L554.322 254.469L523.07 21.1524L552.428 18.5888L590.073 144.672L593.461 15.007L622.819 12.4434Z" fill="#F2F2F2"/>
<path d="M482.074 47.603L477.742 51.2878L463.074 52.6243L467.407 48.9395L482.074 47.603Z" fill="#85888A"/>
<path d="M442.356 49.0491L438.269 52.6293C437.544 46.8506 438.802 41.7542 442.043 37.3402C442.905 36.1526 443.888 35.0711 444.974 34.1158L449.07 30.5356C447.985 31.491 447.002 32.5724 446.14 33.76C442.908 38.1765 441.65 43.2729 442.366 49.0491" fill="#858585"/>
<path d="M493.074 129.399L488.799 132.962L478.074 51.1642L482.35 47.6006L493.074 129.399Z" fill="#85888A"/>
<path d="M496.094 153.048L491.762 156.733L477.094 158.069L481.426 154.384L496.094 153.048Z" fill="#85888A"/>
<path d="M510.094 258.92L505.831 262.509L492.094 156.634L496.356 153.045L510.094 258.92Z" fill="#85888A"/>
<path d="M535.109 256.48L530.776 260.224L506.109 262.506L510.443 258.763L535.109 256.48Z" fill="#85888A"/>
<path d="M471.074 261.959L466.671 265.531L438.074 53.1883L442.478 49.6162L471.074 261.959Z" fill="#85888A"/>
<path d="M495.113 259.501L490.779 263.244L466.113 265.527L470.448 261.783L495.113 259.501Z" fill="#85888A"/>
<path d="M498.183 29.412C502.543 32.92 505.363 38.0226 506.035 43.6174L534.07 255.869L509.488 258.045L495.577 152.717L480.961 154.012L494.872 259.337L470.311 261.514L442.28 49.2586C441.516 43.4979 442.841 38.4152 446.256 34.0106C449.671 29.6059 454.171 27.156 459.755 26.6609L483.076 24.5976C488.67 24.1 493.706 25.7049 498.183 29.412ZM492.548 129.651L481.702 47.7038L467.09 48.9989L477.914 130.946L492.529 129.655" fill="#F2F2F2"/>
<path d="M400.079 54.6484L395.664 58.2949L380.078 59.6698L384.493 56.0233L400.079 54.6484Z" fill="#85888A"/>
<path d="M407.078 107.323L402.874 110.884L396.078 58.2062L400.282 54.6455L407.078 107.323Z" fill="#85888A"/>
<path d="M432.086 105.862L427.752 109.609L403.086 111.887L407.421 108.144L432.086 105.862Z" fill="#85888A"/>
<path d="M359.54 56.2055L355.321 59.6751C354.494 53.4492 355.744 48.1985 359.07 43.9231C359.889 42.8635 360.823 41.9 361.855 41.0507L366.074 37.5811C365.042 38.4303 364.108 39.3939 363.29 40.4535C359.961 44.7336 358.711 49.9843 359.54 56.2055Z" fill="#858585"/>
<path d="M408.094 160.607L403.404 164.109L400.094 141.501L404.784 137.998L408.094 160.607Z" fill="#85888A"/>
<path d="M413.098 160.091L408.876 163.595L403.098 164.108L407.316 160.605L413.098 160.091Z" fill="#85888A"/>
<path d="M424.098 242.878L419.844 246.456L409.098 163.669L413.351 160.09L424.098 242.878Z" fill="#85888A"/>
<path d="M444.118 260.512L439.683 264.07C436.521 266.607 432.332 268.099 427.117 268.546L431.552 264.989C436.767 264.544 440.955 263.052 444.118 260.512Z" fill="#858585"/>
<path d="M431.118 264.533L426.819 268.446L405.117 270.559L409.42 266.646L431.118 264.533Z" fill="#85888A"/>
<path d="M384.078 247.903L379.816 251.487L355.078 61.2501L359.343 57.666L384.078 247.903Z" fill="#85888A"/>
<path d="M400.146 31.6756C406.859 31.086 412.372 32.6526 416.686 36.3752C421 40.0979 423.586 45.1557 424.444 51.5485L431.631 105.269L406.781 107.462L399.722 54.695L384.304 56.0399L409.363 243.433L424.78 242.085L413.753 159.574L407.776 160.086L404.696 137.063L435.527 134.369L449.77 240.86C450.684 247.682 449.511 253.177 446.251 257.346C442.991 261.514 438.01 263.894 431.309 264.486L409.268 266.43C402.765 267.001 397.266 265.539 392.772 262.045C388.278 258.551 385.571 253.395 384.652 246.576L359.326 57.2751C358.47 50.8773 359.764 45.4797 363.207 41.0822C366.65 36.6846 371.622 34.1996 378.123 33.6271L400.146 31.6756Z" fill="#F2F2F2"/>
<path d="M410.114 266.789L405.743 270.441C399.235 271.025 393.733 269.528 389.235 265.951C384.738 262.374 382.031 257.095 381.113 250.113L385.48 246.461C386.395 253.446 389.104 258.725 393.606 262.3C398.108 265.874 403.611 267.371 410.114 266.789Z" fill="#858585"/>
</svg>
