<svg width="1240" height="410" viewBox="0 0 1240 410" fill="none" xmlns="http://www.w3.org/2000/svg">
<path d="M375.067 253.318L368.791 258.454L345.066 80.7196L351.342 75.5828L375.067 253.318Z" fill="#85888A"/>
<path d="M397.102 275.53L390.944 280.611C387.216 283.64 382.804 285.691 378.102 286.583L384.265 281.497C388.965 280.606 393.375 278.556 397.102 275.53Z" fill="#85888A"/>
<path d="M323.067 258.358L316.829 263.488L293.066 84.7422L299.309 79.6118L323.067 258.358Z" fill="#85888A"/>
<path d="M353.098 284.422L346.805 289.609C339.662 289.522 332.753 287.022 327.185 282.508C321.521 277.966 318.159 271.679 317.098 263.647L323.385 258.46C324.439 266.496 327.803 272.783 333.477 277.321C339.047 281.833 345.954 284.332 353.098 284.422Z" fill="#85888A"/>
<path d="M365.102 376.919L358.702 382.044L346.102 289.703L352.501 284.579L365.102 376.919Z" fill="#85888A"/>
<path d="M396.121 374.003L389.95 379.185L358.121 382.042L364.292 376.86L396.121 374.003Z" fill="#85888A"/>
<path d="M382.944 72.5775L406.755 251.419C407.803 259.372 406.174 266.035 401.867 271.407C397.561 276.779 391.828 280.195 384.668 281.654L396.985 374.172L364.723 377.029L352.406 284.505C345.305 284.416 338.438 281.942 332.901 277.477C327.271 272.978 323.927 266.755 322.869 258.809L299.063 79.9678L330.921 77.1695L354.565 254.801L374.735 253.028L351.07 75.3758L382.944 72.5775Z" fill="#F2F2F2"/>
<path d="M248.07 113.788L241.867 119.102L223.07 120.822L229.274 115.509L248.07 113.788Z" fill="#85888A"/>
<path d="M197.737 115.64L191.342 120.827C190.335 113.351 192.088 106.752 196.601 101.033C197.8 99.503 199.165 98.109 200.672 96.8764L207.066 91.6886C205.56 92.9211 204.194 94.3151 202.996 95.8452C198.476 101.565 196.723 108.163 197.737 115.64Z" fill="#85888A"/>
<path d="M262.071 219.171L255.898 224.311L242.07 118.925L248.242 113.784L262.071 219.171Z" fill="#85888A"/>
<path d="M266.098 248.426L259.894 253.735L241.098 255.46L247.301 250.151L266.098 248.426Z" fill="#85888A"/>
<path d="M284.094 383.951L277.907 389.094L260.094 253.566L266.28 248.423L284.094 383.951Z" fill="#85888A"/>
<path d="M316.121 381.052L309.884 386.254L278.121 389.09L284.358 383.887L316.121 381.052Z" fill="#85888A"/>
<path d="M233.071 388L226.896 393.126L191.07 120.93L197.245 115.804L233.071 388Z" fill="#85888A"/>
<path d="M265.121 385.081L258.884 390.283L227.121 393.119L233.358 387.916L265.121 385.081Z" fill="#85888A"/>
<path d="M269.68 89.9426C275.321 94.4412 278.972 100.997 279.839 108.187L316.063 380.836L284.268 383.634L266.292 248.341L247.375 250.003L265.345 385.302L233.55 388.1L197.331 115.451C196.348 108.051 198.06 101.521 202.466 95.8608C206.872 90.2003 212.698 87.0527 219.945 86.4179L250.125 83.7613C257.372 83.1266 263.89 85.187 269.68 89.9426ZM262.36 218.739L248.373 113.458L229.456 115.104L243.432 220.396L262.36 218.739Z" fill="#F2F2F2"/>
<path d="M215.125 389.115L208.887 394.352L144.125 400.168L150.363 394.932L215.125 389.115Z" fill="#85888A"/>
<path d="M150.071 395.059L143.829 400.175L104.07 101.845L110.312 96.7285L150.071 395.059Z" fill="#85888A"/>
<path d="M141.999 93.7133L178.039 363.233L211.176 360.336L215.071 389.462L150 395.15L110.07 96.5103L141.999 93.7133Z" fill="#F2F2F2"/>
<path d="M61.0742 129.899L54.871 135.209L36.0742 136.933L42.2775 131.624L61.0742 129.899Z" fill="#85888A"/>
<path d="M74.0744 235.284L67.9022 240.423L54.0742 135.036L60.2464 129.896L74.0744 235.284Z" fill="#85888A"/>
<path d="M99.0977 258.505L92.8447 263.448C89.1335 266.402 84.5511 268.103 79.0977 268.552L85.3506 263.61C90.7901 263.15 95.3724 261.449 99.0977 258.505Z" fill="#85888A"/>
<path d="M84.1016 263.534L77.9775 268.437L53.1016 270.567L59.2257 265.664L84.1016 263.534Z" fill="#85888A"/>
<path d="M46.0708 404.104L39.8294 409.238L0.070317 109.92L6.31171 104.787L46.0708 404.104Z" fill="#85888A"/>
<path d="M78.125 401.192L71.8892 406.394L40.125 409.23L46.3608 404.027L78.125 401.192Z" fill="#85888A"/>
<path d="M81.5942 106.037C87.5061 110.786 90.9525 116.862 91.9332 124.262L106.811 236.55C107.753 243.684 106.134 249.861 101.954 255.08C97.774 260.3 92.0689 263.228 84.8389 263.867L59.5391 266.098L77.4734 401.414L45.7469 404.213L6.07032 104.801L61.8864 99.8762C69.1129 99.2343 75.6822 101.288 81.5942 106.037ZM74.4895 234.824L60.5354 129.534L41.6622 131.202L55.6163 236.487L74.4895 234.824Z" fill="#F2F2F2"/>
<path d="M720.063 72.5035L713.859 77.8126L695.063 79.537L701.266 74.2279L720.063 72.5035Z" fill="#85888A"/>
<path d="M751.063 313.538L744.862 318.673L713.063 77.6353L719.263 72.4997L751.063 313.538Z" fill="#85888A"/>
<path d="M774.113 336.752L767.952 341.745C764.297 344.697 759.815 346.461 755.113 346.8L761.275 341.807C765.976 341.468 770.458 339.703 774.113 336.752Z" fill="#85888A"/>
<path d="M705.059 346.709L698.818 351.842L659.059 52.5242L665.3 47.3908L705.059 346.709Z" fill="#85888A"/>
<path d="M762.113 341.786L755.87 346.881L699.113 351.834L705.357 346.74L762.113 341.786Z" fill="#85888A"/>
<path d="M740.895 48.6996C746.535 53.1974 750.186 59.7525 751.055 66.9424L783.786 313.24C784.292 316.623 784.093 320.075 783.2 323.377C782.308 326.678 780.742 329.756 778.602 332.414C774.195 338.074 768.505 341.211 761.533 341.825L704.809 346.817L665.059 47.4634L721.783 42.4662C728.737 41.8665 735.108 43.9443 740.895 48.6996ZM751.599 313.182L719.599 72.2132L700.69 73.8964L732.69 314.86L751.599 313.198" fill="#F2F2F2"/>
<path d="M630.063 202.053L623.876 207.162L604.063 57.5291L610.249 52.4247L630.063 202.053Z" fill="#85888A"/>
<path d="M652.09 350.751L645.91 355.873L596.09 204.247L602.27 199.126L652.09 350.751Z" fill="#85888A"/>
<path d="M681.117 347.825L674.95 353.243L647.117 355.863L653.284 350.445L681.117 347.825Z" fill="#85888A"/>
<path d="M592.063 355.79L585.827 360.906L546.063 62.5758L552.304 57.4594L592.063 355.79Z" fill="#85888A"/>
<path d="M624.117 352.861L617.814 358.084L586.117 360.899L592.415 355.676L624.117 352.861Z" fill="#85888A"/>
<path d="M641.323 49.4201L681.059 348.031L652.91 350.508L602.633 198.888L623.156 353.121L591.789 355.881L552.059 57.2647L580.208 54.788L629.936 202.299L609.961 52.1749L641.323 49.4201Z" fill="#F2F2F2"/>
<path d="M500.066 91.6357L493.863 96.9448L475.066 98.6692L481.27 93.36L500.066 91.6357Z" fill="#85888A"/>
<path d="M449.733 93.4863L443.338 98.675C442.331 91.1932 444.084 84.5938 448.597 78.877C449.796 77.3483 451.161 75.9558 452.668 74.7249L459.063 69.5362C457.556 70.7671 456.191 72.1596 454.992 73.6882C450.479 79.4122 448.726 86.0115 449.733 93.4863Z" fill="#85888A"/>
<path d="M514.067 197.019L507.894 202.159L494.066 96.7718L500.239 91.6317L514.067 197.019Z" fill="#85888A"/>
<path d="M518.09 226.274L511.887 231.587L493.09 233.307L499.293 227.994L518.09 226.274Z" fill="#85888A"/>
<path d="M536.09 361.798L529.904 366.941L512.09 231.414L518.276 226.271L536.09 361.798Z" fill="#85888A"/>
<path d="M568.113 358.899L561.877 364.101L530.113 366.937L536.35 361.735L568.113 358.899Z" fill="#85888A"/>
<path d="M485.067 365.847L478.892 370.973L443.066 98.777L449.242 93.6511L485.067 365.847Z" fill="#85888A"/>
<path d="M517.117 362.928L510.881 368.13L479.117 370.966L485.353 365.764L517.117 362.928Z" fill="#85888A"/>
<path d="M521.676 67.7815C527.319 72.28 530.971 78.8362 531.84 86.0273L568.059 358.709L536.264 361.507L518.288 226.174L499.371 227.837L517.347 363.149L485.546 365.948L449.328 93.2718C448.345 85.8711 450.056 79.3403 454.462 73.6793C458.868 68.0182 464.694 64.8721 471.941 64.2407L502.126 61.6102C509.366 60.9718 515.883 63.0289 521.676 67.7815ZM514.356 196.58L500.369 91.299L481.452 92.9667L495.439 198.248L514.356 196.58Z" fill="#F2F2F2"/>
<path d="M1188.05 152.719L1181.86 157.823L1162.05 8.19025L1168.24 3.08585L1188.05 152.719Z" fill="#85888A"/>
<path d="M1210.08 301.412L1203.9 306.533L1154.08 154.908L1160.26 149.786L1210.08 301.412Z" fill="#85888A"/>
<path d="M1239.11 298.486L1232.94 303.904L1205.11 306.524L1211.27 301.106L1239.11 298.486Z" fill="#85888A"/>
<path d="M1150.05 306.451L1143.81 311.567L1104.05 13.237L1110.29 8.12058L1150.05 306.451Z" fill="#85888A"/>
<path d="M1182.11 303.521L1175.8 308.744L1144.11 311.559L1150.41 306.336L1182.11 303.521Z" fill="#85888A"/>
<path d="M1199.32 0.081226L1239.05 298.692L1210.9 301.169L1160.62 149.549L1181.14 303.782L1149.78 306.542L1110.05 7.9258L1138.19 5.45439L1187.93 152.965L1167.95 2.83601L1199.32 0.081226Z" fill="#F2F2F2"/>
<path d="M1058.06 42.2971L1051.85 47.6062L1033.06 49.3306L1039.26 44.0215L1058.06 42.2971Z" fill="#85888A"/>
<path d="M1096.08 156.834L1089.97 161.916C1087.83 163.691 1084.87 165.012 1081.08 165.877L1087.2 160.81C1090.98 159.943 1093.95 158.625 1096.08 156.849" fill="#85888A"/>
<path d="M1071.06 147.68L1064.89 152.82L1051.06 47.4331L1057.23 42.2933L1071.06 147.68Z" fill="#85888A"/>
<path d="M1075.09 176.935L1068.88 182.244L1050.09 183.968L1056.29 178.654L1075.09 176.935Z" fill="#85888A"/>
<path d="M1125.11 309.56L1118.87 314.763L1087.11 317.599L1093.35 312.396L1125.11 309.56Z" fill="#85888A"/>
<path d="M1093.09 312.459L1086.9 317.603L1069.09 182.075L1075.27 176.932L1093.09 312.459Z" fill="#85888A"/>
<path d="M1043.06 316.501L1036.81 321.634L997.055 22.3166L1003.29 17.1832L1043.06 316.501Z" fill="#85888A"/>
<path d="M1101.4 150.634C1100.44 153.153 1098.84 155.374 1096.77 157.073C1094.57 158.936 1091.51 160.316 1087.56 161.213C1096.04 161.855 1101.45 164.359 1103.79 168.726C1106.04 172.804 1107.52 177.261 1108.18 181.878L1125.06 309.35L1093.33 312.149L1075.39 176.848L1056.52 178.511L1074.45 313.811L1042.73 316.61L1003.05 17.2328L1059.27 12.2719C1066.5 11.6337 1073 13.6924 1078.78 18.4481C1084.56 23.2038 1087.92 29.1484 1088.86 36.2819L1102.05 135.804C1102.35 138.204 1102.54 140.619 1102.6 143.038C1102.69 145.625 1102.28 148.205 1101.4 150.634ZM1071.49 147.241L1057.54 41.9634L1038.67 43.6311L1052.62 148.903L1071.49 147.241Z" fill="#F2F2F2"/>
<path d="M1075.11 313.59L1068.87 318.792L1037.11 321.628L1043.35 316.425L1075.11 313.59Z" fill="#85888A"/>
<path d="M951.063 52.3646L944.859 57.6778L926.063 59.398L932.261 54.0848L951.063 52.3646Z" fill="#85888A"/>
<path d="M900.761 54.2153L894.334 59.404C893.327 51.9257 895.08 45.3263 899.593 39.606C900.79 38.076 902.156 36.6834 903.664 35.4539L910.059 30.2652C908.551 31.4946 907.185 32.8873 905.988 34.4172C901.468 40.1376 899.713 46.7369 900.724 54.2153" fill="#85888A"/>
<path d="M965.063 157.747L958.889 162.887L945.063 57.5007L951.236 52.3606L965.063 157.747Z" fill="#85888A"/>
<path d="M969.09 187.003L962.887 192.317L944.09 194.037L950.288 188.724L969.09 187.003Z" fill="#85888A"/>
<path d="M987.086 322.527L980.898 327.67L963.086 192.143L969.274 187L987.086 322.527Z" fill="#85888A"/>
<path d="M1019.11 319.629L1012.88 324.831L981.113 327.667L987.35 322.465L1019.11 319.629Z" fill="#85888A"/>
<path d="M936.063 326.576L929.888 331.702L894.063 59.5059L900.232 54.38L936.063 326.576Z" fill="#85888A"/>
<path d="M968.113 323.657L961.877 328.859L930.113 331.695L936.35 326.493L968.113 323.657Z" fill="#85888A"/>
<path d="M972.676 28.4963C978.321 32.9965 981.973 39.5547 982.839 46.7469L1019.06 319.411L987.244 322.216L969.266 186.907L950.337 188.569L968.32 323.878L936.513 326.677L900.324 54.0071C899.34 46.6065 901.054 40.0758 905.465 34.4149C909.876 28.754 915.703 25.6079 922.945 24.9766L953.141 22.3461C960.373 21.6867 966.885 23.7368 972.676 28.4963ZM965.354 157.292L951.362 52.0079L932.439 53.6704L946.425 158.955L965.349 157.287" fill="#F2F2F2"/>
<path d="M883.063 57.4042L876.859 62.43L842.063 65.4425L848.266 60.4166L883.063 57.4042Z" fill="#85888A"/>
<path d="M896.086 192.043L889.778 197.391L860.086 200.081L866.394 194.733L896.086 192.043Z" fill="#85888A"/>
<path d="M919.113 326.687L912.875 331.839L846.113 337.74L852.352 332.588L919.113 326.687Z" fill="#85888A"/>
<path d="M852.059 332.631L845.818 337.747L806.059 39.4171L812.299 34.3007L852.059 332.631Z" fill="#85888A"/>
<path d="M879.126 28.2709L883.021 57.3955L847.868 60.4647L861.91 165.462L891.409 162.881L895.356 192.414L865.857 194.991L880.008 300.812L915.161 297.737L919.055 326.856L851.984 332.722L812.055 34.1367L879.126 28.2709Z" fill="#F2F2F2"/>
</svg>
