<svg width="61" height="61" viewBox="0 0 61 61" fill="none" xmlns="http://www.w3.org/2000/svg">
<path d="M41.2908 21.0997C44.9048 26.5479 46.6896 32.6932 46.0224 39.768C46.0196 39.7979 46.0044 39.8254 45.9804 39.8434C43.2436 41.9039 40.592 43.1544 37.9776 43.9837C37.9572 43.99 37.9354 43.9897 37.9153 43.9827C37.8951 43.9757 37.8776 43.9624 37.8652 43.9447C37.2612 43.0831 36.7124 42.1746 36.2316 41.2207C36.204 41.1645 36.2292 41.0968 36.286 41.0746C37.1576 40.7379 37.9864 40.3344 38.7836 39.8566C38.8464 39.8188 38.8504 39.7266 38.7924 39.6823C38.6232 39.5535 38.4556 39.4181 38.2952 39.2828C38.2652 39.2578 38.2248 39.2529 38.1908 39.2697C33.0152 41.7202 27.3456 41.7202 22.1088 39.2697C22.0748 39.2541 22.0344 39.2594 22.0052 39.284C21.8452 39.4194 21.6772 39.5535 21.5096 39.6823C21.4516 39.7266 21.4564 39.8188 21.5196 39.8566C22.3168 40.3254 23.1456 40.7379 24.016 41.0763C24.0724 41.0985 24.0992 41.1645 24.0712 41.2207C23.6008 42.1759 23.052 43.0843 22.4368 43.946C22.41 43.9808 22.366 43.9968 22.3244 43.9837C19.7224 43.1544 17.0708 41.9039 14.334 39.8435C14.3112 39.8254 14.2948 39.7967 14.2924 39.7668C13.7348 33.6472 14.8712 27.451 19.0196 21.0985C19.0296 21.0817 19.0448 21.0685 19.0624 21.0608C21.1036 20.1002 23.2904 19.3936 25.576 18.99C25.6176 18.9834 25.6592 19.0031 25.6808 19.0409C25.9632 19.5535 26.286 20.211 26.5044 20.7482C28.9136 20.3709 31.3604 20.3709 33.82 20.7482C34.0384 20.2224 34.35 19.5535 34.6312 19.0408C34.6412 19.0221 34.6567 19.0071 34.6756 18.998C34.6944 18.9889 34.7155 18.9861 34.736 18.99C37.0228 19.3948 39.2096 20.1014 41.2492 21.0607C41.2672 21.0685 41.282 21.0816 41.2908 21.0997ZM27.7292 32.7351C27.7544 30.926 26.468 29.429 24.8532 29.429C23.2516 29.429 21.9776 30.9129 21.9776 32.7351C21.9776 34.5569 23.2768 36.0407 24.8532 36.0407C26.4552 36.0407 27.7292 34.5569 27.7292 32.7351ZM38.362 32.7351C38.3872 30.926 37.1008 29.429 35.4864 29.429C33.8844 29.429 32.6104 30.9129 32.6104 32.7351C32.6104 34.5569 33.9096 36.0407 35.4864 36.0407C37.1008 36.0407 38.362 34.5569 38.362 32.7351Z" fill="#F2F2F2"/>
</svg>
