<svg width="55" height="55" viewBox="0 0 55 55" fill="none" xmlns="http://www.w3.org/2000/svg">
<g clip-path="url(#clip0_1617_10430)">
<path d="M27.5 55C42.6878 55 55 42.6878 55 27.5C55 12.3122 42.6878 0 27.5 0C12.3122 0 0 12.3122 0 27.5C0 42.6878 12.3122 55 27.5 55Z" fill="white"/>
<path d="M36.4416 8.44116H30.3497C26.7346 8.44116 22.7135 9.96165 22.7135 15.202C22.7311 17.0279 22.7135 18.7766 22.7135 20.7446H18.5312V27.3998H22.8429V46.559H30.7658V27.2734H35.9952L36.4683 20.726H30.6293C30.6293 20.726 30.6424 17.8134 30.6293 16.9676C30.6293 14.8967 32.7841 15.0153 32.9137 15.0153C33.9391 15.0153 35.9328 15.0183 36.4446 15.0153V8.44116H36.4416Z" fill="black"/>
</g>
<defs>
<clipPath id="clip0_1617_10430">
<rect width="55" height="55" fill="white"/>
</clipPath>
</defs>
</svg>
