<svg width="61" height="61" viewBox="0 0 61 61" fill="none" xmlns="http://www.w3.org/2000/svg">
<path d="M35.7125 18.9883L25.6078 18.9883C21.5011 18.9883 18.1602 22.3293 18.1601 26.4359L18.1601 36.5406C18.1601 40.6473 21.5011 43.9883 25.6078 43.9883L35.7125 43.9883C39.8191 43.9883 43.1601 40.6473 43.1601 36.5406L43.1601 26.4359C43.1601 22.3293 39.8191 18.9883 35.7125 18.9883ZM40.6451 36.5406C40.6451 39.2648 38.4367 41.4733 35.7125 41.4733L25.6078 41.4733C22.8836 41.4733 20.6751 39.2648 20.6751 36.5406L20.6751 26.4359C20.6752 23.7117 22.8836 21.5033 25.6078 21.5033L35.7125 21.5033C38.4367 21.5033 40.6452 23.7117 40.6452 26.4359L40.6451 36.5406Z" fill="#F2F2F2"/>
<path d="M30.6602 24.9883C27.0761 24.9883 24.1602 27.9042 24.1602 31.4883C24.1601 35.0723 27.076 37.9883 30.6601 37.9883C34.2443 37.9883 37.1601 35.0724 37.1602 31.4882C37.1602 27.9041 34.2443 24.9883 30.6602 24.9883ZM30.6601 35.46C28.4666 35.46 26.6884 33.6819 26.6884 31.4883C26.6884 29.2947 28.4667 27.5166 30.6602 27.5166C32.8537 27.5165 34.6319 29.2947 34.6319 31.4883C34.6319 33.6818 32.8536 35.46 30.6601 35.46Z" fill="#F2F2F2"/>
<path d="M36.6602 26.9883C37.4886 26.9883 38.1602 26.3167 38.1602 25.4883C38.1602 24.6599 37.4886 23.9883 36.6602 23.9883C35.8317 23.9883 35.1602 24.6599 35.1602 25.4883C35.1602 26.3167 35.8317 26.9883 36.6602 26.9883Z" fill="#F2F2F2"/>
</svg>
