<svg width="23" height="23" viewBox="0 0 23 23" fill="none" xmlns="http://www.w3.org/2000/svg">
<g clip-path="url(#clip0_4572_9929)">
<path d="M1.9165 3.82662C1.91826 3.57495 2.01895 3.33406 2.19683 3.156C2.37471 2.97794 2.61549 2.87701 2.86717 2.875H20.1325C20.6577 2.875 21.0832 3.30146 21.0832 3.82662V19.1734C21.0814 19.4251 20.9807 19.6659 20.8028 19.844C20.625 20.0221 20.3842 20.123 20.1325 20.125H2.86717C2.61495 20.1247 2.37315 20.0244 2.19489 19.8459C2.01663 19.6675 1.9165 19.4256 1.9165 19.1734V3.82662ZM3.83317 4.79167V18.2083H19.1665V4.79167H3.83317ZM11.4998 14.375C12.2623 14.375 12.9936 14.0721 13.5328 13.5329C14.0719 12.9938 14.3748 12.2625 14.3748 11.5C14.3748 10.7375 14.0719 10.0062 13.5328 9.46707C12.9936 8.9279 12.2623 8.625 11.4998 8.625C10.7373 8.625 10.0061 8.9279 9.4669 9.46707C8.92774 10.0062 8.62484 10.7375 8.62484 11.5C8.62484 12.2625 8.92774 12.9938 9.4669 13.5329C10.0061 14.0721 10.7373 14.375 11.4998 14.375ZM11.4998 16.2917C10.229 16.2917 9.01023 15.7868 8.11162 14.8882C7.21301 13.9896 6.70817 12.7708 6.70817 11.5C6.70817 10.2292 7.21301 9.01039 8.11162 8.11178C9.01023 7.21317 10.229 6.70833 11.4998 6.70833C12.7707 6.70833 13.9894 7.21317 14.8881 8.11178C15.7867 9.01039 16.2915 10.2292 16.2915 11.5C16.2915 12.7708 15.7867 13.9896 14.8881 14.8882C13.9894 15.7868 12.7707 16.2917 11.4998 16.2917ZM16.2915 5.75H18.2082V7.66667H16.2915V5.75Z" fill="#F8F8F8"/>
</g>
<defs>
<clipPath id="clip0_4572_9929">
<rect width="23" height="23" fill="white"/>
</clipPath>
</defs>
</svg>
