<svg width="61" height="61" viewBox="0 0 61 61" fill="none" xmlns="http://www.w3.org/2000/svg">
<path d="M17.1602 21.8913C17.1602 21.0496 17.453 20.3551 18.0385 19.808C18.6241 19.2609 19.3854 18.9873 20.3223 18.9873C21.2425 18.9873 21.987 19.2566 22.5559 19.7954C23.1415 20.3509 23.4343 21.0748 23.4343 21.9671C23.4343 22.7752 23.1499 23.4486 22.581 23.9873C21.9954 24.5429 21.2258 24.8206 20.2721 24.8206L20.247 24.8206C19.3268 24.8206 18.5823 24.5429 18.0134 23.9873C17.4446 23.4317 17.1602 22.7331 17.1602 21.8913ZM17.4864 43.9873L17.4864 27.1186L23.0578 27.1186L23.0578 43.9873L17.4864 43.9873ZM26.1447 43.9873L31.7161 43.9873L31.7161 34.5681C31.7161 33.9789 31.7831 33.5243 31.9169 33.2045C32.1511 32.6321 32.5067 32.148 32.9835 31.7524C33.4603 31.3568 34.0585 31.159 34.7779 31.159C36.6518 31.159 37.5887 32.43 37.5887 34.9721L37.5887 43.9873L43.1601 43.9873L43.1601 34.3156C43.1601 31.824 42.5746 29.9343 41.4034 28.6464C40.2322 27.3585 38.6846 26.7146 36.7605 26.7146C34.6022 26.7146 32.9208 27.6489 31.7161 29.5176L31.7161 29.5681L31.691 29.5681L31.7161 29.5176L31.7161 27.1186L26.1447 27.1186C26.1782 27.6573 26.1949 29.3324 26.1949 32.1439C26.1949 34.9553 26.1781 38.9031 26.1447 43.9873Z" fill="#F2F2F2"/>
</svg>
