<svg width="61" height="61" viewBox="0 0 61 61" fill="none" xmlns="http://www.w3.org/2000/svg">
<path d="M41.1931 39.8318L43.1601 41.6891L43.1601 41.7507L33.1826 41.7507L33.1826 41.6891L35.1855 39.8319C35.3991 39.6598 35.5015 39.3869 35.4524 39.1187L35.4524 27.2462C35.4524 26.7444 35.4524 26.0662 35.5417 25.4862L28.8114 41.9883L28.7314 41.9883L21.7622 26.806L21.4684 26.1457L21.4684 36.1006C21.3849 36.7665 21.4993 37.4418 21.7979 38.0457L24.6018 41.6895L24.6018 41.7511L17.1601 41.7511L17.1601 41.6895L19.9641 38.037C20.2606 37.4363 20.3703 36.7641 20.2931 36.1007L20.2932 25.0985C20.3387 24.5566 20.1733 24.0179 19.83 23.5936L17.8455 21.0499L17.8455 20.9883L24.9662 20.9883L30.93 33.8473L36.1816 20.9883L43.1512 20.9883L43.1512 21.0498L41.1931 23.2063C40.9583 23.3759 40.8413 23.6623 40.8904 23.9452L40.8904 39.1187C40.8648 39.2535 40.8797 39.3926 40.9334 39.5192C40.9872 39.6459 41.0774 39.7545 41.1931 39.8318Z" fill="#F2F2F2"/>
</svg>
