<svg width="61" height="61" viewBox="0 0 61 61" fill="none" xmlns="http://www.w3.org/2000/svg">
<path d="M29.1602 28.2066L29.1602 27.0744C28.8057 27.0188 28.4486 26.99 28.0911 26.9883C23.7184 26.9883 20.1602 30.9349 20.1601 35.786C20.1601 38.7612 21.5011 41.3959 23.5461 42.9883C22.1768 41.3639 21.415 39.2229 21.4163 36.9989C21.4163 32.2172 24.8729 28.3178 29.1602 28.2066Z" fill="#F2F2F2"/>
<path d="M30.1708 40.9883C32.1714 40.9883 33.8026 39.2835 33.8771 37.158L33.884 18.189L37.1187 18.189C37.0494 17.7931 37.0143 17.3912 37.0136 16.9883L32.5964 16.9883L32.5888 35.958C32.515 38.082 30.8824 39.7868 28.8825 39.7868C28.2825 39.7868 27.6915 39.6298 27.1601 39.3293C27.5044 39.8429 27.9569 40.2611 28.4802 40.5495C29.0036 40.8379 29.583 40.9883 30.1708 40.9883ZM43.1595 24.6278L43.1595 23.5733C41.972 23.5747 40.8096 23.2045 39.8135 22.5075C40.6878 23.5849 41.8617 24.3286 43.1601 24.6278" fill="#F2F2F2"/>
<path d="M39.1602 22.2768C38.2292 21.0937 37.7152 19.5683 37.7148 17.9883L36.5835 17.9883C36.7315 18.8625 37.0364 19.6936 37.4794 20.431C37.9224 21.1683 38.4943 21.7963 39.1602 22.2768ZM28.7101 31.537C26.7501 31.54 25.1621 33.3078 25.1601 35.4895C25.1622 36.2128 25.3407 36.9215 25.6762 37.5385C26.0117 38.1554 26.4913 38.6569 27.0628 38.9883C26.6267 38.3199 26.3914 37.5126 26.3908 36.6835C26.3928 34.501 27.9808 32.7325 29.9408 32.7303C30.3075 32.7303 30.6575 32.7978 30.9888 32.9133L30.9888 28.1133C30.6416 28.0584 30.2915 28.0298 29.9408 28.0278C29.8795 28.0278 29.8188 28.0323 29.7581 28.033L29.7581 31.72C29.419 31.5999 29.0657 31.5382 28.7101 31.537Z" fill="#F2F2F2"/>
<path d="M41.8864 24.9883L41.8864 28.6513C39.7078 28.6548 37.5828 27.9177 35.8084 26.543L35.8084 36.1183C35.8084 40.901 32.2015 44.792 27.7684 44.792C26.0546 44.792 24.4657 44.2085 23.1601 43.2193C23.9138 44.0943 24.8247 44.7916 25.8365 45.2679C26.8482 45.7442 27.9391 45.9894 29.0415 45.9883C33.4753 45.9883 37.0822 42.0973 37.0822 37.3153L37.0822 27.7393C38.8566 29.1137 40.9817 29.8505 43.1602 29.8468L43.1602 25.1345C42.732 25.1344 42.3051 25.0854 41.8864 24.9883Z" fill="#F2F2F2"/>
<path d="M36.0491 35.386L36.0491 25.8863C37.8427 27.2535 39.9758 27.9837 42.1601 27.9782L42.1602 24.3456C40.8757 24.0541 39.7099 23.3201 38.8327 22.2508C37.4291 21.2799 36.4603 19.7399 36.1528 17.9883L32.9371 17.9883L32.9303 36.7194C32.8558 38.8172 31.2334 40.5005 29.2451 40.5005C28.0569 40.4991 26.9433 39.8899 26.2509 38.8633C25.0357 38.1851 24.2736 36.8457 24.2729 35.3852C24.2749 33.2161 25.9258 31.4592 27.9648 31.4563C28.3442 31.4563 28.7086 31.5231 29.0541 31.6383L29.0541 27.9738C24.6841 28.083 21.1601 31.896 21.1601 36.5716C21.1601 38.8336 21.9859 40.892 23.3313 42.429C24.6974 43.4484 26.3124 43.9919 27.9648 43.9883C32.4222 43.9883 36.0491 40.1291 36.0491 35.386Z" fill="#F2F2F2"/>
</svg>
