<svg width="61" height="61" viewBox="0 0 61 61" fill="none" xmlns="http://www.w3.org/2000/svg">
<path fill-rule="evenodd" clip-rule="evenodd" d="M19.9186 17.9883L18.1602 22.6226L18.1601 41.5627L24.4102 41.5627L24.4102 44.9883L27.9258 44.9883L31.2463 41.5626L36.3244 41.5626L43.1601 34.5106L43.1602 17.9883L19.9186 17.9883ZM40.8166 33.3023L36.9096 37.3312L30.6599 37.3312L27.3394 40.7569L27.3394 37.3312L22.0662 37.3312L22.0663 20.4056L40.8158 20.4056L40.8157 33.3023L40.8166 33.3023ZM36.9096 25.0403L36.9096 32.0924L34.5665 32.0924L34.5665 25.0403L36.9096 25.0403ZM30.6595 25.0403L30.6595 32.0924L28.3164 32.0924L28.3164 25.0403L30.6595 25.0403Z" fill="#F2F2F2"/>
</svg>
