<svg width="55" height="55" viewBox="0 0 55 55" fill="none" xmlns="http://www.w3.org/2000/svg">
<g clip-path="url(#clip0_1617_10425)">
<path d="M27.4998 54.9995C42.6875 54.9995 54.9995 42.6875 54.9995 27.4998C54.9995 12.3121 42.6875 0 27.4998 0C12.3121 0 0 12.3121 0 27.4998C0 42.6875 12.3121 54.9995 27.4998 54.9995Z" fill="white"/>
<path d="M44.3438 19.7633C43.1653 20.2859 41.8976 20.6393 40.5682 20.7972C41.9256 19.9839 42.9673 18.6971 43.459 17.1613C42.1888 17.9148 40.7814 18.4613 39.2848 18.756C38.0858 17.479 36.3774 16.6809 34.4857 16.6809C30.8562 16.6809 27.9125 19.6246 27.9125 23.2541C27.9125 23.7693 27.9708 24.2708 28.0835 24.7522C22.6206 24.4782 17.7769 21.8614 14.5346 17.8834C13.9689 18.854 13.6444 19.9839 13.6444 21.1884C13.6444 23.4683 14.8057 25.4811 16.5685 26.6596C15.4915 26.6258 14.4773 26.3302 13.5915 25.8365C13.591 25.8645 13.591 25.8924 13.591 25.9199C13.591 29.1048 15.8577 31.7612 18.8642 32.3647C18.3132 32.5156 17.7313 32.5955 17.1328 32.5955C16.7082 32.5955 16.297 32.5549 15.896 32.4784C16.7323 35.0892 19.1593 36.9898 22.0363 37.0432C19.7863 38.8065 16.9524 39.857 13.8719 39.857C13.3425 39.857 12.8179 39.8261 12.3047 39.7649C15.2121 41.6306 18.6681 42.7184 22.38 42.7184C34.4705 42.7184 41.0824 32.7024 41.0824 24.0154C41.0824 23.7306 41.076 23.4468 41.0633 23.1654C42.3486 22.2389 43.4629 21.0815 44.3438 19.7633Z" fill="black"/>
</g>
<defs>
<clipPath id="clip0_1617_10425">
<rect width="55" height="55" fill="white"/>
</clipPath>
</defs>
</svg>
