<svg width="61" height="61" viewBox="0 0 61 61" fill="none" xmlns="http://www.w3.org/2000/svg">
<path d="M40.0988 17.9883L20.2215 17.9883C16.3216 17.9883 13.1602 21.2734 13.1601 25.3258L13.1601 35.6508C13.1601 39.7032 16.3216 42.9883 20.2215 42.9883L40.0988 42.9883C43.9987 42.9883 47.1601 39.7032 47.1601 35.6508L47.1601 25.3257C47.1602 21.2733 43.9987 17.9883 40.0988 17.9883ZM35.3232 30.9906L26.026 35.5982C25.7782 35.721 25.4921 35.5333 25.4921 35.2482L25.4921 25.7449C25.4921 25.4557 25.7858 25.2683 26.034 25.399L35.3313 30.2946C35.6077 30.4401 35.6029 30.8521 35.3232 30.9906Z" fill="#F2F2F2"/>
</svg>
