<svg width="23" height="23" viewBox="0 0 23 23" fill="none" xmlns="http://www.w3.org/2000/svg">
<g clip-path="url(#clip0_3356_14297)">
<path d="M6.70964 4.79036V1.91536C6.70964 1.6612 6.8106 1.41744 6.99032 1.23772C7.17005 1.058 7.4138 0.957031 7.66797 0.957031H15.3346C15.5888 0.957031 15.8326 1.058 16.0123 1.23772C16.192 1.41744 16.293 1.6612 16.293 1.91536V4.79036H20.1263C20.3805 4.79036 20.6242 4.89133 20.8039 5.07105C20.9837 5.25078 21.0846 5.49453 21.0846 5.7487V19.1654C21.0846 19.4195 20.9837 19.6633 20.8039 19.843C20.6242 20.0227 20.3805 20.1237 20.1263 20.1237H2.8763C2.62214 20.1237 2.37838 20.0227 2.19866 19.843C2.01894 19.6633 1.91797 19.4195 1.91797 19.1654V5.7487C1.91797 5.49453 2.01894 5.25078 2.19866 5.07105C2.37838 4.89133 2.62214 4.79036 2.8763 4.79036H6.70964ZM3.83464 14.3737V18.207H19.168V14.3737H3.83464ZM10.543 10.5404V12.457H12.4596V10.5404H10.543ZM8.6263 2.8737V4.79036H14.3763V2.8737H8.6263Z" fill="#F2F2F2"/>
</g>
<defs>
<clipPath id="clip0_3356_14297">
<rect width="23" height="23" fill="white"/>
</clipPath>
</defs>
</svg>
