<svg width="55" height="55" viewBox="0 0 55 55" fill="none" xmlns="http://www.w3.org/2000/svg">
<g clip-path="url(#clip0_1617_10417)">
<path d="M27.5 55C42.6878 55 55 42.6878 55 27.5C55 12.3122 42.6878 0 27.5 0C12.3122 0 0 12.3122 0 27.5C0 42.6878 12.3122 55 27.5 55ZM22.9265 33.0934L35.6777 21.5864C36.2374 21.0897 35.5555 20.8475 34.8126 21.298L19.075 31.2266L12.2772 29.1049C10.8092 28.6554 10.7987 27.6467 12.6068 26.9214L39.0962 16.7072C40.306 16.158 41.4738 16.9978 41.0119 18.8495L36.5007 40.1077C36.1857 41.6184 35.273 41.9796 34.0083 41.2819L27.1364 36.2048L23.8333 39.4167C23.4496 39.7898 23.1458 40.1042 22.4583 40.1042L22.9263 33.0933L22.9265 33.0934Z" fill="white"/>
</g>
<defs>
<clipPath id="clip0_1617_10417">
<rect width="55" height="55" fill="white"/>
</clipPath>
</defs>
</svg>
