<svg width="21" height="21" viewBox="0 0 21 21" fill="none" xmlns="http://www.w3.org/2000/svg">
<path d="M10.5003 20.0834C5.20745 20.0834 0.916992 15.793 0.916992 10.5001C0.916992 5.20721 5.20745 0.916748 10.5003 0.916748C15.7932 0.916748 20.0837 5.20721 20.0837 10.5001C20.0837 15.793 15.7932 20.0834 10.5003 20.0834ZM10.5003 18.1667C12.5337 18.1667 14.4837 17.359 15.9215 15.9212C17.3593 14.4835 18.167 12.5334 18.167 10.5001C18.167 8.46675 17.3593 6.51671 15.9215 5.07893C14.4837 3.64115 12.5337 2.83341 10.5003 2.83341C8.467 2.83341 6.51695 3.64115 5.07917 5.07893C3.64139 6.51671 2.83366 8.46675 2.83366 10.5001C2.83366 12.5334 3.64139 14.4835 5.07917 15.9212C6.51695 17.359 8.467 18.1667 10.5003 18.1667ZM5.70866 10.5001H7.62533C7.62533 11.2626 7.92823 11.9938 8.46739 12.533C9.00656 13.0722 9.73783 13.3751 10.5003 13.3751C11.2628 13.3751 11.9941 13.0722 12.5333 12.533C13.0724 11.9938 13.3753 11.2626 13.3753 10.5001H15.292C15.292 11.7709 14.7872 12.9897 13.8885 13.8883C12.9899 14.7869 11.7712 15.2917 10.5003 15.2917C9.2295 15.2917 8.01072 14.7869 7.11211 13.8883C6.21349 12.9897 5.70866 11.7709 5.70866 10.5001Z" fill="#F8F8F8"/>
</svg>
