<svg width="20" height="19" viewBox="0 0 20 19" fill="none" xmlns="http://www.w3.org/2000/svg">
<path d="M0 1.89779C0.00183004 1.63516 0.1069 1.3838 0.292513 1.198C0.478126 1.0122 0.72938 0.90688 0.992 0.904785H19.008C19.556 0.904785 20 1.34979 20 1.89779V17.9118C19.9982 18.1744 19.8931 18.4258 19.7075 18.6116C19.5219 18.7974 19.2706 18.9027 19.008 18.9048H0.992C0.728813 18.9045 0.476497 18.7998 0.290489 18.6136C0.104482 18.4274 -1.33455e-07 18.175 0 17.9118V1.89779ZM2 2.90479V16.9048H18V2.90479H2ZM10 12.9048C10.7956 12.9048 11.5587 12.5887 12.1213 12.0261C12.6839 11.4635 13 10.7004 13 9.90479C13 9.10914 12.6839 8.34607 12.1213 7.78346C11.5587 7.22086 10.7956 6.90479 10 6.90479C9.20435 6.90479 8.44129 7.22086 7.87868 7.78346C7.31607 8.34607 7 9.10914 7 9.90479C7 10.7004 7.31607 11.4635 7.87868 12.0261C8.44129 12.5887 9.20435 12.9048 10 12.9048ZM10 14.9048C8.67392 14.9048 7.40215 14.378 6.46447 13.4403C5.52678 12.5026 5 11.2309 5 9.90479C5 8.5787 5.52678 7.30693 6.46447 6.36925C7.40215 5.43157 8.67392 4.90479 10 4.90479C11.3261 4.90479 12.5979 5.43157 13.5355 6.36925C14.4732 7.30693 15 8.5787 15 9.90479C15 11.2309 14.4732 12.5026 13.5355 13.4403C12.5979 14.378 11.3261 14.9048 10 14.9048ZM15 3.90479H17V5.90479H15V3.90479Z" fill="#F8F8F8"/>
</svg>
