<svg width="23" height="23" viewBox="0 0 23 23" fill="none" xmlns="http://www.w3.org/2000/svg">
<g clip-path="url(#clip0_4572_9932)">
<path d="M11.4998 21.0834C6.20696 21.0834 1.9165 16.793 1.9165 11.5001C1.9165 6.20721 6.20696 1.91675 11.4998 1.91675C16.7927 1.91675 21.0832 6.20721 21.0832 11.5001C21.0832 16.793 16.7927 21.0834 11.4998 21.0834ZM11.4998 19.1667C13.5332 19.1667 15.4832 18.359 16.921 16.9212C18.3588 15.4835 19.1665 13.5334 19.1665 11.5001C19.1665 9.46675 18.3588 7.51671 16.921 6.07893C15.4832 4.64115 13.5332 3.83341 11.4998 3.83341C9.46651 3.83341 7.51646 4.64115 6.07869 6.07893C4.64091 7.51671 3.83317 9.46675 3.83317 11.5001C3.83317 13.5334 4.64091 15.4835 6.07869 16.9212C7.51646 18.359 9.46651 19.1667 11.4998 19.1667ZM6.70817 11.5001H8.62484C8.62484 12.2626 8.92774 12.9938 9.4669 13.533C10.0061 14.0722 10.7373 14.3751 11.4998 14.3751C12.2623 14.3751 12.9936 14.0722 13.5328 13.533C14.0719 12.9938 14.3748 12.2626 14.3748 11.5001H16.2915C16.2915 12.7709 15.7867 13.9897 14.8881 14.8883C13.9894 15.7869 12.7707 16.2917 11.4998 16.2917C10.229 16.2917 9.01023 15.7869 8.11162 14.8883C7.21301 13.9897 6.70817 12.7709 6.70817 11.5001Z" fill="#F8F8F8"/>
</g>
<defs>
<clipPath id="clip0_4572_9932">
<rect width="23" height="23" fill="white"/>
</clipPath>
</defs>
</svg>
