<svg width="18" height="17" viewBox="0 0 18 17" fill="none" xmlns="http://www.w3.org/2000/svg">
<path d="M7.33268 0.5H10.666C12.4341 0.5 14.1298 1.20238 15.3801 2.45262C16.6303 3.70286 17.3327 5.39856 17.3327 7.16667C17.3327 8.93478 16.6303 10.6305 15.3801 11.8807C14.1298 13.131 12.4341 13.8333 10.666 13.8333V16.75C6.49935 15.0833 0.666016 12.5833 0.666016 7.16667C0.666016 5.39856 1.36839 3.70286 2.61864 2.45262C3.86888 1.20238 5.56457 0.5 7.33268 0.5V0.5ZM8.99935 12.1667H10.666C11.3226 12.1667 11.9728 12.0373 12.5794 11.7861C13.1861 11.5348 13.7373 11.1665 14.2015 10.7022C14.6658 10.2379 15.0341 9.68671 15.2854 9.08008C15.5367 8.47346 15.666 7.82328 15.666 7.16667C15.666 6.51006 15.5367 5.85988 15.2854 5.25325C15.0341 4.64662 14.6658 4.09543 14.2015 3.63113C13.7373 3.16684 13.1861 2.79854 12.5794 2.54727C11.9728 2.296 11.3226 2.16667 10.666 2.16667H7.33268C6.0066 2.16667 4.73483 2.69345 3.79715 3.63113C2.85947 4.56881 2.33268 5.84058 2.33268 7.16667C2.33268 10.175 4.38435 12.1383 8.99935 14.2333V12.1667Z" fill="#F2F2F2"/>
<circle cx="15" cy="4" r="3" fill="#D64137"/>
</svg>
