<svg width="12" height="20" viewBox="0 0 12 20" fill="none" xmlns="http://www.w3.org/2000/svg">
<path d="M11.407 14.7055C11.407 15.9695 10.935 16.9935 9.99099 17.7775C9.04699 18.5615 7.87899 19.0015 6.48699 19.0975V21.2335H5.04699V19.0735C3.60699 18.8975 2.42299 18.3615 1.49499 17.4655C0.582992 16.5695 0.126992 15.4015 0.126992 13.9615H1.80699C1.80699 14.9375 2.09499 15.7215 2.67099 16.3135C3.26299 16.9055 4.05499 17.2735 5.04699 17.4175V10.8895C4.35899 10.6175 3.79099 10.3695 3.34299 10.1455C2.89499 9.9055 2.42299 9.6015 1.92699 9.2335C1.44699 8.8495 1.08699 8.3935 0.846992 7.8655C0.606992 7.3215 0.486992 6.7055 0.486992 6.0175C0.486992 4.8015 0.926992 3.8175 1.80699 3.0655C2.68699 2.3135 3.76699 1.88149 5.04699 1.7695V-0.366504H6.48699V1.7935C7.78299 1.9535 8.86299 2.4575 9.72699 3.3055C10.607 4.1375 11.047 5.2175 11.047 6.5455H9.36699C9.36699 5.6815 9.10299 4.9855 8.57499 4.4575C8.04699 3.9135 7.35099 3.5775 6.48699 3.4495V9.7615C7.23899 10.0495 7.84699 10.3135 8.31099 10.5535C8.77499 10.7775 9.27099 11.0895 9.79899 11.4895C10.343 11.8735 10.743 12.3375 10.999 12.8815C11.271 13.4095 11.407 14.0175 11.407 14.7055ZM2.16699 6.0175C2.16699 6.7535 2.41499 7.3695 2.91099 7.8655C3.42299 8.3455 4.13499 8.7855 5.04699 9.1855V3.4015C4.19899 3.4975 3.50299 3.7695 2.95899 4.2175C2.43099 4.6655 2.16699 5.2655 2.16699 6.0175ZM6.48699 17.4655C7.43099 17.3855 8.20699 17.1055 8.81499 16.6255C9.42299 16.1455 9.72699 15.5055 9.72699 14.7055C9.72699 13.9375 9.43899 13.3055 8.86299 12.8095C8.30299 12.2975 7.51099 11.8415 6.48699 11.4415V17.4655Z" fill="white"/>
</svg>
