<svg width="22" height="18" viewBox="0 0 22 18" fill="none" xmlns="http://www.w3.org/2000/svg">
<path d="M11.0006 -0.000488281C16.3926 -0.000488281 20.8786 3.87951 21.8196 8.99951C20.8796 14.1195 16.3926 17.9995 11.0006 17.9995C5.60864 17.9995 1.12264 14.1195 0.181641 8.99951C1.12164 3.87951 5.60864 -0.000488281 11.0006 -0.000488281ZM11.0006 15.9995C13.0401 15.9991 15.019 15.3063 16.6135 14.0347C18.208 12.763 19.3235 10.9878 19.7776 8.99951C19.3219 7.01282 18.2056 5.23952 16.6113 3.96954C15.017 2.69956 13.0389 2.00804 11.0006 2.00804C8.96234 2.00804 6.98433 2.69956 5.39002 3.96954C3.7957 5.23952 2.67941 7.01282 2.22364 8.99951C2.67774 10.9878 3.79331 12.763 5.38778 14.0347C6.98225 15.3063 8.96117 15.9991 11.0006 15.9995ZM11.0006 13.4995C9.80717 13.4995 8.66257 13.0254 7.81866 12.1815C6.97475 11.3376 6.50064 10.193 6.50064 8.99951C6.50064 7.80604 6.97475 6.66145 7.81866 5.81753C8.66257 4.97362 9.80717 4.49951 11.0006 4.49951C12.1941 4.49951 13.3387 4.97362 14.1826 5.81753C15.0265 6.66145 15.5006 7.80604 15.5006 8.99951C15.5006 10.193 15.0265 11.3376 14.1826 12.1815C13.3387 13.0254 12.1941 13.4995 11.0006 13.4995ZM11.0006 11.4995C11.6637 11.4995 12.2996 11.2361 12.7684 10.7673C13.2372 10.2984 13.5006 9.66255 13.5006 8.99951C13.5006 8.33647 13.2372 7.70059 12.7684 7.23174C12.2996 6.7629 11.6637 6.49951 11.0006 6.49951C10.3376 6.49951 9.70171 6.7629 9.23287 7.23174C8.76403 7.70059 8.50064 8.33647 8.50064 8.99951C8.50064 9.66255 8.76403 10.2984 9.23287 10.7673C9.70171 11.2361 10.3376 11.4995 11.0006 11.4995Z" fill="#F2F2F2"/>
</svg>
