<svg width="24" height="24" viewBox="0 0 24 24" fill="none" xmlns="http://www.w3.org/2000/svg">
<path d="M4.5 11.25C4.08333 11.25 3.72917 11.1042 3.4375 10.8125C3.14583 10.5208 3 10.1667 3 9.75V4.5C3 4.08333 3.14583 3.72917 3.4375 3.4375C3.72917 3.14583 4.08333 3 4.5 3H9.75C10.1667 3 10.5208 3.14583 10.8125 3.4375C11.1042 3.72917 11.25 4.08333 11.25 4.5V9.75C11.25 10.1667 11.1042 10.5208 10.8125 10.8125C10.5208 11.1042 10.1667 11.25 9.75 11.25H4.5ZM4.5 21C4.08333 21 3.72917 20.8542 3.4375 20.5625C3.14583 20.2708 3 19.9167 3 19.5V14.25C3 13.8333 3.14583 13.4792 3.4375 13.1875C3.72917 12.8958 4.08333 12.75 4.5 12.75H9.75C10.1667 12.75 10.5208 12.8958 10.8125 13.1875C11.1042 13.4792 11.25 13.8333 11.25 14.25V19.5C11.25 19.9167 11.1042 20.2708 10.8125 20.5625C10.5208 20.8542 10.1667 21 9.75 21H4.5ZM14.25 11.25C13.8333 11.25 13.4792 11.1042 13.1875 10.8125C12.8958 10.5208 12.75 10.1667 12.75 9.75V4.5C12.75 4.08333 12.8958 3.72917 13.1875 3.4375C13.4792 3.14583 13.8333 3 14.25 3H19.5C19.9167 3 20.2708 3.14583 20.5625 3.4375C20.8542 3.72917 21 4.08333 21 4.5V9.75C21 10.1667 20.8542 10.5208 20.5625 10.8125C20.2708 11.1042 19.9167 11.25 19.5 11.25H14.25ZM14.25 21C13.8333 21 13.4792 20.8542 13.1875 20.5625C12.8958 20.2708 12.75 19.9167 12.75 19.5V14.25C12.75 13.8333 12.8958 13.4792 13.1875 13.1875C13.4792 12.8958 13.8333 12.75 14.25 12.75H19.5C19.9167 12.75 20.2708 12.8958 20.5625 13.1875C20.8542 13.4792 21 13.8333 21 14.25V19.5C21 19.9167 20.8542 20.2708 20.5625 20.5625C20.2708 20.8542 19.9167 21 19.5 21H14.25ZM4.5 9.75H9.75V4.5H4.5V9.75ZM14.25 9.75H19.5V4.5H14.25V9.75ZM14.25 19.5H19.5V14.25H14.25V19.5ZM4.5 19.5H9.75V14.25H4.5V19.5Z" fill="white"/>
</svg>
