<svg width="21" height="19" viewBox="0 0 21 19" fill="none" xmlns="http://www.w3.org/2000/svg">
<path d="M0.916992 1.82662C0.918746 1.57495 1.01944 1.33406 1.19732 1.156C1.3752 0.977942 1.61598 0.877007 1.86766 0.875H19.133C19.6582 0.875 20.0837 1.30146 20.0837 1.82662V17.1734C20.0819 17.4251 19.9812 17.6659 19.8033 17.844C19.6255 18.0221 19.3847 18.123 19.133 18.125H1.86766C1.61544 18.1247 1.37363 18.0244 1.19538 17.8459C1.01712 17.6675 0.916992 17.4256 0.916992 17.1734V1.82662ZM2.83366 2.79167V16.2083H18.167V2.79167H2.83366ZM10.5003 12.375C11.2628 12.375 11.9941 12.0721 12.5333 11.5329C13.0724 10.9938 13.3753 10.2625 13.3753 9.5C13.3753 8.7375 13.0724 8.00623 12.5333 7.46707C11.9941 6.9279 11.2628 6.625 10.5003 6.625C9.73783 6.625 9.00656 6.9279 8.46739 7.46707C7.92823 8.00623 7.62533 8.7375 7.62533 9.5C7.62533 10.2625 7.92823 10.9938 8.46739 11.5329C9.00656 12.0721 9.73783 12.375 10.5003 12.375ZM10.5003 14.2917C9.2295 14.2917 8.01072 13.7868 7.11211 12.8882C6.21349 11.9896 5.70866 10.7708 5.70866 9.5C5.70866 8.22917 6.21349 7.01039 7.11211 6.11178C8.01072 5.21317 9.2295 4.70833 10.5003 4.70833C11.7712 4.70833 12.9899 5.21317 13.8885 6.11178C14.7872 7.01039 15.292 8.22917 15.292 9.5C15.292 10.7708 14.7872 11.9896 13.8885 12.8882C12.9899 13.7868 11.7712 14.2917 10.5003 14.2917ZM15.292 3.75H17.2087V5.66667H15.292V3.75Z" fill="#F8F8F8"/>
</svg>
