<svg width="47" height="46" viewBox="0 0 47 46" fill="none" xmlns="http://www.w3.org/2000/svg">
<g clip-path="url(#clip0_2256_24334)">
<path d="M9.75432 40.25L9.71598 40.2883L9.67573 40.25H6.23532C5.73088 40.2495 5.24727 40.0487 4.89076 39.6919C4.53424 39.335 4.33398 38.8512 4.33398 38.3467V7.65325C4.33749 7.14989 4.53888 6.66812 4.89463 6.312C5.25039 5.95588 5.73196 5.75401 6.23532 5.75H40.766C41.8163 5.75 42.6673 6.60292 42.6673 7.65325V38.3467C42.6638 38.8501 42.4624 39.3319 42.1067 39.688C41.7509 40.0441 41.2693 40.246 40.766 40.25H9.75432ZM38.834 28.75V9.58333H8.16732V36.4167L27.334 17.25L38.834 28.75ZM38.834 34.1703L27.334 22.6703L13.5877 36.4167H38.834V34.1703ZM15.834 21.0833C14.8173 21.0833 13.8423 20.6795 13.1234 19.9606C12.4045 19.2417 12.0007 18.2667 12.0007 17.25C12.0007 16.2333 12.4045 15.2583 13.1234 14.5394C13.8423 13.8205 14.8173 13.4167 15.834 13.4167C16.8506 13.4167 17.8257 13.8205 18.5446 14.5394C19.2634 15.2583 19.6673 16.2333 19.6673 17.25C19.6673 18.2667 19.2634 19.2417 18.5446 19.9606C17.8257 20.6795 16.8506 21.0833 15.834 21.0833Z" fill="#F2F2F2"/>
</g>
<defs>
<clipPath id="clip0_2256_24334">
<rect width="46" height="46" fill="white" transform="translate(0.5)"/>
</clipPath>
</defs>
</svg>
