<svg width="20" height="21" viewBox="0 0 20 21" fill="none" xmlns="http://www.w3.org/2000/svg">
<path d="M10 20.9048C4.477 20.9048 0 16.4278 0 10.9048C0 5.38179 4.477 0.904785 10 0.904785C15.523 0.904785 20 5.38179 20 10.9048C20 16.4278 15.523 20.9048 10 20.9048ZM10 18.9048C12.1217 18.9048 14.1566 18.0619 15.6569 16.5616C17.1571 15.0613 18 13.0265 18 10.9048C18 8.78305 17.1571 6.74822 15.6569 5.24793C14.1566 3.74764 12.1217 2.90479 10 2.90479C7.87827 2.90479 5.84344 3.74764 4.34315 5.24793C2.84285 6.74822 2 8.78305 2 10.9048C2 13.0265 2.84285 15.0613 4.34315 16.5616C5.84344 18.0619 7.87827 18.9048 10 18.9048ZM5 10.9048H7C7 11.7004 7.31607 12.4635 7.87868 13.0261C8.44129 13.5887 9.20435 13.9048 10 13.9048C10.7956 13.9048 11.5587 13.5887 12.1213 13.0261C12.6839 12.4635 13 11.7004 13 10.9048H15C15 12.2309 14.4732 13.5026 13.5355 14.4403C12.5979 15.378 11.3261 15.9048 10 15.9048C8.67392 15.9048 7.40215 15.378 6.46447 14.4403C5.52678 13.5026 5 12.2309 5 10.9048Z" fill="#F8F8F8"/>
</svg>
