<svg width="20" height="20" viewBox="0 0 20 20" fill="none" xmlns="http://www.w3.org/2000/svg">
<path d="M9.06758 1.40576C9.3976 0.554273 10.6024 0.554272 10.9324 1.40576L12.7999 6.22423C12.9418 6.5903 13.2848 6.83949 13.6768 6.8613L18.8365 7.14844C19.7483 7.19918 20.1206 8.34501 19.4128 8.922L15.4073 12.1871C15.1029 12.4352 14.9719 12.8384 15.0723 13.2179L16.3937 18.2138C16.6272 19.0967 15.6525 19.8049 14.885 19.31L10.5419 16.5094C10.212 16.2967 9.78803 16.2967 9.45807 16.5094L5.11499 19.31C4.34751 19.8049 3.3728 19.0967 3.60631 18.2138L4.92767 13.2179C5.02806 12.8384 4.89706 12.4352 4.59274 12.1871L0.587205 8.922C-0.120628 8.34501 0.251675 7.19918 1.16347 7.14844L6.3232 6.8613C6.7152 6.83949 7.05817 6.5903 7.20006 6.22423L9.06758 1.40576Z" fill="white" fill-opacity="0.05"/>
<path d="M9.53379 1.58645C9.6988 1.16071 10.3012 1.16071 10.4662 1.58645L12.3337 6.40492C12.5466 6.95403 13.061 7.32781 13.649 7.36053L18.8087 7.64766C19.2646 7.67303 19.4508 8.24595 19.0969 8.53444L15.0913 11.7996C14.6349 12.1716 14.4384 12.7764 14.589 13.3458L15.9103 18.3417C16.0271 18.7831 15.5397 19.1372 15.156 18.8897L10.8129 16.0892C10.318 15.7701 9.68205 15.7701 9.18711 16.0892L4.84403 18.8897C4.46029 19.1372 3.97293 18.7831 4.08969 18.3417L5.41105 13.3458C5.56163 12.7764 5.36513 12.1716 4.90866 11.7996L0.903119 8.53444C0.549202 8.24595 0.735355 7.67303 1.19125 7.64766L6.35098 7.36053C6.93899 7.32781 7.45344 6.95403 7.66626 6.40492L9.53379 1.58645Z" stroke="url(#paint0_linear_3077_1931)" stroke-opacity="0.5"/>
<defs>
<linearGradient id="paint0_linear_3077_1931" x1="-2" y1="6" x2="27" y2="11" gradientUnits="userSpaceOnUse">
<stop stop-color="white"/>
<stop offset="1" stop-color="white" stop-opacity="0"/>
</linearGradient>
</defs>
</svg>
