<svg width="18" height="4" viewBox="0 0 18 4" fill="none" xmlns="http://www.w3.org/2000/svg">
<path d="M1.5 0.404785C0.675 0.404785 0 1.07979 0 1.90479C0 2.72979 0.675 3.40479 1.5 3.40479C2.325 3.40479 3 2.72979 3 1.90479C3 1.07979 2.325 0.404785 1.5 0.404785ZM16.5 0.404785C15.675 0.404785 15 1.07979 15 1.90479C15 2.72979 15.675 3.40479 16.5 3.40479C17.325 3.40479 18 2.72979 18 1.90479C18 1.07979 17.325 0.404785 16.5 0.404785ZM9 0.404785C8.175 0.404785 7.5 1.07979 7.5 1.90479C7.5 2.72979 8.175 3.40479 9 3.40479C9.825 3.40479 10.5 2.72979 10.5 1.90479C10.5 1.07979 9.825 0.404785 9 0.404785Z" fill="#F2F2F2"/>
</svg>
