<svg width="24" height="24" viewBox="0 0 24 24" fill="none" xmlns="http://www.w3.org/2000/svg">
<path fill-rule="evenodd" clip-rule="evenodd" d="M13.9142 9.67605C11.7335 11.6979 9.89895 13.4002 9.83745 13.459L9.72565 13.5658L8.01032 11.7352C7.06689 10.7284 6.28115 9.90918 6.26424 9.91484C6.24732 9.92047 5.73093 10.3951 5.11674 10.9695L4 12.0139L4.0983 12.1273C4.15235 12.1897 5.40578 13.5306 6.88365 15.1072L9.5707 17.9736L9.74435 17.8052C9.83986 17.7126 12.1339 15.5858 14.8421 13.0792C17.5504 10.5724 19.8189 8.47064 19.8831 8.40852L20 8.29556L19.1207 7.34206C18.6371 6.81763 18.1599 6.30114 18.0602 6.19428L17.879 6L13.9142 9.67605Z" fill="white"/>
</svg>
