<svg width="21" height="20" viewBox="0 0 21 20" fill="none" xmlns="http://www.w3.org/2000/svg">
<g clip-path="url(#clip0_6103_7761)">
<path d="M11.2865 12.5V15.8333H13.7865V17.5H7.11979V15.8333H9.61979V12.5H3.78646C3.56544 12.5 3.35348 12.4122 3.1972 12.2559C3.04092 12.0996 2.95313 11.8877 2.95312 11.6667V3.33333C2.95312 3.11232 3.04092 2.90036 3.1972 2.74408C3.35348 2.5878 3.56544 2.5 3.78646 2.5H17.1198C17.3408 2.5 17.5528 2.5878 17.709 2.74408C17.8653 2.90036 17.9531 3.11232 17.9531 3.33333V11.6667C17.9531 11.8877 17.8653 12.0996 17.709 12.2559C17.5528 12.4122 17.3408 12.5 17.1198 12.5H11.2865ZM7.11979 6.66667V8.33333H13.7865V6.66667H7.11979Z" fill="#F2F2F2"/>
</g>
<defs>
<clipPath id="clip0_6103_7761">
<rect width="20" height="20" fill="white" transform="translate(0.453125)"/>
</clipPath>
</defs>
</svg>
