<svg width="21" height="21" viewBox="0 0 21 21" fill="none" xmlns="http://www.w3.org/2000/svg">
<g clip-path="url(#clip0_3356_5189)">
<path d="M14.9622 8.47396L19.3064 5.43229C19.3689 5.3885 19.4422 5.36271 19.5183 5.35771C19.5944 5.35271 19.6704 5.36871 19.7381 5.40395C19.8057 5.4392 19.8624 5.49234 19.9019 5.55759C19.9415 5.62283 19.9623 5.69767 19.9622 5.77396V15.8406C19.9623 15.9169 19.9415 15.9918 19.9019 16.057C19.8624 16.1222 19.8057 16.1754 19.7381 16.2106C19.6704 16.2459 19.5944 16.2619 19.5183 16.2569C19.4422 16.2519 19.3689 16.2261 19.3064 16.1823L14.9622 13.1406V16.6406C14.9622 16.8616 14.8744 17.0736 14.7182 17.2299C14.5619 17.3862 14.3499 17.474 14.1289 17.474H2.46224C2.24123 17.474 2.02926 17.3862 1.87298 17.2299C1.7167 17.0736 1.62891 16.8616 1.62891 16.6406V4.97396C1.62891 4.75294 1.7167 4.54098 1.87298 4.3847C2.02926 4.22842 2.24123 4.14062 2.46224 4.14062H14.1289C14.3499 4.14062 14.5619 4.22842 14.7182 4.3847C14.8744 4.54098 14.9622 4.75294 14.9622 4.97396V8.47396ZM4.96224 7.47396V9.14062H6.62891V7.47396H4.96224Z" fill="#F2F2F2"/>
</g>
<defs>
<clipPath id="clip0_3356_5189">
<rect width="20" height="20" fill="white" transform="translate(0.796875 0.806641)"/>
</clipPath>
</defs>
</svg>
