<svg width="25" height="26" viewBox="0 0 25 26" fill="none" xmlns="http://www.w3.org/2000/svg">
<path fill-rule="evenodd" clip-rule="evenodd" d="M8.76533 4.02629C8.56662 4.09081 8.37203 4.20519 8.26393 4.32106C8.05968 4.53987 8.01557 4.73668 8.01557 5.42898V6.07888L7.69914 6.13563C6.74064 6.3074 5.63517 6.795 4.82564 7.40303C3.47443 8.41791 2.5906 9.77535 2.16603 11.4879L2.04396 11.9803L2.02755 15.2863L2.01115 18.5924L1.05662 19.5537C0.0742074 20.5431 0 20.6452 0 21.0074C0 21.372 0.247233 21.7512 0.585033 21.9047C0.764528 21.9863 1.1425 21.9901 9 21.9901C16.8575 21.9901 17.2355 21.9863 17.415 21.9047C17.7528 21.7512 18 21.372 18 21.0074C18 20.6452 17.9258 20.5431 16.9434 19.5537L15.9889 18.5924L15.9724 15.2863L15.956 11.9803L15.834 11.4879C15.4865 10.0863 14.9056 9.04446 13.9241 8.06264C12.9171 7.05522 11.6326 6.36906 10.3243 6.13966L9.98443 6.0801V5.42959C9.98443 4.73664 9.94037 4.54006 9.73607 4.32092C9.51336 4.08209 9.03788 3.93775 8.76533 4.02629ZM10.3126 8.17936C12.2876 8.7254 13.7118 10.3908 13.9639 12.4492C13.997 12.7187 14.0157 14.0203 14.0158 16.0499C14.0159 19.6129 13.9942 19.3841 14.3711 19.7872L14.5913 20.0226H9H3.40871L3.61971 19.797C3.98728 19.4039 3.95765 19.7212 3.98849 15.8491C4.01831 12.1111 4.01737 12.126 4.26695 11.3941C4.78748 9.86769 6.09827 8.61918 7.61823 8.20206C8.20983 8.03971 8.37545 8.02203 9.14063 8.03957C9.7462 8.0535 9.94144 8.07676 10.3126 8.17936ZM7.0152 24.2314C7.19315 25.5918 8.59624 26.3807 9.83161 25.8149C10.4671 25.5239 10.8921 24.9403 10.9848 24.2314L11.014 24.0086H9H6.98604L7.0152 24.2314Z" fill="white"/>
<circle cx="20" cy="5" r="5" fill="#D64037"/>
</svg>
