<svg width="21" height="20" viewBox="0 0 21 20" fill="none" xmlns="http://www.w3.org/2000/svg">
<g clip-path="url(#clip0_6103_8986)">
<path d="M14.6185 3.33398C15.9446 3.33398 17.2163 3.86077 18.154 4.79845C19.0917 5.73613 19.6185 7.0079 19.6185 8.33398V11.6673C19.6185 12.9934 19.0917 14.2652 18.154 15.2029C17.2163 16.1405 15.9446 16.6673 14.6185 16.6673H6.28516C4.95907 16.6673 3.6873 16.1405 2.74962 15.2029C1.81194 14.2652 1.28516 12.9934 1.28516 11.6673V8.33398C1.28516 7.0079 1.81194 5.73613 2.74962 4.79845C3.6873 3.86077 4.95907 3.33398 6.28516 3.33398H14.6185ZM8.78516 7.50065H7.11849V9.16732H5.45182V10.834H7.11766L7.11849 12.5007H8.78516L8.78432 10.834H10.4518V9.16732H8.78516V7.50065ZM15.4518 10.834H13.7852V12.5007H15.4518V10.834ZM13.7852 7.50065H12.1185V9.16732H13.7852V7.50065Z" fill="#F2F2F2"/>
</g>
<defs>
<clipPath id="clip0_6103_8986">
<rect width="20" height="20" fill="white" transform="translate(0.453125)"/>
</clipPath>
</defs>
</svg>
