<svg width="21" height="21" viewBox="0 0 21 21" fill="none" xmlns="http://www.w3.org/2000/svg">
<g clip-path="url(#clip0_3356_13954)">
<path d="M2.46224 16.64V7.47331H1.62891V5.80664H4.12891V4.13997C4.12891 3.91896 4.2167 3.707 4.37298 3.55072C4.52926 3.39444 4.74123 3.30664 4.96224 3.30664H16.6289C16.8499 3.30664 17.0619 3.39444 17.2182 3.55072C17.3744 3.707 17.4622 3.91896 17.4622 4.13997V5.80664H19.9622V7.47331H19.1289V16.64H19.9622V18.3066H1.62891V16.64H2.46224ZM11.6289 16.64V10.8066H9.96224V16.64H11.6289ZM7.46224 16.64V10.8066H5.79557V16.64H7.46224ZM15.7956 16.64V10.8066H14.1289V16.64H15.7956ZM5.79557 4.97331V5.80664H15.7956V4.97331H5.79557Z" fill="#F2F2F2"/>
</g>
<defs>
<clipPath id="clip0_3356_13954">
<rect width="20" height="20" fill="white" transform="translate(0.796875 0.806641)"/>
</clipPath>
</defs>
</svg>
