<svg width="21" height="21" viewBox="0 0 21 21" fill="none" xmlns="http://www.w3.org/2000/svg">
<g clip-path="url(#clip0_3356_13949)">
<path d="M18.2982 18.3066H3.29818C3.07716 18.3066 2.8652 18.2188 2.70892 18.0626C2.55264 17.9063 2.46484 17.6943 2.46484 17.4733V11.2125C2.46483 11.0934 2.49034 10.9757 2.53964 10.8673C2.58895 10.7589 2.66091 10.6624 2.75068 10.5841L5.79818 7.92664V4.13997C5.79818 3.91896 5.88597 3.707 6.04226 3.55072C6.19854 3.39444 6.4105 3.30664 6.63151 3.30664H18.2982C18.5192 3.30664 18.7312 3.39444 18.8874 3.55072C19.0437 3.707 19.1315 3.91896 19.1315 4.13997V17.4733C19.1315 17.6943 19.0437 17.9063 18.8874 18.0626C18.7312 18.2188 18.5192 18.3066 18.2982 18.3066ZM8.29818 16.64H10.7982V11.5916L7.46484 8.68497L4.13151 11.5916V16.64H6.63151V13.3066H8.29818V16.64ZM12.4648 16.64H17.4648V4.97331H7.46484V6.74581C7.65984 6.74581 7.85568 6.81414 8.01234 6.95164L12.179 10.5841C12.2688 10.6624 12.3407 10.7589 12.39 10.8673C12.4394 10.9757 12.4649 11.0934 12.4648 11.2125V16.64ZM14.1315 9.97331H15.7982V11.64H14.1315V9.97331ZM14.1315 13.3066H15.7982V14.9733H14.1315V13.3066ZM14.1315 6.63997H15.7982V8.30664H14.1315V6.63997ZM10.7982 6.63997H12.4648V8.30664H10.7982V6.63997Z" fill="#F2F2F2"/>
</g>
<defs>
<clipPath id="clip0_3356_13949">
<rect width="20" height="20" fill="white" transform="translate(0.796875 0.806641)"/>
</clipPath>
</defs>
</svg>
