<svg width="21" height="20" viewBox="0 0 21 20" fill="none" xmlns="http://www.w3.org/2000/svg">
<g clip-path="url(#clip0_5507_3384)">
<path d="M17.1198 18.3327H3.78646C3.56544 18.3327 3.35348 18.2449 3.1972 18.0886C3.04092 17.9323 2.95313 17.7204 2.95312 17.4993V2.49935C2.95312 2.27834 3.04092 2.06637 3.1972 1.91009C3.35348 1.75381 3.56544 1.66602 3.78646 1.66602H17.1198C17.3408 1.66602 17.5528 1.75381 17.709 1.91009C17.8653 2.06637 17.9531 2.27834 17.9531 2.49935V17.4993C17.9531 17.7204 17.8653 17.9323 17.709 18.0886C17.5528 18.2449 17.3408 18.3327 17.1198 18.3327ZM7.95312 4.99935H6.28646V6.66602C6.28646 7.77108 6.72545 8.83089 7.50685 9.61229C8.28825 10.3937 9.34806 10.8327 10.4531 10.8327C11.5582 10.8327 12.618 10.3937 13.3994 9.61229C14.1808 8.83089 14.6198 7.77108 14.6198 6.66602V4.99935H12.9531V6.66602C12.9531 7.32906 12.6897 7.96494 12.2209 8.43378C11.7521 8.90262 11.1162 9.16602 10.4531 9.16602C9.79008 9.16602 9.1542 8.90262 8.68536 8.43378C8.21652 7.96494 7.95312 7.32906 7.95312 6.66602V4.99935Z" fill="#F2F2F2"/>
</g>
<defs>
<clipPath id="clip0_5507_3384">
<rect width="20" height="20" fill="white" transform="translate(0.453125)"/>
</clipPath>
</defs>
</svg>
