<svg width="24" height="25" viewBox="0 0 24 25" fill="none" xmlns="http://www.w3.org/2000/svg">
<g clip-path="url(#clip0_1535_34137)">
<path d="M4 18.8066H6V20.8066H18V4.80664H6V6.80664H4V3.80664C4 3.54142 4.10536 3.28707 4.29289 3.09953C4.48043 2.912 4.73478 2.80664 5 2.80664H19C19.2652 2.80664 19.5196 2.912 19.7071 3.09953C19.8946 3.28707 20 3.54142 20 3.80664V21.8066C20 22.0719 19.8946 22.3262 19.7071 22.5137C19.5196 22.7013 19.2652 22.8066 19 22.8066H5C4.73478 22.8066 4.48043 22.7013 4.29289 22.5137C4.10536 22.3262 4 22.0719 4 21.8066V18.8066ZM6 11.8066H13V13.8066H6V16.8066L1 12.8066L6 8.80664V11.8066Z" fill="#D64137"/>
</g>
<defs>
<clipPath id="clip0_1535_34137">
<rect width="24" height="24" fill="white" transform="translate(0 0.806641)"/>
</clipPath>
</defs>
</svg>
