<svg width="21" height="21" viewBox="0 0 21 21" fill="none" xmlns="http://www.w3.org/2000/svg">
<g clip-path="url(#clip0_3356_13959)">
<path d="M3.29818 9.13997H18.2982V17.4766C18.2982 17.935 17.9273 18.3066 17.4707 18.3066H4.12568C4.01683 18.3065 3.90907 18.285 3.80856 18.2432C3.70805 18.2014 3.61676 18.1402 3.53991 18.0631C3.46305 17.9861 3.40215 17.8946 3.36067 17.7939C3.31919 17.6933 3.29796 17.5855 3.29818 17.4766V9.13997ZM8.29818 10.8066V12.4733H13.2982V10.8066H8.29818ZM2.46484 4.13997C2.46484 3.67997 2.84401 3.30664 3.29151 3.30664H18.3048C18.7615 3.30664 19.1315 3.67664 19.1315 4.13997V7.47331H2.46484V4.13997Z" fill="#F2F2F2"/>
</g>
<defs>
<clipPath id="clip0_3356_13959">
<rect width="20" height="20" fill="white" transform="translate(0.796875 0.806641)"/>
</clipPath>
</defs>
</svg>
