<svg width="21" height="21" viewBox="0 0 21 21" fill="none" xmlns="http://www.w3.org/2000/svg">
<g clip-path="url(#clip0_3356_6103)">
<path d="M10.4518 0.990234L18.3685 5.57357V14.7402L10.4518 19.3236L2.53516 14.7402V5.57357L10.4518 0.990234ZM10.4518 12.6569C11.1149 12.6569 11.7507 12.3935 12.2196 11.9247C12.6884 11.4558 12.9518 10.8199 12.9518 10.1569C12.9518 9.49386 12.6884 8.85797 12.2196 8.38913C11.7507 7.92029 11.1149 7.6569 10.4518 7.6569C9.78878 7.6569 9.1529 7.92029 8.68406 8.38913C8.21521 8.85797 7.95182 9.49386 7.95182 10.1569C7.95182 10.8199 8.21521 11.4558 8.68406 11.9247C9.1529 12.3935 9.78878 12.6569 10.4518 12.6569V12.6569Z" fill="#F2F2F2"/>
</g>
<defs>
<clipPath id="clip0_3356_6103">
<rect width="20" height="20" fill="white" transform="translate(0.453125 0.15625)"/>
</clipPath>
</defs>
</svg>
