<svg width="21" height="21" viewBox="0 0 21 21" fill="none" xmlns="http://www.w3.org/2000/svg">
<g clip-path="url(#clip0_3356_4032)">
<path d="M6.63151 4.97396V2.47396C6.63151 2.25294 6.71931 2.04098 6.87559 1.8847C7.03187 1.72842 7.24383 1.64063 7.46484 1.64062H14.1315C14.3525 1.64063 14.5645 1.72842 14.7208 1.8847C14.877 2.04098 14.9648 2.25294 14.9648 2.47396V4.97396H18.2982C18.5192 4.97396 18.7312 5.06176 18.8874 5.21804C19.0437 5.37432 19.1315 5.58628 19.1315 5.80729V17.474C19.1315 17.695 19.0437 17.9069 18.8874 18.0632C18.7312 18.2195 18.5192 18.3073 18.2982 18.3073H3.29818C3.07716 18.3073 2.8652 18.2195 2.70892 18.0632C2.55264 17.9069 2.46484 17.695 2.46484 17.474V5.80729C2.46484 5.58628 2.55264 5.37432 2.70892 5.21804C2.8652 5.06176 3.07716 4.97396 3.29818 4.97396H6.63151ZM4.13151 13.3073V16.6406H17.4648V13.3073H4.13151ZM9.96484 9.97396V11.6406H11.6315V9.97396H9.96484ZM8.29818 3.30729V4.97396H13.2982V3.30729H8.29818Z" fill="#F2F2F2"/>
</g>
<defs>
<clipPath id="clip0_3356_4032">
<rect width="20" height="20" fill="white" transform="translate(0.796875 0.806641)"/>
</clipPath>
</defs>
</svg>
