<svg width="21" height="21" viewBox="0 0 21 21" fill="none" xmlns="http://www.w3.org/2000/svg">
<g clip-path="url(#clip0_3356_4027)">
<path d="M10.4544 18.4733C5.85193 18.4733 2.12109 14.7425 2.12109 10.14C2.12109 5.53747 5.85193 1.80664 10.4544 1.80664C15.0569 1.80664 18.7878 5.53747 18.7878 10.14C18.7878 14.7425 15.0569 18.4733 10.4544 18.4733ZM9.62109 12.64V14.3066H11.2878V12.64H9.62109ZM11.2878 11.2691C11.9575 11.0673 12.5324 10.6316 12.9079 10.0414C13.2834 9.45125 13.4343 8.74585 13.3334 8.0537C13.2324 7.36154 12.8862 6.72867 12.3578 6.27035C11.8294 5.81204 11.1539 5.55876 10.4544 5.55664C9.78014 5.55659 9.12665 5.7901 8.60509 6.21747C8.08353 6.64483 7.7261 7.23967 7.59359 7.90081L9.22859 8.22831C9.27499 7.99617 9.38636 7.78198 9.54973 7.61065C9.71311 7.43933 9.92177 7.31793 10.1514 7.26056C10.3811 7.2032 10.6224 7.21223 10.8471 7.28662C11.0719 7.361 11.2709 7.49767 11.421 7.68073C11.5711 7.86379 11.6661 8.08572 11.695 8.32068C11.7239 8.55564 11.6855 8.79398 11.5842 9.00796C11.483 9.22194 11.323 9.40278 11.123 9.52942C10.923 9.65605 10.6912 9.72329 10.4544 9.72331C10.2334 9.72331 10.0215 9.81111 9.86517 9.96739C9.70889 10.1237 9.62109 10.3356 9.62109 10.5566V11.8066H11.2878V11.2691Z" fill="#F2F2F2"/>
</g>
<defs>
<clipPath id="clip0_3356_4027">
<rect width="20" height="20" fill="white" transform="translate(0.453125 0.140625)"/>
</clipPath>
</defs>
</svg>
