<svg width="47" height="46" viewBox="0 0 47 46" fill="none" xmlns="http://www.w3.org/2000/svg">
<g clip-path="url(#clip0_2256_24334)">
<path d="M9.75627 40.25L9.71794 40.2883L9.67769 40.25H6.23727C5.73283 40.2495 5.24922 40.0487 4.89271 39.6919C4.53619 39.335 4.33594 38.8512 4.33594 38.3467V7.65325C4.33945 7.14989 4.54083 6.66812 4.89659 6.312C5.25234 5.95588 5.73392 5.75401 6.23727 5.75H40.7679C41.8183 5.75 42.6693 6.60292 42.6693 7.65325V38.3467C42.6658 38.8501 42.4644 39.3319 42.1086 39.688C41.7529 40.0441 41.2713 40.246 40.7679 40.25H9.75627V40.25ZM38.8359 28.75V9.58333H8.16927V36.4167L27.3359 17.25L38.8359 28.75ZM38.8359 34.1703L27.3359 22.6703L13.5896 36.4167H38.8359V34.1703ZM15.8359 21.0833C14.8193 21.0833 13.8443 20.6795 13.1254 19.9606C12.4065 19.2417 12.0026 18.2667 12.0026 17.25C12.0026 16.2333 12.4065 15.2583 13.1254 14.5394C13.8443 13.8205 14.8193 13.4167 15.8359 13.4167C16.8526 13.4167 17.8276 13.8205 18.5465 14.5394C19.2654 15.2583 19.6693 16.2333 19.6693 17.25C19.6693 18.2667 19.2654 19.2417 18.5465 19.9606C17.8276 20.6795 16.8526 21.0833 15.8359 21.0833Z" fill="#F2F2F2"/>
</g>
<defs>
<clipPath id="clip0_2256_24334">
<rect width="46" height="46" fill="white" transform="translate(0.5)"/>
</clipPath>
</defs>
</svg>
