<svg width="12" height="9" viewBox="0 0 12 9" fill="none" xmlns="http://www.w3.org/2000/svg">
<path fill-rule="evenodd" clip-rule="evenodd" d="M7.43561 2.76312C5.80009 4.28284 4.42421 5.56239 4.37809 5.60657L4.29424 5.68688L3.00774 4.31088C2.30017 3.5541 1.71086 2.93835 1.69818 2.9426C1.68549 2.94684 1.2982 3.30359 0.837555 3.73536L0 4.5204L0.0737216 4.60561C0.114264 4.6525 1.05434 5.66039 2.16274 6.84542L4.17803 9L4.30826 8.87342C4.37989 8.80382 6.1004 7.20523 8.13158 5.32107C10.1628 3.43688 11.8642 1.85707 11.9123 1.81037L12 1.72547L11.3405 1.00876C10.9778 0.614574 10.6199 0.226353 10.5451 0.14603L10.4092 0L7.43561 2.76312Z" fill="white"/>
</svg>
