<svg width="24" height="24" viewBox="0 0 24 24" fill="none" xmlns="http://www.w3.org/2000/svg">
<g clip-path="url(#clip0_2052_22552)">
<path d="M12 24C18.6274 24 24 18.6274 24 12C24 5.37258 18.6274 0 12 0C5.37258 0 0 5.37258 0 12C0 18.6274 5.37258 24 12 24Z" fill="#F0B90B"/>
<path fill-rule="evenodd" clip-rule="evenodd" d="M6.89276 8.95211L12.0048 3.84009L14.0431 5.87838L8.93108 10.9904L6.89276 8.95211ZM6.89651 15.0608L15.066 6.8913L17.1043 8.92962L8.9348 17.0991L6.89651 15.0608ZM18.1214 9.95248L9.95188 18.122L11.9902 20.1603L20.1597 11.9908L18.1214 9.95248ZM3.83984 12.0044L5.87814 9.96609L7.91646 12.0044L5.87814 14.0427L3.83984 12.0044Z" fill="white"/>
</g>
<defs>
<clipPath id="clip0_2052_22552">
<rect width="24" height="24" fill="white"/>
</clipPath>
</defs>
</svg>
