<svg width="18" height="16" viewBox="0 0 18 16" fill="none" xmlns="http://www.w3.org/2000/svg">
<path d="M9.00019 1.77415C10.9577 0.0166498 13.9827 0.0749833 15.8685 1.96415C17.7535 3.85415 17.8185 6.86415 16.0652 8.82748L8.99852 15.9042L1.93352 8.82748C0.180187 6.86415 0.246021 3.84915 2.13019 1.96415C4.01769 0.0774834 7.03685 0.0141498 9.00019 1.77415ZM14.6885 3.14165C13.4385 1.88998 11.4219 1.83915 10.1135 3.01415L9.00102 4.01248L7.88769 3.01498C6.57519 1.83832 4.56269 1.88998 3.30935 3.14332C2.06769 4.38498 2.00519 6.37248 3.14935 7.68582L8.99935 13.545L14.8494 7.68665C15.9944 6.37248 15.9319 4.38748 14.6885 3.14165Z" fill="#F2F2F2"/>
</svg>
