<svg width="20" height="20" viewBox="0 0 20 20" fill="none" xmlns="http://www.w3.org/2000/svg">
<g clip-path="url(#clip0_6367_26735)">
<path d="M10 20C15.5228 20 20 15.5228 20 10C20 4.47715 15.5228 0 10 0C4.47715 0 0 4.47715 0 10C0 15.5228 4.47715 20 10 20Z" fill="url(#paint0_linear_6367_26735)"/>
<path d="M10.3297 16.4099C10.4922 16.3574 10.6906 16.2158 10.7968 16.0766C10.926 15.9064 15.4501 7.58745 15.5097 7.41061C15.5367 7.33036 15.5645 7.19311 15.5716 7.10586C15.6192 6.51228 15.1897 5.93336 14.5978 5.79353C14.3898 5.74353 5.63114 5.74536 5.4228 5.79453C4.98947 5.89678 4.6503 6.22036 4.49755 6.67503C4.43572 6.85903 4.4423 7.20528 4.51139 7.4042C4.57172 7.57778 9.09389 15.8975 9.22155 16.0698C9.4693 16.4031 9.92055 16.5429 10.3299 16.4108L10.3297 16.4099ZM7.4633 10.9669L5.36997 7.02078C5.3698 6.88595 5.43197 6.78395 5.55147 6.72328L5.6478 6.67428H9.56739L9.56197 14.8143C9.55897 14.8139 8.61447 13.0826 7.4633 10.967V10.9669ZM10.4791 10.7264V6.6742H14.3771L14.4734 6.7232C14.5929 6.78403 14.6551 6.88595 14.6549 7.0207C14.6547 7.1117 14.4739 7.45253 12.5747 10.9404L10.4869 14.7695C10.4826 14.7745 10.4791 12.9551 10.4791 10.7264L10.4791 10.7264Z" fill="white"/>
</g>
<defs>
<linearGradient id="paint0_linear_6367_26735" x1="13.34" y1="3.34" x2="8.34" y2="15" gradientUnits="userSpaceOnUse">
<stop stop-color="#37AEE2"/>
<stop offset="1" stop-color="#1E96C8"/>
</linearGradient>
<clipPath id="clip0_6367_26735">
<rect width="20" height="20" fill="white"/>
</clipPath>
</defs>
</svg>
