<svg width="16" height="12" viewBox="0 0 16 12" fill="none" xmlns="http://www.w3.org/2000/svg">
<path fill-rule="evenodd" clip-rule="evenodd" d="M9.91415 3.67605C7.73345 5.69789 5.89895 7.40021 5.83745 7.45898L5.72565 7.56582L4.01032 5.73519C3.06689 4.72838 2.28115 3.90918 2.26424 3.91484C2.24732 3.92047 1.73093 4.3951 1.11674 4.96952L0 6.01394L0.0982955 6.12731C0.152352 6.18968 1.40578 7.53058 2.88365 9.10715L5.5707 11.9736L5.74435 11.8052C5.83986 11.7126 8.13386 9.58584 10.8421 7.07915C13.5504 4.57243 15.8189 2.47064 15.8831 2.40852L16 2.29556L15.1207 1.34206C14.6371 0.817629 14.1599 0.30114 14.0602 0.194278L13.879 0L9.91415 3.67605Z" fill="white"/>
</svg>
